G04 #@! TF.FileFunction,Copper,L1,Top,Signal*
%FSLAX46Y46*%
G04 Gerber Fmt 4.6, Leading zero omitted, Abs format (unit mm)*
G04 Created by KiCad (PCBNEW 4.0.0-rc2-stable) date 8/02/2016 3:26:41 p. m.*
%MOMM*%
G01*
G04 APERTURE LIST*
%ADD10C,0.150000*%
%ADD11C,0.100000*%
%ADD12R,1.600000X2.000000*%
%ADD13R,2.000000X1.600000*%
%ADD14R,1.500000X1.250000*%
%ADD15R,2.799080X1.501140*%
%ADD16R,1.198880X1.198880*%
%ADD17R,0.800100X0.701040*%
%ADD18R,0.850900X0.599440*%
%ADD19R,3.350260X1.300480*%
%ADD20R,1.899920X0.800100*%
%ADD21R,2.000000X1.700000*%
%ADD22R,1.700000X2.000000*%
%ADD23R,1.500000X1.300000*%
%ADD24R,1.060000X0.650000*%
%ADD25R,1.500000X0.300000*%
%ADD26R,0.300000X1.500000*%
%ADD27R,1.550000X0.600000*%
%ADD28R,0.750000X1.200000*%
%ADD29R,1.250000X1.500000*%
%ADD30R,1.600000X2.180000*%
%ADD31R,1.727200X2.032000*%
%ADD32O,1.727200X2.032000*%
%ADD33C,0.600000*%
%ADD34C,0.250000*%
%ADD35C,0.254000*%
G04 APERTURE END LIST*
D10*
D11*
X150989352Y-43418381D02*
X151227447Y-44418381D01*
X151417924Y-43704095D01*
X151608400Y-44418381D01*
X151846495Y-43418381D01*
X152227447Y-44418381D02*
X152227447Y-43751714D01*
X152227447Y-43418381D02*
X152179828Y-43466000D01*
X152227447Y-43513619D01*
X152275066Y-43466000D01*
X152227447Y-43418381D01*
X152227447Y-43513619D01*
X152703637Y-44418381D02*
X152703637Y-43751714D01*
X152703637Y-43942190D02*
X152751256Y-43846952D01*
X152798875Y-43799333D01*
X152894113Y-43751714D01*
X152989352Y-43751714D01*
X153703638Y-44370762D02*
X153608400Y-44418381D01*
X153417923Y-44418381D01*
X153322685Y-44370762D01*
X153275066Y-44275524D01*
X153275066Y-43894571D01*
X153322685Y-43799333D01*
X153417923Y-43751714D01*
X153608400Y-43751714D01*
X153703638Y-43799333D01*
X153751257Y-43894571D01*
X153751257Y-43989810D01*
X153275066Y-44085048D01*
X154322685Y-44418381D02*
X154227447Y-44370762D01*
X154179828Y-44275524D01*
X154179828Y-43418381D01*
X155084591Y-44370762D02*
X154989353Y-44418381D01*
X154798876Y-44418381D01*
X154703638Y-44370762D01*
X154656019Y-44275524D01*
X154656019Y-43894571D01*
X154703638Y-43799333D01*
X154798876Y-43751714D01*
X154989353Y-43751714D01*
X155084591Y-43799333D01*
X155132210Y-43894571D01*
X155132210Y-43989810D01*
X154656019Y-44085048D01*
X155513162Y-44370762D02*
X155608400Y-44418381D01*
X155798876Y-44418381D01*
X155894115Y-44370762D01*
X155941734Y-44275524D01*
X155941734Y-44227905D01*
X155894115Y-44132667D01*
X155798876Y-44085048D01*
X155656019Y-44085048D01*
X155560781Y-44037429D01*
X155513162Y-43942190D01*
X155513162Y-43894571D01*
X155560781Y-43799333D01*
X155656019Y-43751714D01*
X155798876Y-43751714D01*
X155894115Y-43799333D01*
X156322686Y-44370762D02*
X156417924Y-44418381D01*
X156608400Y-44418381D01*
X156703639Y-44370762D01*
X156751258Y-44275524D01*
X156751258Y-44227905D01*
X156703639Y-44132667D01*
X156608400Y-44085048D01*
X156465543Y-44085048D01*
X156370305Y-44037429D01*
X156322686Y-43942190D01*
X156322686Y-43894571D01*
X156370305Y-43799333D01*
X156465543Y-43751714D01*
X156608400Y-43751714D01*
X156703639Y-43799333D01*
X157179829Y-44418381D02*
X157179829Y-43418381D01*
X157751258Y-44418381D01*
X157751258Y-43418381D01*
X158560782Y-43894571D02*
X158703639Y-43942190D01*
X158751258Y-43989810D01*
X158798877Y-44085048D01*
X158798877Y-44227905D01*
X158751258Y-44323143D01*
X158703639Y-44370762D01*
X158608401Y-44418381D01*
X158227448Y-44418381D01*
X158227448Y-43418381D01*
X158560782Y-43418381D01*
X158656020Y-43466000D01*
X158703639Y-43513619D01*
X158751258Y-43608857D01*
X158751258Y-43704095D01*
X158703639Y-43799333D01*
X158656020Y-43846952D01*
X158560782Y-43894571D01*
X158227448Y-43894571D01*
X159179829Y-43513619D02*
X159227448Y-43466000D01*
X159322686Y-43418381D01*
X159560782Y-43418381D01*
X159656020Y-43466000D01*
X159703639Y-43513619D01*
X159751258Y-43608857D01*
X159751258Y-43704095D01*
X159703639Y-43846952D01*
X159132210Y-44418381D01*
X159751258Y-44418381D01*
X160179829Y-44323143D02*
X160227448Y-44370762D01*
X160179829Y-44418381D01*
X160132210Y-44370762D01*
X160179829Y-44323143D01*
X160179829Y-44418381D01*
X160846495Y-43418381D02*
X160941734Y-43418381D01*
X161036972Y-43466000D01*
X161084591Y-43513619D01*
X161132210Y-43608857D01*
X161179829Y-43799333D01*
X161179829Y-44037429D01*
X161132210Y-44227905D01*
X161084591Y-44323143D01*
X161036972Y-44370762D01*
X160941734Y-44418381D01*
X160846495Y-44418381D01*
X160751257Y-44370762D01*
X160703638Y-44323143D01*
X160656019Y-44227905D01*
X160608400Y-44037429D01*
X160608400Y-43799333D01*
X160656019Y-43608857D01*
X160703638Y-43513619D01*
X160751257Y-43466000D01*
X160846495Y-43418381D01*
X152013162Y-45013619D02*
X152060781Y-44966000D01*
X152156019Y-44918381D01*
X152394115Y-44918381D01*
X152489353Y-44966000D01*
X152536972Y-45013619D01*
X152584591Y-45108857D01*
X152584591Y-45204095D01*
X152536972Y-45346952D01*
X151965543Y-45918381D01*
X152584591Y-45918381D01*
X153203638Y-44918381D02*
X153298877Y-44918381D01*
X153394115Y-44966000D01*
X153441734Y-45013619D01*
X153489353Y-45108857D01*
X153536972Y-45299333D01*
X153536972Y-45537429D01*
X153489353Y-45727905D01*
X153441734Y-45823143D01*
X153394115Y-45870762D01*
X153298877Y-45918381D01*
X153203638Y-45918381D01*
X153108400Y-45870762D01*
X153060781Y-45823143D01*
X153013162Y-45727905D01*
X152965543Y-45537429D01*
X152965543Y-45299333D01*
X153013162Y-45108857D01*
X153060781Y-45013619D01*
X153108400Y-44966000D01*
X153203638Y-44918381D01*
X154489353Y-45918381D02*
X153917924Y-45918381D01*
X154203638Y-45918381D02*
X154203638Y-44918381D01*
X154108400Y-45061238D01*
X154013162Y-45156476D01*
X153917924Y-45204095D01*
X154870305Y-45013619D02*
X154917924Y-44966000D01*
X155013162Y-44918381D01*
X155251258Y-44918381D01*
X155346496Y-44966000D01*
X155394115Y-45013619D01*
X155441734Y-45108857D01*
X155441734Y-45204095D01*
X155394115Y-45346952D01*
X154822686Y-45918381D01*
X155441734Y-45918381D01*
X155822686Y-45013619D02*
X155870305Y-44966000D01*
X155965543Y-44918381D01*
X156203639Y-44918381D01*
X156298877Y-44966000D01*
X156346496Y-45013619D01*
X156394115Y-45108857D01*
X156394115Y-45204095D01*
X156346496Y-45346952D01*
X155775067Y-45918381D01*
X156394115Y-45918381D01*
X156775067Y-45013619D02*
X156822686Y-44966000D01*
X156917924Y-44918381D01*
X157156020Y-44918381D01*
X157251258Y-44966000D01*
X157298877Y-45013619D01*
X157346496Y-45108857D01*
X157346496Y-45204095D01*
X157298877Y-45346952D01*
X156727448Y-45918381D01*
X157346496Y-45918381D01*
X158203639Y-44918381D02*
X158013162Y-44918381D01*
X157917924Y-44966000D01*
X157870305Y-45013619D01*
X157775067Y-45156476D01*
X157727448Y-45346952D01*
X157727448Y-45727905D01*
X157775067Y-45823143D01*
X157822686Y-45870762D01*
X157917924Y-45918381D01*
X158108401Y-45918381D01*
X158203639Y-45870762D01*
X158251258Y-45823143D01*
X158298877Y-45727905D01*
X158298877Y-45489810D01*
X158251258Y-45394571D01*
X158203639Y-45346952D01*
X158108401Y-45299333D01*
X157917924Y-45299333D01*
X157822686Y-45346952D01*
X157775067Y-45394571D01*
X157727448Y-45489810D01*
X159251258Y-45918381D02*
X158679829Y-45918381D01*
X158965543Y-45918381D02*
X158965543Y-44918381D01*
X158870305Y-45061238D01*
X158775067Y-45156476D01*
X158679829Y-45204095D01*
X160108401Y-45251714D02*
X160108401Y-45918381D01*
X159870305Y-44870762D02*
X159632210Y-45585048D01*
X160251258Y-45585048D01*
X154751258Y-46418381D02*
X154751258Y-47132667D01*
X154703638Y-47275524D01*
X154608400Y-47370762D01*
X154465543Y-47418381D01*
X154370305Y-47418381D01*
X155179829Y-47370762D02*
X155322686Y-47418381D01*
X155560782Y-47418381D01*
X155656020Y-47370762D01*
X155703639Y-47323143D01*
X155751258Y-47227905D01*
X155751258Y-47132667D01*
X155703639Y-47037429D01*
X155656020Y-46989810D01*
X155560782Y-46942190D01*
X155370305Y-46894571D01*
X155275067Y-46846952D01*
X155227448Y-46799333D01*
X155179829Y-46704095D01*
X155179829Y-46608857D01*
X155227448Y-46513619D01*
X155275067Y-46466000D01*
X155370305Y-46418381D01*
X155608401Y-46418381D01*
X155751258Y-46466000D01*
X156179829Y-46418381D02*
X156179829Y-47227905D01*
X156227448Y-47323143D01*
X156275067Y-47370762D01*
X156370305Y-47418381D01*
X156560782Y-47418381D01*
X156656020Y-47370762D01*
X156703639Y-47323143D01*
X156751258Y-47227905D01*
X156751258Y-46418381D01*
X157227448Y-47418381D02*
X157227448Y-46418381D01*
X157608401Y-46418381D01*
X157703639Y-46466000D01*
X157751258Y-46513619D01*
X157798877Y-46608857D01*
X157798877Y-46751714D01*
X157751258Y-46846952D01*
X157703639Y-46894571D01*
X157608401Y-46942190D01*
X157227448Y-46942190D01*
D12*
X148336000Y-68993000D03*
X148336000Y-72993000D03*
D13*
X166084000Y-87884000D03*
X162084000Y-87884000D03*
D14*
X173197200Y-79552800D03*
X175697200Y-79552800D03*
D15*
X145161000Y-73370440D03*
X145161000Y-68869560D03*
D16*
X140749020Y-57404000D03*
X138650980Y-57404000D03*
D14*
X166096000Y-78486000D03*
X163596000Y-78486000D03*
D17*
X138628120Y-65537080D03*
D18*
X142402560Y-69088000D03*
X142402560Y-67889120D03*
D17*
X138628120Y-72638920D03*
D18*
X142402560Y-66687700D03*
X142402560Y-70286880D03*
X142402560Y-71488300D03*
D19*
X139603480Y-83647280D03*
D20*
X144477740Y-87746840D03*
X144477740Y-86497160D03*
D19*
X139603480Y-90596720D03*
X184119520Y-59547760D03*
D20*
X179245260Y-51699160D03*
X179245260Y-52948840D03*
D19*
X184119520Y-45100240D03*
D20*
X179245260Y-54198520D03*
X179245260Y-50449480D03*
X179245260Y-55448200D03*
X179245260Y-49199800D03*
X179245260Y-56697880D03*
X179245260Y-47950120D03*
D19*
X183929020Y-79042260D03*
D20*
X179054760Y-71193660D03*
X179054760Y-72443340D03*
D19*
X183929020Y-64594740D03*
D20*
X179054760Y-73693020D03*
X179054760Y-69943980D03*
X179054760Y-74942700D03*
X179054760Y-68694300D03*
X179054760Y-76192380D03*
X179054760Y-67444620D03*
D21*
X174847000Y-47244000D03*
X170847000Y-47244000D03*
X178784000Y-44450000D03*
X174784000Y-44450000D03*
X172561500Y-66230500D03*
X176561500Y-66230500D03*
X174974500Y-63563500D03*
X178974500Y-63563500D03*
X144177000Y-58801000D03*
X148177000Y-58801000D03*
D22*
X176885600Y-86392000D03*
X176885600Y-90392000D03*
D16*
X140749020Y-60071000D03*
X138650980Y-60071000D03*
D17*
X138628120Y-73886060D03*
D18*
X142402560Y-77434440D03*
X142402560Y-76235560D03*
D17*
X138628120Y-79783940D03*
D18*
X142402560Y-75034140D03*
X142402560Y-78635860D03*
D23*
X163623000Y-81788000D03*
X166323000Y-81788000D03*
D13*
X172396400Y-82092800D03*
X176396400Y-82092800D03*
D21*
X158083000Y-90424000D03*
X154083000Y-90424000D03*
D24*
X161968000Y-56454000D03*
X161968000Y-57404000D03*
X161968000Y-58354000D03*
X164168000Y-58354000D03*
X164168000Y-56454000D03*
D25*
X166990000Y-71568000D03*
X166990000Y-71068000D03*
X166990000Y-70568000D03*
X166990000Y-70068000D03*
X166990000Y-69568000D03*
X166990000Y-69068000D03*
X166990000Y-68568000D03*
X166990000Y-68068000D03*
X166990000Y-67568000D03*
X166990000Y-67068000D03*
X166990000Y-66568000D03*
X166990000Y-66068000D03*
X166990000Y-65568000D03*
X166990000Y-65068000D03*
X166990000Y-64568000D03*
X166990000Y-64068000D03*
D26*
X165040000Y-62118000D03*
X164540000Y-62118000D03*
X164040000Y-62118000D03*
X163540000Y-62118000D03*
X163040000Y-62118000D03*
X162540000Y-62118000D03*
X162040000Y-62118000D03*
X161540000Y-62118000D03*
X161040000Y-62118000D03*
X160540000Y-62118000D03*
X160040000Y-62118000D03*
X159540000Y-62118000D03*
X159040000Y-62118000D03*
X158540000Y-62118000D03*
X158040000Y-62118000D03*
X157540000Y-62118000D03*
D25*
X155590000Y-64068000D03*
X155590000Y-64568000D03*
X155590000Y-65068000D03*
X155590000Y-65568000D03*
X155590000Y-66068000D03*
X155590000Y-66568000D03*
X155590000Y-67068000D03*
X155590000Y-67568000D03*
X155590000Y-68068000D03*
X155590000Y-68568000D03*
X155590000Y-69068000D03*
X155590000Y-69568000D03*
X155590000Y-70068000D03*
X155590000Y-70568000D03*
X155590000Y-71068000D03*
X155590000Y-71568000D03*
D26*
X157540000Y-73518000D03*
X158040000Y-73518000D03*
X158540000Y-73518000D03*
X159040000Y-73518000D03*
X159540000Y-73518000D03*
X160040000Y-73518000D03*
X160540000Y-73518000D03*
X161040000Y-73518000D03*
X161540000Y-73518000D03*
X162040000Y-73518000D03*
X162540000Y-73518000D03*
X163040000Y-73518000D03*
X163540000Y-73518000D03*
X164040000Y-73518000D03*
X164540000Y-73518000D03*
X165040000Y-73518000D03*
D24*
X153840000Y-86553000D03*
X153840000Y-87503000D03*
X153840000Y-88453000D03*
X156040000Y-88453000D03*
X156040000Y-86553000D03*
D27*
X168750000Y-86944200D03*
X168750000Y-88214200D03*
X168750000Y-89484200D03*
X168750000Y-90754200D03*
X174150000Y-90754200D03*
X174150000Y-89484200D03*
X174150000Y-88214200D03*
X174150000Y-86944200D03*
D12*
X152654000Y-55594000D03*
X152654000Y-51594000D03*
X149479000Y-55721000D03*
X149479000Y-51721000D03*
D13*
X158718000Y-77851000D03*
X154718000Y-77851000D03*
D14*
X157841000Y-80518000D03*
X155341000Y-80518000D03*
D28*
X155194000Y-53147000D03*
X155194000Y-51247000D03*
X170027600Y-81396800D03*
X170027600Y-83296800D03*
D14*
X162580000Y-90551000D03*
X165080000Y-90551000D03*
D12*
X158115000Y-54197000D03*
X158115000Y-50197000D03*
D29*
X160909000Y-52558000D03*
X160909000Y-50058000D03*
D30*
X141226320Y-44038570D03*
X141221680Y-53243430D03*
D17*
X185348880Y-91193620D03*
D18*
X181574440Y-89443560D03*
X181574440Y-90642440D03*
D17*
X185348880Y-88866980D03*
D31*
X150749000Y-90297000D03*
D32*
X148209000Y-90297000D03*
X145669000Y-90297000D03*
D33*
X179578000Y-89916000D03*
X153822400Y-70510400D03*
X177190400Y-88595200D03*
X165989000Y-58801000D03*
X147066000Y-51943000D03*
X144399000Y-77851000D03*
X141478000Y-78613000D03*
X144272000Y-72009000D03*
X141478000Y-71501000D03*
X155829000Y-82169000D03*
X152654000Y-87884000D03*
X159639000Y-87757000D03*
X144018000Y-70104000D03*
X177393600Y-80568800D03*
X183235600Y-80518000D03*
X174498000Y-82042000D03*
X153517600Y-71526400D03*
X150012400Y-72339200D03*
X165989000Y-60706000D03*
X165608000Y-56896000D03*
X171196000Y-43307000D03*
X144018000Y-74676000D03*
X148336000Y-63373000D03*
X154940000Y-85344000D03*
X166243000Y-86614000D03*
X184353200Y-90322400D03*
X140970000Y-56007000D03*
X139192000Y-58674000D03*
X141478000Y-68326000D03*
X141605000Y-69342000D03*
X138684000Y-69977000D03*
X141478000Y-67437000D03*
X141351000Y-86487000D03*
X183515000Y-49149000D03*
X183515000Y-51562000D03*
X180594000Y-53975000D03*
X183515000Y-47371000D03*
X181610000Y-55753000D03*
X179705000Y-57912000D03*
X183261000Y-68453000D03*
X182753000Y-71628000D03*
X182753000Y-73787000D03*
X180975000Y-66167000D03*
X180975000Y-75184000D03*
X179197000Y-77724000D03*
X169799000Y-50292000D03*
X172974000Y-46990000D03*
X171069000Y-64135000D03*
X170434000Y-63627000D03*
X170815000Y-66548000D03*
X170561000Y-65659000D03*
X168656000Y-67818000D03*
X170688000Y-67564000D03*
X174599600Y-66192400D03*
X164490400Y-69037200D03*
X175463200Y-68732400D03*
X174904400Y-67665600D03*
X171196000Y-73406000D03*
X174752000Y-71374000D03*
X169214800Y-79146400D03*
X171754800Y-76200000D03*
X145034000Y-61849000D03*
X172567600Y-87223600D03*
X164287200Y-85090000D03*
X158089600Y-82600800D03*
X153517600Y-83616800D03*
X141351000Y-61468000D03*
X141097000Y-62484000D03*
X138811000Y-75184000D03*
X140843000Y-77470000D03*
X156083000Y-90424000D03*
X151511000Y-65151000D03*
X151511000Y-62738000D03*
X149606000Y-67005200D03*
X150215600Y-77216000D03*
X159258000Y-65278000D03*
X152704800Y-79451200D03*
X149910800Y-79654400D03*
X147320000Y-81026000D03*
X153314400Y-81127600D03*
X160121600Y-66141600D03*
X158292800Y-66954400D03*
X157226000Y-67208400D03*
X157530800Y-68478400D03*
X157632400Y-69443600D03*
X149098000Y-80365600D03*
X153060400Y-80264000D03*
X160070800Y-71018400D03*
X164084000Y-60579000D03*
X162179000Y-59182000D03*
D34*
X187045600Y-92405200D02*
X137261600Y-92405200D01*
X186690000Y-42621200D02*
X186690000Y-92354400D01*
X186740800Y-42570400D02*
X186690000Y-42621200D01*
X137261600Y-42570400D02*
X186740800Y-42570400D01*
X137160000Y-42672000D02*
X137261600Y-42570400D01*
X137160000Y-92303600D02*
X137160000Y-42672000D01*
X137261600Y-92405200D02*
X137160000Y-92303600D01*
X180828000Y-83451000D02*
X181197000Y-83820000D01*
X181574440Y-89443560D02*
X180050440Y-89443560D01*
X180050440Y-89443560D02*
X179578000Y-89916000D01*
X141221680Y-53243430D02*
X143708170Y-53243430D01*
X145008600Y-51943000D02*
X147066000Y-51943000D01*
X143708170Y-53243430D02*
X145008600Y-51943000D01*
X155590000Y-70068000D02*
X155590000Y-70568000D01*
X153880000Y-70568000D02*
X155590000Y-70568000D01*
X153822400Y-70510400D02*
X153880000Y-70568000D01*
X159540000Y-72214800D02*
X159788800Y-72214800D01*
X159788800Y-72214800D02*
X161086800Y-70916800D01*
X158540000Y-73518000D02*
X158540000Y-72396800D01*
X159540000Y-72214800D02*
X159540000Y-73518000D01*
X159359600Y-72034400D02*
X159540000Y-72214800D01*
X158902400Y-72034400D02*
X159359600Y-72034400D01*
X158540000Y-72396800D02*
X158902400Y-72034400D01*
X157540000Y-73518000D02*
X157033200Y-73518000D01*
X157033200Y-73518000D02*
X157022800Y-73507600D01*
X155590000Y-68568000D02*
X154342400Y-68568000D01*
X154302400Y-69568000D02*
X155590000Y-69568000D01*
X154076400Y-69342000D02*
X154302400Y-69568000D01*
X154076400Y-68834000D02*
X154076400Y-69342000D01*
X154342400Y-68568000D02*
X154076400Y-68834000D01*
X155590000Y-70568000D02*
X158184400Y-70568000D01*
X158184400Y-70568000D02*
X158597600Y-70154800D01*
X162040000Y-73518000D02*
X162040000Y-71616000D01*
X162040000Y-71616000D02*
X161950400Y-71526400D01*
X162040000Y-62118000D02*
X162040000Y-61124400D01*
X163540000Y-60924000D02*
X163540000Y-62118000D01*
X163220400Y-60604400D02*
X163540000Y-60924000D01*
X162560000Y-60604400D02*
X163220400Y-60604400D01*
X162040000Y-61124400D02*
X162560000Y-60604400D01*
X162040000Y-62118000D02*
X162040000Y-63766000D01*
X162040000Y-63766000D02*
X161950400Y-63855600D01*
X161040000Y-62118000D02*
X161040000Y-63546800D01*
X161040000Y-63546800D02*
X161036000Y-63550800D01*
X175387000Y-89484200D02*
X174150000Y-89484200D01*
X176174400Y-88696800D02*
X175387000Y-89484200D01*
X177088800Y-88696800D02*
X176174400Y-88696800D01*
X177190400Y-88595200D02*
X177088800Y-88696800D01*
X170027600Y-83296800D02*
X170027600Y-85090000D01*
X170154600Y-88214200D02*
X168750000Y-88214200D01*
X170586400Y-87782400D02*
X170154600Y-88214200D01*
X170586400Y-85648800D02*
X170586400Y-87782400D01*
X170027600Y-85090000D02*
X170586400Y-85648800D01*
X176396400Y-82092800D02*
X176396400Y-82124800D01*
X176396400Y-82124800D02*
X174294800Y-84226400D01*
X170957200Y-84226400D02*
X170027600Y-83296800D01*
X174294800Y-84226400D02*
X170957200Y-84226400D01*
X176396400Y-82092800D02*
X176396400Y-80252000D01*
X176396400Y-80252000D02*
X175697200Y-79552800D01*
X183243000Y-86223600D02*
X183270400Y-86223600D01*
X183270400Y-86223600D02*
X185216800Y-84277200D01*
X185216800Y-84277200D02*
X185216800Y-82702400D01*
X185216800Y-82702400D02*
X184607200Y-82092800D01*
X184607200Y-82092800D02*
X176396400Y-82092800D01*
X168750000Y-88214200D02*
X168750000Y-89484200D01*
X155194000Y-51247000D02*
X153001000Y-51247000D01*
X153001000Y-51247000D02*
X152654000Y-51594000D01*
X155590000Y-68068000D02*
X155590000Y-68568000D01*
X155590000Y-69568000D02*
X155590000Y-70568000D01*
X161540000Y-73518000D02*
X162040000Y-73518000D01*
X155590000Y-64068000D02*
X157540000Y-62118000D01*
X157540000Y-62118000D02*
X158040000Y-62118000D01*
X161968000Y-57404000D02*
X164592000Y-57404000D01*
X164592000Y-57404000D02*
X165989000Y-58801000D01*
X160909000Y-50058000D02*
X161564000Y-50058000D01*
X162560000Y-57404000D02*
X161968000Y-57404000D01*
X163068000Y-56896000D02*
X162560000Y-57404000D01*
X163068000Y-51562000D02*
X163068000Y-56896000D01*
X161564000Y-50058000D02*
X163068000Y-51562000D01*
X147288000Y-51721000D02*
X149479000Y-51721000D01*
X147066000Y-51943000D02*
X147288000Y-51721000D01*
X154718000Y-77851000D02*
X144399000Y-77851000D01*
X143614140Y-78635860D02*
X142402560Y-78635860D01*
X144399000Y-77851000D02*
X143614140Y-78635860D01*
X142402560Y-78635860D02*
X141500860Y-78635860D01*
X141500860Y-78635860D02*
X141478000Y-78613000D01*
X144272000Y-72009000D02*
X143764000Y-71501000D01*
X143764000Y-71501000D02*
X141478000Y-71501000D01*
X142402560Y-71488300D02*
X146831300Y-71488300D01*
X146831300Y-71488300D02*
X148336000Y-72993000D01*
X141490700Y-71488300D02*
X142402560Y-71488300D01*
X141478000Y-71501000D02*
X141490700Y-71488300D01*
X155341000Y-80518000D02*
X155341000Y-81681000D01*
X155341000Y-81681000D02*
X155829000Y-82169000D01*
X153840000Y-87503000D02*
X153035000Y-87503000D01*
X153035000Y-87503000D02*
X152654000Y-87884000D01*
X159639000Y-87757000D02*
X159766000Y-87884000D01*
X159766000Y-87884000D02*
X162084000Y-87884000D01*
X154718000Y-77851000D02*
X154718000Y-79895000D01*
X154718000Y-79895000D02*
X155341000Y-80518000D01*
X160909000Y-50058000D02*
X158254000Y-50058000D01*
X158254000Y-50058000D02*
X157065000Y-51247000D01*
X157065000Y-51247000D02*
X153001000Y-51247000D01*
X153001000Y-51247000D02*
X152527000Y-51721000D01*
X152527000Y-51721000D02*
X149479000Y-51721000D01*
X162084000Y-87884000D02*
X162084000Y-90055000D01*
X162084000Y-90055000D02*
X162580000Y-90551000D01*
X144018000Y-70104000D02*
X145161000Y-68961000D01*
X145161000Y-68961000D02*
X145161000Y-68869560D01*
X148336000Y-68993000D02*
X145284440Y-68993000D01*
X145284440Y-68993000D02*
X145161000Y-68869560D01*
X163040000Y-62118000D02*
X162540000Y-62118000D01*
X162540000Y-62118000D02*
X162540000Y-62972000D01*
X162540000Y-62972000D02*
X163322000Y-63754000D01*
X163322000Y-63754000D02*
X164338000Y-63754000D01*
X183184800Y-80568800D02*
X177393600Y-80568800D01*
X183235600Y-80518000D02*
X183184800Y-80568800D01*
X172396400Y-82092800D02*
X174447200Y-82092800D01*
X174447200Y-82092800D02*
X174498000Y-82042000D01*
X170027600Y-81396800D02*
X171700400Y-81396800D01*
X171700400Y-81396800D02*
X172396400Y-82092800D01*
X173197200Y-79552800D02*
X173197200Y-81292000D01*
X173197200Y-81292000D02*
X172396400Y-82092800D01*
X168750000Y-90754200D02*
X165283200Y-90754200D01*
X165283200Y-90754200D02*
X165080000Y-90551000D01*
X153559200Y-71568000D02*
X155590000Y-71568000D01*
X153517600Y-71526400D02*
X153559200Y-71568000D01*
X145161000Y-73370440D02*
X145862040Y-73370440D01*
X145862040Y-73370440D02*
X147320000Y-74828400D01*
X147320000Y-74828400D02*
X149453600Y-74828400D01*
X149453600Y-74828400D02*
X150012400Y-74269600D01*
X150012400Y-74269600D02*
X150012400Y-72339200D01*
X164040000Y-62118000D02*
X164040000Y-63456000D01*
X164040000Y-63456000D02*
X164338000Y-63754000D01*
X164338000Y-63754000D02*
X165481000Y-63754000D01*
X165481000Y-63754000D02*
X165989000Y-63246000D01*
X165989000Y-63246000D02*
X165989000Y-60706000D01*
X161040000Y-73518000D02*
X161040000Y-74680000D01*
X162540000Y-74823000D02*
X162540000Y-73518000D01*
X162433000Y-74930000D02*
X162540000Y-74823000D01*
X161290000Y-74930000D02*
X162433000Y-74930000D01*
X161040000Y-74680000D02*
X161290000Y-74930000D01*
X160040000Y-73518000D02*
X160040000Y-72624000D01*
X161040000Y-72267000D02*
X161040000Y-73518000D01*
X160782000Y-72009000D02*
X161040000Y-72267000D01*
X160655000Y-72009000D02*
X160782000Y-72009000D01*
X160040000Y-72624000D02*
X160655000Y-72009000D01*
X158877000Y-75057000D02*
X159766000Y-75057000D01*
X160040000Y-74783000D02*
X160040000Y-73518000D01*
X159766000Y-75057000D02*
X160040000Y-74783000D01*
X158040000Y-73518000D02*
X158040000Y-74728000D01*
X159040000Y-74894000D02*
X159040000Y-73518000D01*
X158877000Y-75057000D02*
X159040000Y-74894000D01*
X158369000Y-75057000D02*
X158877000Y-75057000D01*
X158040000Y-74728000D02*
X158369000Y-75057000D01*
X155590000Y-71568000D02*
X157166000Y-71568000D01*
X157166000Y-71568000D02*
X158040000Y-72442000D01*
X158040000Y-72442000D02*
X158040000Y-73518000D01*
X164168000Y-56454000D02*
X165166000Y-56454000D01*
X165166000Y-56454000D02*
X165608000Y-56896000D01*
X164168000Y-46398000D02*
X164168000Y-56454000D01*
X166116000Y-44450000D02*
X164168000Y-46398000D01*
X170053000Y-44450000D02*
X166116000Y-44450000D01*
X171196000Y-43307000D02*
X170053000Y-44450000D01*
X144018000Y-74676000D02*
X145161000Y-73533000D01*
X145161000Y-73533000D02*
X145161000Y-73370440D01*
X145161000Y-73370440D02*
X144066260Y-73370440D01*
X144066260Y-73370440D02*
X142402560Y-75034140D01*
X148177000Y-63214000D02*
X148177000Y-58801000D01*
X148336000Y-63373000D02*
X148177000Y-63214000D01*
X154940000Y-85344000D02*
X156040000Y-86444000D01*
X156040000Y-86444000D02*
X156040000Y-86553000D01*
X156040000Y-86553000D02*
X164753000Y-86553000D01*
X164753000Y-86553000D02*
X166084000Y-87884000D01*
X166243000Y-86614000D02*
X166084000Y-86773000D01*
X166084000Y-86773000D02*
X166084000Y-87884000D01*
X156040000Y-86553000D02*
X156040000Y-86571000D01*
X156040000Y-86571000D02*
X158083000Y-88614000D01*
X158083000Y-88614000D02*
X158083000Y-90424000D01*
X166084000Y-87884000D02*
X166084000Y-89547000D01*
X166084000Y-89547000D02*
X165080000Y-90551000D01*
X181574440Y-90642440D02*
X177136040Y-90642440D01*
X177136040Y-90642440D02*
X176885600Y-90392000D01*
X174150000Y-88214200D02*
X171678600Y-88214200D01*
X171780200Y-90754200D02*
X174150000Y-90754200D01*
X171145200Y-90119200D02*
X171780200Y-90754200D01*
X171145200Y-88747600D02*
X171145200Y-90119200D01*
X171678600Y-88214200D02*
X171145200Y-88747600D01*
X183243000Y-89212200D02*
X183243000Y-88223600D01*
X184353200Y-90322400D02*
X183243000Y-89212200D01*
X176885600Y-90392000D02*
X174512200Y-90392000D01*
X174512200Y-90392000D02*
X174150000Y-90754200D01*
X183243000Y-88223600D02*
X179054000Y-88223600D01*
X179054000Y-88223600D02*
X176885600Y-90392000D01*
X153840000Y-86553000D02*
X152080000Y-86553000D01*
X150749000Y-87884000D02*
X150749000Y-90297000D01*
X152080000Y-86553000D02*
X150749000Y-87884000D01*
X153685020Y-86707980D02*
X153840000Y-86553000D01*
X156040000Y-88453000D02*
X156017000Y-88453000D01*
X156017000Y-88453000D02*
X154940000Y-87376000D01*
X154940000Y-87376000D02*
X154940000Y-87122000D01*
X154940000Y-87122000D02*
X154371000Y-86553000D01*
X154371000Y-86553000D02*
X153840000Y-86553000D01*
X140970000Y-56007000D02*
X140749020Y-56227980D01*
X140749020Y-56227980D02*
X140749020Y-57404000D01*
X138650980Y-58132980D02*
X138650980Y-57404000D01*
X139192000Y-58674000D02*
X138650980Y-58132980D01*
X142402560Y-67889120D02*
X141914880Y-67889120D01*
X141914880Y-67889120D02*
X141478000Y-68326000D01*
X141859000Y-69088000D02*
X142402560Y-69088000D01*
X141605000Y-69342000D02*
X141859000Y-69088000D01*
X142402560Y-70286880D02*
X138993880Y-70286880D01*
X138993880Y-70286880D02*
X138684000Y-69977000D01*
X141478000Y-67437000D02*
X142227300Y-66687700D01*
X142227300Y-66687700D02*
X142402560Y-66687700D01*
X144477740Y-86497160D02*
X141361160Y-86497160D01*
X141361160Y-86497160D02*
X141351000Y-86487000D01*
X183515000Y-49149000D02*
X180964840Y-51699160D01*
X180964840Y-51699160D02*
X179245260Y-51699160D01*
X179245260Y-52948840D02*
X182128160Y-52948840D01*
X182128160Y-52948840D02*
X183515000Y-51562000D01*
X180594000Y-53975000D02*
X180370480Y-54198520D01*
X180370480Y-54198520D02*
X179245260Y-54198520D01*
X179245260Y-50449480D02*
X180436520Y-50449480D01*
X180436520Y-50449480D02*
X183515000Y-47371000D01*
X179245260Y-55448200D02*
X181305200Y-55448200D01*
X181305200Y-55448200D02*
X181610000Y-55753000D01*
X174847000Y-47244000D02*
X175768000Y-47244000D01*
X175768000Y-47244000D02*
X177723800Y-49199800D01*
X177723800Y-49199800D02*
X179245260Y-49199800D01*
X179705000Y-57912000D02*
X179245260Y-57452260D01*
X179245260Y-57452260D02*
X179245260Y-56697880D01*
X179245260Y-47950120D02*
X179245260Y-44911260D01*
X179245260Y-44911260D02*
X178784000Y-44450000D01*
X180520340Y-71193660D02*
X179054760Y-71193660D01*
X183261000Y-68453000D02*
X180520340Y-71193660D01*
X179054760Y-72443340D02*
X181937660Y-72443340D01*
X181937660Y-72443340D02*
X182753000Y-71628000D01*
X182659020Y-73693020D02*
X179054760Y-73693020D01*
X182753000Y-73787000D02*
X182659020Y-73693020D01*
X179054760Y-69943980D02*
X179865020Y-69943980D01*
X179865020Y-69943980D02*
X180975000Y-68834000D01*
X180975000Y-68834000D02*
X180975000Y-66167000D01*
X179054760Y-74942700D02*
X180733700Y-74942700D01*
X180733700Y-74942700D02*
X180975000Y-75184000D01*
X179054760Y-68694300D02*
X177152300Y-68694300D01*
X176561500Y-68103500D02*
X176561500Y-66230500D01*
X177152300Y-68694300D02*
X176561500Y-68103500D01*
X179197000Y-77724000D02*
X179054760Y-77581760D01*
X179054760Y-77581760D02*
X179054760Y-76192380D01*
X179054760Y-67444620D02*
X179054760Y-63643760D01*
X179054760Y-63643760D02*
X178974500Y-63563500D01*
X170847000Y-47244000D02*
X170847000Y-62198000D01*
X168477000Y-64568000D02*
X166990000Y-64568000D01*
X170847000Y-62198000D02*
X168477000Y-64568000D01*
X166990000Y-64068000D02*
X167326000Y-64068000D01*
X167326000Y-64068000D02*
X169799000Y-61595000D01*
X169799000Y-61595000D02*
X169799000Y-50292000D01*
X172974000Y-46990000D02*
X172847000Y-46863000D01*
X172847000Y-46863000D02*
X172847000Y-45085000D01*
X172847000Y-45085000D02*
X173482000Y-44450000D01*
X173482000Y-44450000D02*
X174784000Y-44450000D01*
X166990000Y-65568000D02*
X169636000Y-65568000D01*
X169636000Y-65568000D02*
X171069000Y-64135000D01*
X166990000Y-65068000D02*
X168993000Y-65068000D01*
X168993000Y-65068000D02*
X170434000Y-63627000D01*
X166990000Y-66568000D02*
X170795000Y-66568000D01*
X170795000Y-66568000D02*
X170815000Y-66548000D01*
X166990000Y-66068000D02*
X170152000Y-66068000D01*
X170152000Y-66068000D02*
X170561000Y-65659000D01*
X166990000Y-67568000D02*
X168406000Y-67568000D01*
X168406000Y-67568000D02*
X168656000Y-67818000D01*
X166990000Y-67068000D02*
X170192000Y-67068000D01*
X170192000Y-67068000D02*
X170688000Y-67564000D01*
X166990000Y-68568000D02*
X171716000Y-68568000D01*
X172561500Y-67722500D02*
X172561500Y-66230500D01*
X171716000Y-68568000D02*
X172561500Y-67722500D01*
X166990000Y-68068000D02*
X165459600Y-68068000D01*
X174974500Y-65817500D02*
X174974500Y-63563500D01*
X174599600Y-66192400D02*
X174974500Y-65817500D01*
X165459600Y-68068000D02*
X164490400Y-69037200D01*
X166990000Y-69568000D02*
X170761600Y-69568000D01*
X173380400Y-70815200D02*
X175463200Y-68732400D01*
X172008800Y-70815200D02*
X173380400Y-70815200D01*
X170761600Y-69568000D02*
X172008800Y-70815200D01*
X166990000Y-69068000D02*
X173502000Y-69068000D01*
X173502000Y-69068000D02*
X174904400Y-67665600D01*
X166990000Y-70568000D02*
X169780400Y-70568000D01*
X171196000Y-71983600D02*
X171196000Y-73406000D01*
X169780400Y-70568000D02*
X171196000Y-71983600D01*
X166990000Y-70068000D02*
X170194800Y-70068000D01*
X171500800Y-71374000D02*
X174752000Y-71374000D01*
X170194800Y-70068000D02*
X171500800Y-71374000D01*
X166990000Y-71568000D02*
X166990000Y-72938400D01*
X166420800Y-76352400D02*
X169214800Y-79146400D01*
X166420800Y-73507600D02*
X166420800Y-76352400D01*
X166990000Y-72938400D02*
X166420800Y-73507600D01*
X169416800Y-71068000D02*
X166990000Y-71068000D01*
X169926000Y-71577200D02*
X169416800Y-71068000D01*
X169926000Y-74371200D02*
X169926000Y-71577200D01*
X171754800Y-76200000D02*
X169926000Y-74371200D01*
X141226320Y-44038570D02*
X139451030Y-44038570D01*
X144177000Y-56445400D02*
X144177000Y-58801000D01*
X142951200Y-55219600D02*
X144177000Y-56445400D01*
X139750800Y-55219600D02*
X142951200Y-55219600D01*
X138480800Y-53949600D02*
X139750800Y-55219600D01*
X138480800Y-45008800D02*
X138480800Y-53949600D01*
X139451030Y-44038570D02*
X138480800Y-45008800D01*
X144177000Y-58801000D02*
X144177000Y-60992000D01*
X144177000Y-60992000D02*
X145034000Y-61849000D01*
X174150000Y-86944200D02*
X172847000Y-86944200D01*
X172847000Y-86944200D02*
X172567600Y-87223600D01*
X176885600Y-86392000D02*
X174702200Y-86392000D01*
X174702200Y-86392000D02*
X174150000Y-86944200D01*
X168750000Y-86944200D02*
X168275000Y-86944200D01*
X168275000Y-86944200D02*
X166420800Y-85090000D01*
X166420800Y-85090000D02*
X164287200Y-85090000D01*
X158089600Y-82600800D02*
X157073600Y-83616800D01*
X157073600Y-83616800D02*
X153517600Y-83616800D01*
X140749020Y-60071000D02*
X140749020Y-60866020D01*
X140749020Y-60866020D02*
X141351000Y-61468000D01*
X138650980Y-60071000D02*
X138684000Y-60071000D01*
X138684000Y-60071000D02*
X141097000Y-62484000D01*
X142402560Y-76235560D02*
X139862560Y-76235560D01*
X139862560Y-76235560D02*
X138811000Y-75184000D01*
X140878560Y-77434440D02*
X142402560Y-77434440D01*
X140843000Y-77470000D02*
X140878560Y-77434440D01*
X156083000Y-90424000D02*
X154083000Y-90424000D01*
X153840000Y-88453000D02*
X153840000Y-90181000D01*
X153840000Y-90181000D02*
X154083000Y-90424000D01*
X151511000Y-62738000D02*
X151511000Y-65151000D01*
X160909000Y-52558000D02*
X160909000Y-53594000D01*
X161540000Y-60702000D02*
X161540000Y-62118000D01*
X160020000Y-59182000D02*
X161540000Y-60702000D01*
X160020000Y-54483000D02*
X160020000Y-59182000D01*
X160909000Y-53594000D02*
X160020000Y-54483000D01*
X158115000Y-54197000D02*
X159270000Y-54197000D01*
X159270000Y-54197000D02*
X160909000Y-52558000D01*
X155194000Y-53147000D02*
X155194000Y-58801000D01*
X160540000Y-60718000D02*
X160540000Y-62118000D01*
X159385000Y-59563000D02*
X160540000Y-60718000D01*
X155956000Y-59563000D02*
X159385000Y-59563000D01*
X155194000Y-58801000D02*
X155956000Y-59563000D01*
X152654000Y-55594000D02*
X152654000Y-58166000D01*
X159540000Y-60861000D02*
X159540000Y-62118000D01*
X158750000Y-60071000D02*
X159540000Y-60861000D01*
X154559000Y-60071000D02*
X158750000Y-60071000D01*
X152654000Y-58166000D02*
X154559000Y-60071000D01*
X149479000Y-55721000D02*
X149479000Y-56134000D01*
X149479000Y-56134000D02*
X153924000Y-60579000D01*
X153924000Y-60579000D02*
X158242000Y-60579000D01*
X158242000Y-60579000D02*
X158540000Y-60877000D01*
X158540000Y-60877000D02*
X158540000Y-62118000D01*
X153719600Y-64568000D02*
X155590000Y-64568000D01*
X152349200Y-65938400D02*
X153719600Y-64568000D01*
X150672800Y-65938400D02*
X152349200Y-65938400D01*
X149606000Y-67005200D02*
X150672800Y-65938400D01*
X155590000Y-65068000D02*
X154489600Y-65068000D01*
X151739600Y-75692000D02*
X150215600Y-77216000D01*
X151739600Y-71475600D02*
X151739600Y-75692000D01*
X153365200Y-69850000D02*
X151739600Y-71475600D01*
X153365200Y-66192400D02*
X153365200Y-69850000D01*
X154489600Y-65068000D02*
X153365200Y-66192400D01*
X158968000Y-65568000D02*
X155590000Y-65568000D01*
X159258000Y-65278000D02*
X158968000Y-65568000D01*
X150114000Y-79451200D02*
X152704800Y-79451200D01*
X149910800Y-79654400D02*
X150114000Y-79451200D01*
X155590000Y-66068000D02*
X160048000Y-66068000D01*
X153212800Y-81026000D02*
X147320000Y-81026000D01*
X153314400Y-81127600D02*
X153212800Y-81026000D01*
X160048000Y-66068000D02*
X160121600Y-66141600D01*
X155590000Y-66568000D02*
X157906400Y-66568000D01*
X157906400Y-66568000D02*
X158292800Y-66954400D01*
X157085600Y-67068000D02*
X155590000Y-67068000D01*
X157226000Y-67208400D02*
X157085600Y-67068000D01*
X155590000Y-67568000D02*
X156620400Y-67568000D01*
X156620400Y-67568000D02*
X157530800Y-68478400D01*
X157256800Y-69068000D02*
X155590000Y-69068000D01*
X157632400Y-69443600D02*
X157256800Y-69068000D01*
X155590000Y-71068000D02*
X160021200Y-71068000D01*
X152958800Y-80365600D02*
X149098000Y-80365600D01*
X153060400Y-80264000D02*
X152958800Y-80365600D01*
X160021200Y-71068000D02*
X160070800Y-71018400D01*
X160540000Y-73518000D02*
X160540000Y-76029000D01*
X160540000Y-76029000D02*
X158718000Y-77851000D01*
X158718000Y-77851000D02*
X158718000Y-79641000D01*
X158718000Y-79641000D02*
X157841000Y-80518000D01*
X145669000Y-90297000D02*
X145669000Y-89916000D01*
X145669000Y-89916000D02*
X151257000Y-84328000D01*
X151257000Y-84328000D02*
X162560000Y-84328000D01*
X162560000Y-84328000D02*
X163576000Y-83312000D01*
X163576000Y-83312000D02*
X164799000Y-83312000D01*
X164799000Y-83312000D02*
X166323000Y-81788000D01*
X164040000Y-73518000D02*
X164540000Y-73518000D01*
X164540000Y-73518000D02*
X164540000Y-75767000D01*
X166096000Y-77323000D02*
X166096000Y-78486000D01*
X164540000Y-75767000D02*
X166096000Y-77323000D01*
X166096000Y-78486000D02*
X166096000Y-81561000D01*
X166096000Y-81561000D02*
X166323000Y-81788000D01*
X163540000Y-73518000D02*
X163540000Y-78430000D01*
X163540000Y-78430000D02*
X163596000Y-78486000D01*
X163596000Y-78486000D02*
X163596000Y-81761000D01*
X163596000Y-81761000D02*
X163623000Y-81788000D01*
X165040000Y-62118000D02*
X165040000Y-60224000D01*
X165040000Y-60224000D02*
X164168000Y-59352000D01*
X161968000Y-56454000D02*
X160843000Y-56454000D01*
X164168000Y-59352000D02*
X164168000Y-58354000D01*
X163576000Y-59944000D02*
X164168000Y-59352000D01*
X161418398Y-59944000D02*
X163576000Y-59944000D01*
X160655000Y-59180602D02*
X161418398Y-59944000D01*
X160655000Y-56642000D02*
X160655000Y-59180602D01*
X160843000Y-56454000D02*
X160655000Y-56642000D01*
X161968000Y-58354000D02*
X161968000Y-58971000D01*
X164540000Y-61035000D02*
X164540000Y-62118000D01*
X164084000Y-60579000D02*
X164540000Y-61035000D01*
X161968000Y-58971000D02*
X162179000Y-59182000D01*
D35*
G36*
X182002000Y-65841411D02*
X182253890Y-65892420D01*
X185604150Y-65892420D01*
X185839467Y-65848142D01*
X186005000Y-65741624D01*
X186005000Y-77897369D01*
X185856040Y-77795589D01*
X185604150Y-77744580D01*
X182253890Y-77744580D01*
X182018573Y-77788858D01*
X181802449Y-77927930D01*
X181657459Y-78140130D01*
X181606450Y-78392020D01*
X181606450Y-79692500D01*
X181628333Y-79808800D01*
X177956063Y-79808800D01*
X177923927Y-79776608D01*
X177580399Y-79633962D01*
X177208433Y-79633638D01*
X176974109Y-79730459D01*
X176923450Y-79679800D01*
X175824200Y-79679800D01*
X175824200Y-79699800D01*
X175570200Y-79699800D01*
X175570200Y-79679800D01*
X175550200Y-79679800D01*
X175550200Y-79425800D01*
X175570200Y-79425800D01*
X175570200Y-78451550D01*
X175824200Y-78451550D01*
X175824200Y-79425800D01*
X176923450Y-79425800D01*
X177082200Y-79267050D01*
X177082200Y-78801490D01*
X176985527Y-78568101D01*
X176806898Y-78389473D01*
X176573509Y-78292800D01*
X175982950Y-78292800D01*
X175824200Y-78451550D01*
X175570200Y-78451550D01*
X175411450Y-78292800D01*
X174820891Y-78292800D01*
X174587502Y-78389473D01*
X174446264Y-78530710D01*
X174411290Y-78476359D01*
X174199090Y-78331369D01*
X173947200Y-78280360D01*
X172447200Y-78280360D01*
X172211883Y-78324638D01*
X171995759Y-78463710D01*
X171850769Y-78675910D01*
X171799760Y-78927800D01*
X171799760Y-80177800D01*
X171844038Y-80413117D01*
X171983110Y-80629241D01*
X172006701Y-80645360D01*
X171743434Y-80645360D01*
X171700400Y-80636800D01*
X171019934Y-80636800D01*
X171005762Y-80561483D01*
X170866690Y-80345359D01*
X170654490Y-80200369D01*
X170402600Y-80149360D01*
X169652600Y-80149360D01*
X169417283Y-80193638D01*
X169201159Y-80332710D01*
X169056169Y-80544910D01*
X169005160Y-80796800D01*
X169005160Y-81996800D01*
X169049438Y-82232117D01*
X169115929Y-82335446D01*
X169114273Y-82337102D01*
X169017600Y-82570491D01*
X169017600Y-83011050D01*
X169176350Y-83169800D01*
X169900600Y-83169800D01*
X169900600Y-83149800D01*
X170154600Y-83149800D01*
X170154600Y-83169800D01*
X170174600Y-83169800D01*
X170174600Y-83423800D01*
X170154600Y-83423800D01*
X170154600Y-84373050D01*
X170313350Y-84531800D01*
X170528910Y-84531800D01*
X170762299Y-84435127D01*
X170940927Y-84256498D01*
X171037600Y-84023109D01*
X171037600Y-83582550D01*
X170878852Y-83423802D01*
X171037600Y-83423802D01*
X171037600Y-83416183D01*
X171144510Y-83489231D01*
X171396400Y-83540240D01*
X173396400Y-83540240D01*
X173631717Y-83495962D01*
X173847841Y-83356890D01*
X173992831Y-83144690D01*
X174043840Y-82892800D01*
X174043840Y-82865819D01*
X174311201Y-82976838D01*
X174683167Y-82977162D01*
X174761400Y-82944837D01*
X174761400Y-83019110D01*
X174858073Y-83252499D01*
X175036702Y-83431127D01*
X175270091Y-83527800D01*
X176110650Y-83527800D01*
X176269400Y-83369050D01*
X176269400Y-82219800D01*
X176523400Y-82219800D01*
X176523400Y-83369050D01*
X176682150Y-83527800D01*
X177522709Y-83527800D01*
X177708120Y-83451000D01*
X180068000Y-83451000D01*
X180125852Y-83741839D01*
X180290599Y-83988401D01*
X180659599Y-84357401D01*
X180906161Y-84522148D01*
X181197000Y-84580000D01*
X181487840Y-84522148D01*
X181734401Y-84357401D01*
X181899148Y-84110840D01*
X181957000Y-83820000D01*
X181899148Y-83529161D01*
X181734401Y-83282599D01*
X181365401Y-82913599D01*
X181118839Y-82748852D01*
X180828000Y-82691000D01*
X180537161Y-82748852D01*
X180290599Y-82913599D01*
X180125852Y-83160161D01*
X180068000Y-83451000D01*
X177708120Y-83451000D01*
X177756098Y-83431127D01*
X177934727Y-83252499D01*
X178031400Y-83019110D01*
X178031400Y-82378550D01*
X177872650Y-82219800D01*
X176523400Y-82219800D01*
X176269400Y-82219800D01*
X176249400Y-82219800D01*
X176249400Y-81965800D01*
X176269400Y-81965800D01*
X176269400Y-81945800D01*
X176523400Y-81945800D01*
X176523400Y-81965800D01*
X177872650Y-81965800D01*
X178031400Y-81807050D01*
X178031400Y-81328800D01*
X182750086Y-81328800D01*
X183048801Y-81452838D01*
X183420767Y-81453162D01*
X183764543Y-81311117D01*
X184027792Y-81048327D01*
X184170438Y-80704799D01*
X184170756Y-80339940D01*
X185604150Y-80339940D01*
X185839467Y-80295662D01*
X186005000Y-80189144D01*
X186005000Y-87922885D01*
X186000820Y-87920029D01*
X185748930Y-87869020D01*
X184948830Y-87869020D01*
X184713513Y-87913298D01*
X184497389Y-88052370D01*
X184352399Y-88264570D01*
X184301390Y-88516460D01*
X184301390Y-89195788D01*
X184003000Y-88897398D01*
X184003000Y-88223600D01*
X183945148Y-87932761D01*
X183780401Y-87686199D01*
X183533839Y-87521452D01*
X183243000Y-87463600D01*
X179054000Y-87463600D01*
X178763161Y-87521452D01*
X178516599Y-87686199D01*
X177458238Y-88744560D01*
X176035600Y-88744560D01*
X175800283Y-88788838D01*
X175584159Y-88927910D01*
X175535599Y-88998980D01*
X175470194Y-88841078D01*
X175521431Y-88766090D01*
X175572440Y-88514200D01*
X175572440Y-87914200D01*
X175554008Y-87816242D01*
X175571510Y-87843441D01*
X175783710Y-87988431D01*
X176035600Y-88039440D01*
X177735600Y-88039440D01*
X177970917Y-87995162D01*
X178187041Y-87856090D01*
X178332031Y-87643890D01*
X178383040Y-87392000D01*
X178383040Y-85392000D01*
X178338762Y-85156683D01*
X178199690Y-84940559D01*
X177987490Y-84795569D01*
X177735600Y-84744560D01*
X176035600Y-84744560D01*
X175800283Y-84788838D01*
X175584159Y-84927910D01*
X175439169Y-85140110D01*
X175388160Y-85392000D01*
X175388160Y-85632000D01*
X174702200Y-85632000D01*
X174411361Y-85689852D01*
X174164799Y-85854599D01*
X174022638Y-85996760D01*
X173375000Y-85996760D01*
X173139683Y-86041038D01*
X172923559Y-86180110D01*
X172920764Y-86184200D01*
X172847000Y-86184200D01*
X172556160Y-86242052D01*
X172486603Y-86288529D01*
X172382433Y-86288438D01*
X172038657Y-86430483D01*
X171775408Y-86693273D01*
X171632762Y-87036801D01*
X171632438Y-87408767D01*
X171653291Y-87459234D01*
X171387761Y-87512052D01*
X171141199Y-87676799D01*
X170607799Y-88210199D01*
X170443052Y-88456761D01*
X170385200Y-88747600D01*
X170385200Y-90119200D01*
X170443052Y-90410039D01*
X170607799Y-90656601D01*
X171242799Y-91291601D01*
X171390064Y-91390000D01*
X170064098Y-91390000D01*
X170121431Y-91306090D01*
X170172440Y-91054200D01*
X170172440Y-90454200D01*
X170128162Y-90218883D01*
X170069822Y-90128220D01*
X170160000Y-89910510D01*
X170160000Y-89769950D01*
X170001250Y-89611200D01*
X168877000Y-89611200D01*
X168877000Y-89631200D01*
X168623000Y-89631200D01*
X168623000Y-89611200D01*
X167498750Y-89611200D01*
X167340000Y-89769950D01*
X167340000Y-89910510D01*
X167374666Y-89994200D01*
X166681671Y-89994200D01*
X166786148Y-89837840D01*
X166803700Y-89749601D01*
X166844000Y-89547000D01*
X166844000Y-89331440D01*
X167084000Y-89331440D01*
X167319317Y-89287162D01*
X167385880Y-89244330D01*
X167498750Y-89357200D01*
X168623000Y-89357200D01*
X168623000Y-88341200D01*
X168877000Y-88341200D01*
X168877000Y-89357200D01*
X170001250Y-89357200D01*
X170160000Y-89198450D01*
X170160000Y-89057890D01*
X170073558Y-88849200D01*
X170160000Y-88640510D01*
X170160000Y-88499950D01*
X170001250Y-88341200D01*
X168877000Y-88341200D01*
X168623000Y-88341200D01*
X168603000Y-88341200D01*
X168603000Y-88087200D01*
X168623000Y-88087200D01*
X168623000Y-88067200D01*
X168877000Y-88067200D01*
X168877000Y-88087200D01*
X170001250Y-88087200D01*
X170160000Y-87928450D01*
X170160000Y-87787890D01*
X170070194Y-87571078D01*
X170121431Y-87496090D01*
X170172440Y-87244200D01*
X170172440Y-86644200D01*
X170128162Y-86408883D01*
X169989090Y-86192759D01*
X169776890Y-86047769D01*
X169525000Y-85996760D01*
X168402362Y-85996760D01*
X166958201Y-84552599D01*
X166711639Y-84387852D01*
X166420800Y-84330000D01*
X164849663Y-84330000D01*
X164817527Y-84297808D01*
X164473999Y-84155162D01*
X164102033Y-84154838D01*
X163758257Y-84296883D01*
X163495008Y-84559673D01*
X163352362Y-84903201D01*
X163352038Y-85275167D01*
X163494083Y-85618943D01*
X163667837Y-85793000D01*
X157044669Y-85793000D01*
X157034090Y-85776559D01*
X156821890Y-85631569D01*
X156570000Y-85580560D01*
X156251362Y-85580560D01*
X155875122Y-85204320D01*
X155875162Y-85158833D01*
X155845894Y-85088000D01*
X162560000Y-85088000D01*
X162850839Y-85030148D01*
X163097401Y-84865401D01*
X163890802Y-84072000D01*
X164799000Y-84072000D01*
X165089839Y-84014148D01*
X165336401Y-83849401D01*
X165603252Y-83582550D01*
X169017600Y-83582550D01*
X169017600Y-84023109D01*
X169114273Y-84256498D01*
X169292901Y-84435127D01*
X169526290Y-84531800D01*
X169741850Y-84531800D01*
X169900600Y-84373050D01*
X169900600Y-83423800D01*
X169176350Y-83423800D01*
X169017600Y-83582550D01*
X165603252Y-83582550D01*
X166100362Y-83085440D01*
X167073000Y-83085440D01*
X167308317Y-83041162D01*
X167524441Y-82902090D01*
X167669431Y-82689890D01*
X167720440Y-82438000D01*
X167720440Y-81138000D01*
X167676162Y-80902683D01*
X167537090Y-80686559D01*
X167324890Y-80541569D01*
X167073000Y-80490560D01*
X166856000Y-80490560D01*
X166856000Y-79756558D01*
X167081317Y-79714162D01*
X167297441Y-79575090D01*
X167442431Y-79362890D01*
X167493440Y-79111000D01*
X167493440Y-78499842D01*
X168279678Y-79286080D01*
X168279638Y-79331567D01*
X168421683Y-79675343D01*
X168684473Y-79938592D01*
X169028001Y-80081238D01*
X169399967Y-80081562D01*
X169743743Y-79939517D01*
X170006992Y-79676727D01*
X170149638Y-79333199D01*
X170149962Y-78961233D01*
X170007917Y-78617457D01*
X169745127Y-78354208D01*
X169401599Y-78211562D01*
X169354723Y-78211521D01*
X167180800Y-76037598D01*
X167180800Y-73822402D01*
X167527401Y-73475801D01*
X167692148Y-73229240D01*
X167750000Y-72938400D01*
X167750000Y-72363558D01*
X167975317Y-72321162D01*
X168191441Y-72182090D01*
X168336431Y-71969890D01*
X168365164Y-71828000D01*
X169101998Y-71828000D01*
X169166000Y-71892002D01*
X169166000Y-74371200D01*
X169223852Y-74662039D01*
X169388599Y-74908601D01*
X170819678Y-76339680D01*
X170819638Y-76385167D01*
X170961683Y-76728943D01*
X171224473Y-76992192D01*
X171568001Y-77134838D01*
X171939967Y-77135162D01*
X172283743Y-76993117D01*
X172546992Y-76730327D01*
X172689638Y-76386799D01*
X172689962Y-76014833D01*
X172547917Y-75671057D01*
X172285127Y-75407808D01*
X171941599Y-75265162D01*
X171894723Y-75265121D01*
X170942916Y-74313314D01*
X171009201Y-74340838D01*
X171381167Y-74341162D01*
X171724943Y-74199117D01*
X171988192Y-73936327D01*
X172130838Y-73592799D01*
X172131162Y-73220833D01*
X171989117Y-72877057D01*
X171956000Y-72843882D01*
X171956000Y-72134000D01*
X174189537Y-72134000D01*
X174221673Y-72166192D01*
X174565201Y-72308838D01*
X174937167Y-72309162D01*
X175280943Y-72167117D01*
X175544192Y-71904327D01*
X175686838Y-71560799D01*
X175687162Y-71188833D01*
X175545117Y-70845057D01*
X175282327Y-70581808D01*
X174938799Y-70439162D01*
X174831334Y-70439068D01*
X175602880Y-69667522D01*
X175648367Y-69667562D01*
X175992143Y-69525517D01*
X176255392Y-69262727D01*
X176369976Y-68986778D01*
X176614899Y-69231701D01*
X176861460Y-69396448D01*
X177152300Y-69454300D01*
X177475511Y-69454300D01*
X177457360Y-69543930D01*
X177457360Y-70344030D01*
X177501210Y-70577072D01*
X177457360Y-70793610D01*
X177457360Y-71593710D01*
X177501210Y-71826752D01*
X177457360Y-72043290D01*
X177457360Y-72843390D01*
X177501210Y-73076432D01*
X177457360Y-73292970D01*
X177457360Y-74093070D01*
X177501210Y-74326112D01*
X177457360Y-74542650D01*
X177457360Y-75342750D01*
X177501210Y-75575792D01*
X177457360Y-75792330D01*
X177457360Y-76592430D01*
X177501638Y-76827747D01*
X177640710Y-77043871D01*
X177852910Y-77188861D01*
X178104800Y-77239870D01*
X178294760Y-77239870D01*
X178294760Y-77458697D01*
X178262162Y-77537201D01*
X178261838Y-77909167D01*
X178403883Y-78252943D01*
X178666673Y-78516192D01*
X179010201Y-78658838D01*
X179382167Y-78659162D01*
X179725943Y-78517117D01*
X179989192Y-78254327D01*
X180131838Y-77910799D01*
X180132162Y-77538833D01*
X180008351Y-77239187D01*
X180240037Y-77195592D01*
X180456161Y-77056520D01*
X180601151Y-76844320D01*
X180652160Y-76592430D01*
X180652160Y-76062349D01*
X180788201Y-76118838D01*
X181160167Y-76119162D01*
X181503943Y-75977117D01*
X181767192Y-75714327D01*
X181909838Y-75370799D01*
X181910162Y-74998833D01*
X181768117Y-74655057D01*
X181566432Y-74453020D01*
X182096721Y-74453020D01*
X182222673Y-74579192D01*
X182566201Y-74721838D01*
X182938167Y-74722162D01*
X183281943Y-74580117D01*
X183545192Y-74317327D01*
X183687838Y-73973799D01*
X183688162Y-73601833D01*
X183546117Y-73258057D01*
X183283327Y-72994808D01*
X182939799Y-72852162D01*
X182603933Y-72851869D01*
X182892680Y-72563122D01*
X182938167Y-72563162D01*
X183281943Y-72421117D01*
X183545192Y-72158327D01*
X183687838Y-71814799D01*
X183688162Y-71442833D01*
X183546117Y-71099057D01*
X183283327Y-70835808D01*
X182939799Y-70693162D01*
X182567833Y-70692838D01*
X182224057Y-70834883D01*
X181960808Y-71097673D01*
X181818162Y-71441201D01*
X181818121Y-71488077D01*
X181622858Y-71683340D01*
X181105462Y-71683340D01*
X183400680Y-69388122D01*
X183446167Y-69388162D01*
X183789943Y-69246117D01*
X184053192Y-68983327D01*
X184195838Y-68639799D01*
X184196162Y-68267833D01*
X184054117Y-67924057D01*
X183791327Y-67660808D01*
X183447799Y-67518162D01*
X183075833Y-67517838D01*
X182732057Y-67659883D01*
X182468808Y-67922673D01*
X182326162Y-68266201D01*
X182326121Y-68313077D01*
X181717569Y-68921629D01*
X181735000Y-68834000D01*
X181735000Y-66729463D01*
X181767192Y-66697327D01*
X181909838Y-66353799D01*
X181910162Y-65981833D01*
X181793189Y-65698737D01*
X182002000Y-65841411D01*
X182002000Y-65841411D01*
G37*
X182002000Y-65841411D02*
X182253890Y-65892420D01*
X185604150Y-65892420D01*
X185839467Y-65848142D01*
X186005000Y-65741624D01*
X186005000Y-77897369D01*
X185856040Y-77795589D01*
X185604150Y-77744580D01*
X182253890Y-77744580D01*
X182018573Y-77788858D01*
X181802449Y-77927930D01*
X181657459Y-78140130D01*
X181606450Y-78392020D01*
X181606450Y-79692500D01*
X181628333Y-79808800D01*
X177956063Y-79808800D01*
X177923927Y-79776608D01*
X177580399Y-79633962D01*
X177208433Y-79633638D01*
X176974109Y-79730459D01*
X176923450Y-79679800D01*
X175824200Y-79679800D01*
X175824200Y-79699800D01*
X175570200Y-79699800D01*
X175570200Y-79679800D01*
X175550200Y-79679800D01*
X175550200Y-79425800D01*
X175570200Y-79425800D01*
X175570200Y-78451550D01*
X175824200Y-78451550D01*
X175824200Y-79425800D01*
X176923450Y-79425800D01*
X177082200Y-79267050D01*
X177082200Y-78801490D01*
X176985527Y-78568101D01*
X176806898Y-78389473D01*
X176573509Y-78292800D01*
X175982950Y-78292800D01*
X175824200Y-78451550D01*
X175570200Y-78451550D01*
X175411450Y-78292800D01*
X174820891Y-78292800D01*
X174587502Y-78389473D01*
X174446264Y-78530710D01*
X174411290Y-78476359D01*
X174199090Y-78331369D01*
X173947200Y-78280360D01*
X172447200Y-78280360D01*
X172211883Y-78324638D01*
X171995759Y-78463710D01*
X171850769Y-78675910D01*
X171799760Y-78927800D01*
X171799760Y-80177800D01*
X171844038Y-80413117D01*
X171983110Y-80629241D01*
X172006701Y-80645360D01*
X171743434Y-80645360D01*
X171700400Y-80636800D01*
X171019934Y-80636800D01*
X171005762Y-80561483D01*
X170866690Y-80345359D01*
X170654490Y-80200369D01*
X170402600Y-80149360D01*
X169652600Y-80149360D01*
X169417283Y-80193638D01*
X169201159Y-80332710D01*
X169056169Y-80544910D01*
X169005160Y-80796800D01*
X169005160Y-81996800D01*
X169049438Y-82232117D01*
X169115929Y-82335446D01*
X169114273Y-82337102D01*
X169017600Y-82570491D01*
X169017600Y-83011050D01*
X169176350Y-83169800D01*
X169900600Y-83169800D01*
X169900600Y-83149800D01*
X170154600Y-83149800D01*
X170154600Y-83169800D01*
X170174600Y-83169800D01*
X170174600Y-83423800D01*
X170154600Y-83423800D01*
X170154600Y-84373050D01*
X170313350Y-84531800D01*
X170528910Y-84531800D01*
X170762299Y-84435127D01*
X170940927Y-84256498D01*
X171037600Y-84023109D01*
X171037600Y-83582550D01*
X170878852Y-83423802D01*
X171037600Y-83423802D01*
X171037600Y-83416183D01*
X171144510Y-83489231D01*
X171396400Y-83540240D01*
X173396400Y-83540240D01*
X173631717Y-83495962D01*
X173847841Y-83356890D01*
X173992831Y-83144690D01*
X174043840Y-82892800D01*
X174043840Y-82865819D01*
X174311201Y-82976838D01*
X174683167Y-82977162D01*
X174761400Y-82944837D01*
X174761400Y-83019110D01*
X174858073Y-83252499D01*
X175036702Y-83431127D01*
X175270091Y-83527800D01*
X176110650Y-83527800D01*
X176269400Y-83369050D01*
X176269400Y-82219800D01*
X176523400Y-82219800D01*
X176523400Y-83369050D01*
X176682150Y-83527800D01*
X177522709Y-83527800D01*
X177708120Y-83451000D01*
X180068000Y-83451000D01*
X180125852Y-83741839D01*
X180290599Y-83988401D01*
X180659599Y-84357401D01*
X180906161Y-84522148D01*
X181197000Y-84580000D01*
X181487840Y-84522148D01*
X181734401Y-84357401D01*
X181899148Y-84110840D01*
X181957000Y-83820000D01*
X181899148Y-83529161D01*
X181734401Y-83282599D01*
X181365401Y-82913599D01*
X181118839Y-82748852D01*
X180828000Y-82691000D01*
X180537161Y-82748852D01*
X180290599Y-82913599D01*
X180125852Y-83160161D01*
X180068000Y-83451000D01*
X177708120Y-83451000D01*
X177756098Y-83431127D01*
X177934727Y-83252499D01*
X178031400Y-83019110D01*
X178031400Y-82378550D01*
X177872650Y-82219800D01*
X176523400Y-82219800D01*
X176269400Y-82219800D01*
X176249400Y-82219800D01*
X176249400Y-81965800D01*
X176269400Y-81965800D01*
X176269400Y-81945800D01*
X176523400Y-81945800D01*
X176523400Y-81965800D01*
X177872650Y-81965800D01*
X178031400Y-81807050D01*
X178031400Y-81328800D01*
X182750086Y-81328800D01*
X183048801Y-81452838D01*
X183420767Y-81453162D01*
X183764543Y-81311117D01*
X184027792Y-81048327D01*
X184170438Y-80704799D01*
X184170756Y-80339940D01*
X185604150Y-80339940D01*
X185839467Y-80295662D01*
X186005000Y-80189144D01*
X186005000Y-87922885D01*
X186000820Y-87920029D01*
X185748930Y-87869020D01*
X184948830Y-87869020D01*
X184713513Y-87913298D01*
X184497389Y-88052370D01*
X184352399Y-88264570D01*
X184301390Y-88516460D01*
X184301390Y-89195788D01*
X184003000Y-88897398D01*
X184003000Y-88223600D01*
X183945148Y-87932761D01*
X183780401Y-87686199D01*
X183533839Y-87521452D01*
X183243000Y-87463600D01*
X179054000Y-87463600D01*
X178763161Y-87521452D01*
X178516599Y-87686199D01*
X177458238Y-88744560D01*
X176035600Y-88744560D01*
X175800283Y-88788838D01*
X175584159Y-88927910D01*
X175535599Y-88998980D01*
X175470194Y-88841078D01*
X175521431Y-88766090D01*
X175572440Y-88514200D01*
X175572440Y-87914200D01*
X175554008Y-87816242D01*
X175571510Y-87843441D01*
X175783710Y-87988431D01*
X176035600Y-88039440D01*
X177735600Y-88039440D01*
X177970917Y-87995162D01*
X178187041Y-87856090D01*
X178332031Y-87643890D01*
X178383040Y-87392000D01*
X178383040Y-85392000D01*
X178338762Y-85156683D01*
X178199690Y-84940559D01*
X177987490Y-84795569D01*
X177735600Y-84744560D01*
X176035600Y-84744560D01*
X175800283Y-84788838D01*
X175584159Y-84927910D01*
X175439169Y-85140110D01*
X175388160Y-85392000D01*
X175388160Y-85632000D01*
X174702200Y-85632000D01*
X174411361Y-85689852D01*
X174164799Y-85854599D01*
X174022638Y-85996760D01*
X173375000Y-85996760D01*
X173139683Y-86041038D01*
X172923559Y-86180110D01*
X172920764Y-86184200D01*
X172847000Y-86184200D01*
X172556160Y-86242052D01*
X172486603Y-86288529D01*
X172382433Y-86288438D01*
X172038657Y-86430483D01*
X171775408Y-86693273D01*
X171632762Y-87036801D01*
X171632438Y-87408767D01*
X171653291Y-87459234D01*
X171387761Y-87512052D01*
X171141199Y-87676799D01*
X170607799Y-88210199D01*
X170443052Y-88456761D01*
X170385200Y-88747600D01*
X170385200Y-90119200D01*
X170443052Y-90410039D01*
X170607799Y-90656601D01*
X171242799Y-91291601D01*
X171390064Y-91390000D01*
X170064098Y-91390000D01*
X170121431Y-91306090D01*
X170172440Y-91054200D01*
X170172440Y-90454200D01*
X170128162Y-90218883D01*
X170069822Y-90128220D01*
X170160000Y-89910510D01*
X170160000Y-89769950D01*
X170001250Y-89611200D01*
X168877000Y-89611200D01*
X168877000Y-89631200D01*
X168623000Y-89631200D01*
X168623000Y-89611200D01*
X167498750Y-89611200D01*
X167340000Y-89769950D01*
X167340000Y-89910510D01*
X167374666Y-89994200D01*
X166681671Y-89994200D01*
X166786148Y-89837840D01*
X166803700Y-89749601D01*
X166844000Y-89547000D01*
X166844000Y-89331440D01*
X167084000Y-89331440D01*
X167319317Y-89287162D01*
X167385880Y-89244330D01*
X167498750Y-89357200D01*
X168623000Y-89357200D01*
X168623000Y-88341200D01*
X168877000Y-88341200D01*
X168877000Y-89357200D01*
X170001250Y-89357200D01*
X170160000Y-89198450D01*
X170160000Y-89057890D01*
X170073558Y-88849200D01*
X170160000Y-88640510D01*
X170160000Y-88499950D01*
X170001250Y-88341200D01*
X168877000Y-88341200D01*
X168623000Y-88341200D01*
X168603000Y-88341200D01*
X168603000Y-88087200D01*
X168623000Y-88087200D01*
X168623000Y-88067200D01*
X168877000Y-88067200D01*
X168877000Y-88087200D01*
X170001250Y-88087200D01*
X170160000Y-87928450D01*
X170160000Y-87787890D01*
X170070194Y-87571078D01*
X170121431Y-87496090D01*
X170172440Y-87244200D01*
X170172440Y-86644200D01*
X170128162Y-86408883D01*
X169989090Y-86192759D01*
X169776890Y-86047769D01*
X169525000Y-85996760D01*
X168402362Y-85996760D01*
X166958201Y-84552599D01*
X166711639Y-84387852D01*
X166420800Y-84330000D01*
X164849663Y-84330000D01*
X164817527Y-84297808D01*
X164473999Y-84155162D01*
X164102033Y-84154838D01*
X163758257Y-84296883D01*
X163495008Y-84559673D01*
X163352362Y-84903201D01*
X163352038Y-85275167D01*
X163494083Y-85618943D01*
X163667837Y-85793000D01*
X157044669Y-85793000D01*
X157034090Y-85776559D01*
X156821890Y-85631569D01*
X156570000Y-85580560D01*
X156251362Y-85580560D01*
X155875122Y-85204320D01*
X155875162Y-85158833D01*
X155845894Y-85088000D01*
X162560000Y-85088000D01*
X162850839Y-85030148D01*
X163097401Y-84865401D01*
X163890802Y-84072000D01*
X164799000Y-84072000D01*
X165089839Y-84014148D01*
X165336401Y-83849401D01*
X165603252Y-83582550D01*
X169017600Y-83582550D01*
X169017600Y-84023109D01*
X169114273Y-84256498D01*
X169292901Y-84435127D01*
X169526290Y-84531800D01*
X169741850Y-84531800D01*
X169900600Y-84373050D01*
X169900600Y-83423800D01*
X169176350Y-83423800D01*
X169017600Y-83582550D01*
X165603252Y-83582550D01*
X166100362Y-83085440D01*
X167073000Y-83085440D01*
X167308317Y-83041162D01*
X167524441Y-82902090D01*
X167669431Y-82689890D01*
X167720440Y-82438000D01*
X167720440Y-81138000D01*
X167676162Y-80902683D01*
X167537090Y-80686559D01*
X167324890Y-80541569D01*
X167073000Y-80490560D01*
X166856000Y-80490560D01*
X166856000Y-79756558D01*
X167081317Y-79714162D01*
X167297441Y-79575090D01*
X167442431Y-79362890D01*
X167493440Y-79111000D01*
X167493440Y-78499842D01*
X168279678Y-79286080D01*
X168279638Y-79331567D01*
X168421683Y-79675343D01*
X168684473Y-79938592D01*
X169028001Y-80081238D01*
X169399967Y-80081562D01*
X169743743Y-79939517D01*
X170006992Y-79676727D01*
X170149638Y-79333199D01*
X170149962Y-78961233D01*
X170007917Y-78617457D01*
X169745127Y-78354208D01*
X169401599Y-78211562D01*
X169354723Y-78211521D01*
X167180800Y-76037598D01*
X167180800Y-73822402D01*
X167527401Y-73475801D01*
X167692148Y-73229240D01*
X167750000Y-72938400D01*
X167750000Y-72363558D01*
X167975317Y-72321162D01*
X168191441Y-72182090D01*
X168336431Y-71969890D01*
X168365164Y-71828000D01*
X169101998Y-71828000D01*
X169166000Y-71892002D01*
X169166000Y-74371200D01*
X169223852Y-74662039D01*
X169388599Y-74908601D01*
X170819678Y-76339680D01*
X170819638Y-76385167D01*
X170961683Y-76728943D01*
X171224473Y-76992192D01*
X171568001Y-77134838D01*
X171939967Y-77135162D01*
X172283743Y-76993117D01*
X172546992Y-76730327D01*
X172689638Y-76386799D01*
X172689962Y-76014833D01*
X172547917Y-75671057D01*
X172285127Y-75407808D01*
X171941599Y-75265162D01*
X171894723Y-75265121D01*
X170942916Y-74313314D01*
X171009201Y-74340838D01*
X171381167Y-74341162D01*
X171724943Y-74199117D01*
X171988192Y-73936327D01*
X172130838Y-73592799D01*
X172131162Y-73220833D01*
X171989117Y-72877057D01*
X171956000Y-72843882D01*
X171956000Y-72134000D01*
X174189537Y-72134000D01*
X174221673Y-72166192D01*
X174565201Y-72308838D01*
X174937167Y-72309162D01*
X175280943Y-72167117D01*
X175544192Y-71904327D01*
X175686838Y-71560799D01*
X175687162Y-71188833D01*
X175545117Y-70845057D01*
X175282327Y-70581808D01*
X174938799Y-70439162D01*
X174831334Y-70439068D01*
X175602880Y-69667522D01*
X175648367Y-69667562D01*
X175992143Y-69525517D01*
X176255392Y-69262727D01*
X176369976Y-68986778D01*
X176614899Y-69231701D01*
X176861460Y-69396448D01*
X177152300Y-69454300D01*
X177475511Y-69454300D01*
X177457360Y-69543930D01*
X177457360Y-70344030D01*
X177501210Y-70577072D01*
X177457360Y-70793610D01*
X177457360Y-71593710D01*
X177501210Y-71826752D01*
X177457360Y-72043290D01*
X177457360Y-72843390D01*
X177501210Y-73076432D01*
X177457360Y-73292970D01*
X177457360Y-74093070D01*
X177501210Y-74326112D01*
X177457360Y-74542650D01*
X177457360Y-75342750D01*
X177501210Y-75575792D01*
X177457360Y-75792330D01*
X177457360Y-76592430D01*
X177501638Y-76827747D01*
X177640710Y-77043871D01*
X177852910Y-77188861D01*
X178104800Y-77239870D01*
X178294760Y-77239870D01*
X178294760Y-77458697D01*
X178262162Y-77537201D01*
X178261838Y-77909167D01*
X178403883Y-78252943D01*
X178666673Y-78516192D01*
X179010201Y-78658838D01*
X179382167Y-78659162D01*
X179725943Y-78517117D01*
X179989192Y-78254327D01*
X180131838Y-77910799D01*
X180132162Y-77538833D01*
X180008351Y-77239187D01*
X180240037Y-77195592D01*
X180456161Y-77056520D01*
X180601151Y-76844320D01*
X180652160Y-76592430D01*
X180652160Y-76062349D01*
X180788201Y-76118838D01*
X181160167Y-76119162D01*
X181503943Y-75977117D01*
X181767192Y-75714327D01*
X181909838Y-75370799D01*
X181910162Y-74998833D01*
X181768117Y-74655057D01*
X181566432Y-74453020D01*
X182096721Y-74453020D01*
X182222673Y-74579192D01*
X182566201Y-74721838D01*
X182938167Y-74722162D01*
X183281943Y-74580117D01*
X183545192Y-74317327D01*
X183687838Y-73973799D01*
X183688162Y-73601833D01*
X183546117Y-73258057D01*
X183283327Y-72994808D01*
X182939799Y-72852162D01*
X182603933Y-72851869D01*
X182892680Y-72563122D01*
X182938167Y-72563162D01*
X183281943Y-72421117D01*
X183545192Y-72158327D01*
X183687838Y-71814799D01*
X183688162Y-71442833D01*
X183546117Y-71099057D01*
X183283327Y-70835808D01*
X182939799Y-70693162D01*
X182567833Y-70692838D01*
X182224057Y-70834883D01*
X181960808Y-71097673D01*
X181818162Y-71441201D01*
X181818121Y-71488077D01*
X181622858Y-71683340D01*
X181105462Y-71683340D01*
X183400680Y-69388122D01*
X183446167Y-69388162D01*
X183789943Y-69246117D01*
X184053192Y-68983327D01*
X184195838Y-68639799D01*
X184196162Y-68267833D01*
X184054117Y-67924057D01*
X183791327Y-67660808D01*
X183447799Y-67518162D01*
X183075833Y-67517838D01*
X182732057Y-67659883D01*
X182468808Y-67922673D01*
X182326162Y-68266201D01*
X182326121Y-68313077D01*
X181717569Y-68921629D01*
X181735000Y-68834000D01*
X181735000Y-66729463D01*
X181767192Y-66697327D01*
X181909838Y-66353799D01*
X181910162Y-65981833D01*
X181793189Y-65698737D01*
X182002000Y-65841411D01*
G36*
X152833750Y-87376000D02*
X152914051Y-87376000D01*
X153058110Y-87474431D01*
X153195120Y-87502176D01*
X153074683Y-87524838D01*
X152911257Y-87630000D01*
X152833750Y-87630000D01*
X152675000Y-87788750D01*
X152675000Y-87954310D01*
X152690268Y-87991171D01*
X152662560Y-88128000D01*
X152662560Y-88778000D01*
X152706838Y-89013317D01*
X152728750Y-89047369D01*
X152631559Y-89109910D01*
X152486569Y-89322110D01*
X152435560Y-89574000D01*
X152435560Y-91274000D01*
X152457387Y-91390000D01*
X152244447Y-91390000D01*
X152260040Y-91313000D01*
X152260040Y-89281000D01*
X152215762Y-89045683D01*
X152076690Y-88829559D01*
X151864490Y-88684569D01*
X151612600Y-88633560D01*
X151509000Y-88633560D01*
X151509000Y-88198802D01*
X152394802Y-87313000D01*
X152770750Y-87313000D01*
X152833750Y-87376000D01*
X152833750Y-87376000D01*
G37*
X152833750Y-87376000D02*
X152914051Y-87376000D01*
X153058110Y-87474431D01*
X153195120Y-87502176D01*
X153074683Y-87524838D01*
X152911257Y-87630000D01*
X152833750Y-87630000D01*
X152675000Y-87788750D01*
X152675000Y-87954310D01*
X152690268Y-87991171D01*
X152662560Y-88128000D01*
X152662560Y-88778000D01*
X152706838Y-89013317D01*
X152728750Y-89047369D01*
X152631559Y-89109910D01*
X152486569Y-89322110D01*
X152435560Y-89574000D01*
X152435560Y-91274000D01*
X152457387Y-91390000D01*
X152244447Y-91390000D01*
X152260040Y-91313000D01*
X152260040Y-89281000D01*
X152215762Y-89045683D01*
X152076690Y-88829559D01*
X151864490Y-88684569D01*
X151612600Y-88633560D01*
X151509000Y-88633560D01*
X151509000Y-88198802D01*
X152394802Y-87313000D01*
X152770750Y-87313000D01*
X152833750Y-87376000D01*
G36*
X160449000Y-87598250D02*
X160607750Y-87757000D01*
X161957000Y-87757000D01*
X161957000Y-87737000D01*
X162211000Y-87737000D01*
X162211000Y-87757000D01*
X163560250Y-87757000D01*
X163719000Y-87598250D01*
X163719000Y-87313000D01*
X164436560Y-87313000D01*
X164436560Y-88684000D01*
X164480838Y-88919317D01*
X164619910Y-89135441D01*
X164829372Y-89278560D01*
X164330000Y-89278560D01*
X164094683Y-89322838D01*
X163878559Y-89461910D01*
X163832031Y-89530006D01*
X163689698Y-89387673D01*
X163456309Y-89291000D01*
X163277907Y-89291000D01*
X163443698Y-89222327D01*
X163622327Y-89043699D01*
X163719000Y-88810310D01*
X163719000Y-88169750D01*
X163560250Y-88011000D01*
X162211000Y-88011000D01*
X162211000Y-88031000D01*
X161957000Y-88031000D01*
X161957000Y-88011000D01*
X160607750Y-88011000D01*
X160449000Y-88169750D01*
X160449000Y-88810310D01*
X160545673Y-89043699D01*
X160724302Y-89222327D01*
X160957691Y-89319000D01*
X161636093Y-89319000D01*
X161470302Y-89387673D01*
X161291673Y-89566301D01*
X161195000Y-89799690D01*
X161195000Y-90265250D01*
X161353750Y-90424000D01*
X162453000Y-90424000D01*
X162453000Y-90404000D01*
X162707000Y-90404000D01*
X162707000Y-90424000D01*
X162727000Y-90424000D01*
X162727000Y-90678000D01*
X162707000Y-90678000D01*
X162707000Y-90698000D01*
X162453000Y-90698000D01*
X162453000Y-90678000D01*
X161353750Y-90678000D01*
X161195000Y-90836750D01*
X161195000Y-91302310D01*
X161231322Y-91390000D01*
X159706949Y-91390000D01*
X159730440Y-91274000D01*
X159730440Y-89574000D01*
X159686162Y-89338683D01*
X159547090Y-89122559D01*
X159334890Y-88977569D01*
X159083000Y-88926560D01*
X158843000Y-88926560D01*
X158843000Y-88614000D01*
X158785148Y-88323161D01*
X158785148Y-88323160D01*
X158620401Y-88076599D01*
X157856802Y-87313000D01*
X160449000Y-87313000D01*
X160449000Y-87598250D01*
X160449000Y-87598250D01*
G37*
X160449000Y-87598250D02*
X160607750Y-87757000D01*
X161957000Y-87757000D01*
X161957000Y-87737000D01*
X162211000Y-87737000D01*
X162211000Y-87757000D01*
X163560250Y-87757000D01*
X163719000Y-87598250D01*
X163719000Y-87313000D01*
X164436560Y-87313000D01*
X164436560Y-88684000D01*
X164480838Y-88919317D01*
X164619910Y-89135441D01*
X164829372Y-89278560D01*
X164330000Y-89278560D01*
X164094683Y-89322838D01*
X163878559Y-89461910D01*
X163832031Y-89530006D01*
X163689698Y-89387673D01*
X163456309Y-89291000D01*
X163277907Y-89291000D01*
X163443698Y-89222327D01*
X163622327Y-89043699D01*
X163719000Y-88810310D01*
X163719000Y-88169750D01*
X163560250Y-88011000D01*
X162211000Y-88011000D01*
X162211000Y-88031000D01*
X161957000Y-88031000D01*
X161957000Y-88011000D01*
X160607750Y-88011000D01*
X160449000Y-88169750D01*
X160449000Y-88810310D01*
X160545673Y-89043699D01*
X160724302Y-89222327D01*
X160957691Y-89319000D01*
X161636093Y-89319000D01*
X161470302Y-89387673D01*
X161291673Y-89566301D01*
X161195000Y-89799690D01*
X161195000Y-90265250D01*
X161353750Y-90424000D01*
X162453000Y-90424000D01*
X162453000Y-90404000D01*
X162707000Y-90404000D01*
X162707000Y-90424000D01*
X162727000Y-90424000D01*
X162727000Y-90678000D01*
X162707000Y-90678000D01*
X162707000Y-90698000D01*
X162453000Y-90698000D01*
X162453000Y-90678000D01*
X161353750Y-90678000D01*
X161195000Y-90836750D01*
X161195000Y-91302310D01*
X161231322Y-91390000D01*
X159706949Y-91390000D01*
X159730440Y-91274000D01*
X159730440Y-89574000D01*
X159686162Y-89338683D01*
X159547090Y-89122559D01*
X159334890Y-88977569D01*
X159083000Y-88926560D01*
X158843000Y-88926560D01*
X158843000Y-88614000D01*
X158785148Y-88323161D01*
X158785148Y-88323160D01*
X158620401Y-88076599D01*
X157856802Y-87313000D01*
X160449000Y-87313000D01*
X160449000Y-87598250D01*
G36*
X152605200Y-69535198D02*
X151202199Y-70938199D01*
X151037452Y-71184761D01*
X150979600Y-71475600D01*
X150979600Y-75377198D01*
X150075920Y-76280878D01*
X150030433Y-76280838D01*
X149686657Y-76422883D01*
X149423408Y-76685673D01*
X149280762Y-77029201D01*
X149280438Y-77401167D01*
X149422483Y-77744943D01*
X149685273Y-78008192D01*
X150028801Y-78150838D01*
X150400767Y-78151162D01*
X150744543Y-78009117D01*
X151007792Y-77746327D01*
X151150438Y-77402799D01*
X151150479Y-77355923D01*
X151581712Y-76924690D01*
X153083000Y-76924690D01*
X153083000Y-77565250D01*
X153241750Y-77724000D01*
X154591000Y-77724000D01*
X154591000Y-76574750D01*
X154845000Y-76574750D01*
X154845000Y-77724000D01*
X156194250Y-77724000D01*
X156353000Y-77565250D01*
X156353000Y-76924690D01*
X156256327Y-76691301D01*
X156077698Y-76512673D01*
X155844309Y-76416000D01*
X155003750Y-76416000D01*
X154845000Y-76574750D01*
X154591000Y-76574750D01*
X154432250Y-76416000D01*
X153591691Y-76416000D01*
X153358302Y-76512673D01*
X153179673Y-76691301D01*
X153083000Y-76924690D01*
X151581712Y-76924690D01*
X152277001Y-76229401D01*
X152441748Y-75982840D01*
X152452201Y-75930291D01*
X152499600Y-75692000D01*
X152499600Y-71790402D01*
X152582441Y-71707561D01*
X152582438Y-71711567D01*
X152724483Y-72055343D01*
X152987273Y-72318592D01*
X153330801Y-72461238D01*
X153702767Y-72461562D01*
X154026013Y-72328000D01*
X154655116Y-72328000D01*
X154840000Y-72365440D01*
X156340000Y-72365440D01*
X156538976Y-72328000D01*
X156851198Y-72328000D01*
X156891586Y-72368388D01*
X156851673Y-72408302D01*
X156755000Y-72641691D01*
X156755000Y-73232250D01*
X156913750Y-73391000D01*
X157242560Y-73391000D01*
X157242560Y-73645000D01*
X156913750Y-73645000D01*
X156755000Y-73803750D01*
X156755000Y-74394309D01*
X156851673Y-74627698D01*
X157030301Y-74806327D01*
X157263690Y-74903000D01*
X157306250Y-74903000D01*
X157313390Y-74895860D01*
X157337852Y-75018839D01*
X157502599Y-75265401D01*
X157831599Y-75594401D01*
X158078160Y-75759148D01*
X158369000Y-75817000D01*
X159677198Y-75817000D01*
X159090638Y-76403560D01*
X157718000Y-76403560D01*
X157482683Y-76447838D01*
X157266559Y-76586910D01*
X157121569Y-76799110D01*
X157070560Y-77051000D01*
X157070560Y-78651000D01*
X157114838Y-78886317D01*
X157253910Y-79102441D01*
X157463372Y-79245560D01*
X157091000Y-79245560D01*
X156855683Y-79289838D01*
X156639559Y-79428910D01*
X156593031Y-79497006D01*
X156450698Y-79354673D01*
X156217309Y-79258000D01*
X155911907Y-79258000D01*
X156077698Y-79189327D01*
X156256327Y-79010699D01*
X156353000Y-78777310D01*
X156353000Y-78136750D01*
X156194250Y-77978000D01*
X154845000Y-77978000D01*
X154845000Y-77998000D01*
X154591000Y-77998000D01*
X154591000Y-77978000D01*
X153241750Y-77978000D01*
X153083000Y-78136750D01*
X153083000Y-78595839D01*
X152891599Y-78516362D01*
X152519633Y-78516038D01*
X152175857Y-78658083D01*
X152142682Y-78691200D01*
X150114000Y-78691200D01*
X149971966Y-78719453D01*
X149725633Y-78719238D01*
X149381857Y-78861283D01*
X149118608Y-79124073D01*
X148991365Y-79430506D01*
X148912833Y-79430438D01*
X148569057Y-79572483D01*
X148305808Y-79835273D01*
X148163162Y-80178801D01*
X148163086Y-80266000D01*
X147882463Y-80266000D01*
X147850327Y-80233808D01*
X147506799Y-80091162D01*
X147134833Y-80090838D01*
X146791057Y-80232883D01*
X146527808Y-80495673D01*
X146385162Y-80839201D01*
X146384838Y-81211167D01*
X146526883Y-81554943D01*
X146789673Y-81818192D01*
X147133201Y-81960838D01*
X147505167Y-81961162D01*
X147848943Y-81819117D01*
X147882118Y-81786000D01*
X152650514Y-81786000D01*
X152784073Y-81919792D01*
X153127601Y-82062438D01*
X153499567Y-82062762D01*
X153843343Y-81920717D01*
X154106592Y-81657927D01*
X154136317Y-81586342D01*
X154231302Y-81681327D01*
X154464691Y-81778000D01*
X155055250Y-81778000D01*
X155214000Y-81619250D01*
X155214000Y-80645000D01*
X155194000Y-80645000D01*
X155194000Y-80391000D01*
X155214000Y-80391000D01*
X155214000Y-80371000D01*
X155468000Y-80371000D01*
X155468000Y-80391000D01*
X155488000Y-80391000D01*
X155488000Y-80645000D01*
X155468000Y-80645000D01*
X155468000Y-81619250D01*
X155626750Y-81778000D01*
X156217309Y-81778000D01*
X156450698Y-81681327D01*
X156591936Y-81540090D01*
X156626910Y-81594441D01*
X156839110Y-81739431D01*
X157091000Y-81790440D01*
X157602388Y-81790440D01*
X157560657Y-81807683D01*
X157297408Y-82070473D01*
X157154762Y-82414001D01*
X157154721Y-82460877D01*
X156758798Y-82856800D01*
X154080063Y-82856800D01*
X154047927Y-82824608D01*
X153704399Y-82681962D01*
X153332433Y-82681638D01*
X152988657Y-82823683D01*
X152725408Y-83086473D01*
X152582762Y-83430001D01*
X152582642Y-83568000D01*
X151257000Y-83568000D01*
X150966160Y-83625852D01*
X150719599Y-83790599D01*
X145858791Y-88651407D01*
X145826346Y-88644953D01*
X145879141Y-88610980D01*
X146024131Y-88398780D01*
X146075140Y-88146890D01*
X146075140Y-87346790D01*
X146031290Y-87113748D01*
X146075140Y-86897210D01*
X146075140Y-86097110D01*
X146030862Y-85861793D01*
X145891790Y-85645669D01*
X145679590Y-85500679D01*
X145427700Y-85449670D01*
X143527780Y-85449670D01*
X143292463Y-85493948D01*
X143076339Y-85633020D01*
X143005183Y-85737160D01*
X141923605Y-85737160D01*
X141881327Y-85694808D01*
X141537799Y-85552162D01*
X141165833Y-85551838D01*
X140822057Y-85693883D01*
X140558808Y-85956673D01*
X140416162Y-86300201D01*
X140415838Y-86672167D01*
X140557883Y-87015943D01*
X140820673Y-87279192D01*
X141164201Y-87421838D01*
X141536167Y-87422162D01*
X141879943Y-87280117D01*
X141902940Y-87257160D01*
X142898491Y-87257160D01*
X142880340Y-87346790D01*
X142880340Y-88146890D01*
X142924618Y-88382207D01*
X143063690Y-88598331D01*
X143275890Y-88743321D01*
X143527780Y-88794330D01*
X144995836Y-88794330D01*
X144609330Y-89052585D01*
X144284474Y-89538766D01*
X144170400Y-90112255D01*
X144170400Y-90481745D01*
X144284474Y-91055234D01*
X144508158Y-91390000D01*
X141897084Y-91390000D01*
X141926050Y-91246960D01*
X141926050Y-89946480D01*
X141881772Y-89711163D01*
X141742700Y-89495039D01*
X141530500Y-89350049D01*
X141278610Y-89299040D01*
X137928350Y-89299040D01*
X137845000Y-89314723D01*
X137845000Y-84928081D01*
X137928350Y-84944960D01*
X141278610Y-84944960D01*
X141513927Y-84900682D01*
X141730051Y-84761610D01*
X141875041Y-84549410D01*
X141926050Y-84297520D01*
X141926050Y-82997040D01*
X141881772Y-82761723D01*
X141742700Y-82545599D01*
X141530500Y-82400609D01*
X141278610Y-82349600D01*
X137928350Y-82349600D01*
X137845000Y-82365283D01*
X137845000Y-80641260D01*
X137976180Y-80730891D01*
X138228070Y-80781900D01*
X139028170Y-80781900D01*
X139263487Y-80737622D01*
X139479611Y-80598550D01*
X139624601Y-80386350D01*
X139675610Y-80134460D01*
X139675610Y-79433420D01*
X139631332Y-79198103D01*
X139492260Y-78981979D01*
X139403907Y-78921610D01*
X141342110Y-78921610D01*
X141342110Y-79061889D01*
X141438783Y-79295278D01*
X141617411Y-79473907D01*
X141850800Y-79570580D01*
X142116810Y-79570580D01*
X142275560Y-79411830D01*
X142275560Y-78762860D01*
X142529560Y-78762860D01*
X142529560Y-79411830D01*
X142688310Y-79570580D01*
X142954320Y-79570580D01*
X143187709Y-79473907D01*
X143366337Y-79295278D01*
X143463010Y-79061889D01*
X143463010Y-78921610D01*
X143304260Y-78762860D01*
X142529560Y-78762860D01*
X142275560Y-78762860D01*
X141500860Y-78762860D01*
X141342110Y-78921610D01*
X139403907Y-78921610D01*
X139280060Y-78836989D01*
X139028170Y-78785980D01*
X138228070Y-78785980D01*
X137992753Y-78830258D01*
X137845000Y-78925334D01*
X137845000Y-74743380D01*
X137951377Y-74816064D01*
X137876162Y-74997201D01*
X137875838Y-75369167D01*
X138017883Y-75712943D01*
X138280673Y-75976192D01*
X138624201Y-76118838D01*
X138671077Y-76118879D01*
X139325159Y-76772961D01*
X139571720Y-76937708D01*
X139588557Y-76941057D01*
X139862560Y-76995560D01*
X140027602Y-76995560D01*
X139908162Y-77283201D01*
X139907838Y-77655167D01*
X140049883Y-77998943D01*
X140312673Y-78262192D01*
X140656201Y-78404838D01*
X141028167Y-78405162D01*
X141342110Y-78275444D01*
X141342110Y-78350110D01*
X141500860Y-78508860D01*
X142275560Y-78508860D01*
X142275560Y-78488860D01*
X142529560Y-78488860D01*
X142529560Y-78508860D01*
X143304260Y-78508860D01*
X143463010Y-78350110D01*
X143463010Y-78209831D01*
X143390744Y-78035367D01*
X143424441Y-77986050D01*
X143475450Y-77734160D01*
X143475450Y-77134720D01*
X143431172Y-76899403D01*
X143390715Y-76836530D01*
X143424441Y-76787170D01*
X143475450Y-76535280D01*
X143475450Y-75935840D01*
X143431172Y-75700523D01*
X143389873Y-75636342D01*
X143424441Y-75585750D01*
X143454896Y-75435358D01*
X143487673Y-75468192D01*
X143831201Y-75610838D01*
X144203167Y-75611162D01*
X144546943Y-75469117D01*
X144810192Y-75206327D01*
X144952838Y-74862799D01*
X144952879Y-74815923D01*
X145000352Y-74768450D01*
X146185248Y-74768450D01*
X146782599Y-75365801D01*
X147029161Y-75530548D01*
X147320000Y-75588400D01*
X149453600Y-75588400D01*
X149744439Y-75530548D01*
X149991001Y-75365801D01*
X150549801Y-74807001D01*
X150714548Y-74560439D01*
X150772400Y-74269600D01*
X150772400Y-72901663D01*
X150804592Y-72869527D01*
X150947238Y-72525999D01*
X150947562Y-72154033D01*
X150805517Y-71810257D01*
X150542727Y-71547008D01*
X150199199Y-71404362D01*
X149827233Y-71404038D01*
X149556803Y-71515777D01*
X149495699Y-71454673D01*
X149262310Y-71358000D01*
X148621750Y-71358000D01*
X148463000Y-71516750D01*
X148463000Y-72866000D01*
X148483000Y-72866000D01*
X148483000Y-73120000D01*
X148463000Y-73120000D01*
X148463000Y-73140000D01*
X148209000Y-73140000D01*
X148209000Y-73120000D01*
X148189000Y-73120000D01*
X148189000Y-72866000D01*
X148209000Y-72866000D01*
X148209000Y-71516750D01*
X148050250Y-71358000D01*
X147409690Y-71358000D01*
X147176301Y-71454673D01*
X146997673Y-71633302D01*
X146901000Y-71866691D01*
X146901000Y-72083956D01*
X146812430Y-72023439D01*
X146560540Y-71972430D01*
X143761460Y-71972430D01*
X143526143Y-72016708D01*
X143382250Y-72109301D01*
X143463010Y-71914329D01*
X143463010Y-71774050D01*
X143304260Y-71615300D01*
X142529560Y-71615300D01*
X142529560Y-72264270D01*
X142688310Y-72423020D01*
X142954320Y-72423020D01*
X143187709Y-72326347D01*
X143205916Y-72308140D01*
X143165029Y-72367980D01*
X143114020Y-72619870D01*
X143114020Y-73247878D01*
X142274918Y-74086980D01*
X141977110Y-74086980D01*
X141741793Y-74131258D01*
X141525669Y-74270330D01*
X141380679Y-74482530D01*
X141329670Y-74734420D01*
X141329670Y-75333860D01*
X141356333Y-75475560D01*
X140177362Y-75475560D01*
X139746122Y-75044320D01*
X139746162Y-74998833D01*
X139604117Y-74655057D01*
X139548705Y-74599548D01*
X139624601Y-74488470D01*
X139675610Y-74236580D01*
X139675610Y-73535540D01*
X139631332Y-73300223D01*
X139608551Y-73264820D01*
X139624601Y-73241330D01*
X139675610Y-72989440D01*
X139675610Y-72288400D01*
X139631332Y-72053083D01*
X139492260Y-71836959D01*
X139400190Y-71774050D01*
X141342110Y-71774050D01*
X141342110Y-71914329D01*
X141438783Y-72147718D01*
X141617411Y-72326347D01*
X141850800Y-72423020D01*
X142116810Y-72423020D01*
X142275560Y-72264270D01*
X142275560Y-71615300D01*
X141500860Y-71615300D01*
X141342110Y-71774050D01*
X139400190Y-71774050D01*
X139280060Y-71691969D01*
X139028170Y-71640960D01*
X138228070Y-71640960D01*
X137992753Y-71685238D01*
X137845000Y-71780314D01*
X137845000Y-70394897D01*
X137890883Y-70505943D01*
X138153673Y-70769192D01*
X138497201Y-70911838D01*
X138587635Y-70911917D01*
X138596740Y-70918000D01*
X138703041Y-70989028D01*
X138993880Y-71046880D01*
X141348485Y-71046880D01*
X141342110Y-71062271D01*
X141342110Y-71202550D01*
X141500860Y-71361300D01*
X142275560Y-71361300D01*
X142275560Y-71341300D01*
X142529560Y-71341300D01*
X142529560Y-71361300D01*
X143304260Y-71361300D01*
X143463010Y-71202550D01*
X143463010Y-71062271D01*
X143390744Y-70887807D01*
X143424441Y-70838490D01*
X143425391Y-70833801D01*
X143487673Y-70896192D01*
X143831201Y-71038838D01*
X144203167Y-71039162D01*
X144546943Y-70897117D01*
X144810192Y-70634327D01*
X144952838Y-70290799D01*
X144952858Y-70267570D01*
X146560540Y-70267570D01*
X146795857Y-70223292D01*
X146917200Y-70145210D01*
X146932838Y-70228317D01*
X147071910Y-70444441D01*
X147284110Y-70589431D01*
X147536000Y-70640440D01*
X149136000Y-70640440D01*
X149371317Y-70596162D01*
X149587441Y-70457090D01*
X149732431Y-70244890D01*
X149783440Y-69993000D01*
X149783440Y-67993000D01*
X149773533Y-67940347D01*
X149791167Y-67940362D01*
X150134943Y-67798317D01*
X150398192Y-67535527D01*
X150540838Y-67191999D01*
X150540879Y-67145123D01*
X150987602Y-66698400D01*
X152349200Y-66698400D01*
X152605200Y-66647478D01*
X152605200Y-69535198D01*
X152605200Y-69535198D01*
G37*
X152605200Y-69535198D02*
X151202199Y-70938199D01*
X151037452Y-71184761D01*
X150979600Y-71475600D01*
X150979600Y-75377198D01*
X150075920Y-76280878D01*
X150030433Y-76280838D01*
X149686657Y-76422883D01*
X149423408Y-76685673D01*
X149280762Y-77029201D01*
X149280438Y-77401167D01*
X149422483Y-77744943D01*
X149685273Y-78008192D01*
X150028801Y-78150838D01*
X150400767Y-78151162D01*
X150744543Y-78009117D01*
X151007792Y-77746327D01*
X151150438Y-77402799D01*
X151150479Y-77355923D01*
X151581712Y-76924690D01*
X153083000Y-76924690D01*
X153083000Y-77565250D01*
X153241750Y-77724000D01*
X154591000Y-77724000D01*
X154591000Y-76574750D01*
X154845000Y-76574750D01*
X154845000Y-77724000D01*
X156194250Y-77724000D01*
X156353000Y-77565250D01*
X156353000Y-76924690D01*
X156256327Y-76691301D01*
X156077698Y-76512673D01*
X155844309Y-76416000D01*
X155003750Y-76416000D01*
X154845000Y-76574750D01*
X154591000Y-76574750D01*
X154432250Y-76416000D01*
X153591691Y-76416000D01*
X153358302Y-76512673D01*
X153179673Y-76691301D01*
X153083000Y-76924690D01*
X151581712Y-76924690D01*
X152277001Y-76229401D01*
X152441748Y-75982840D01*
X152452201Y-75930291D01*
X152499600Y-75692000D01*
X152499600Y-71790402D01*
X152582441Y-71707561D01*
X152582438Y-71711567D01*
X152724483Y-72055343D01*
X152987273Y-72318592D01*
X153330801Y-72461238D01*
X153702767Y-72461562D01*
X154026013Y-72328000D01*
X154655116Y-72328000D01*
X154840000Y-72365440D01*
X156340000Y-72365440D01*
X156538976Y-72328000D01*
X156851198Y-72328000D01*
X156891586Y-72368388D01*
X156851673Y-72408302D01*
X156755000Y-72641691D01*
X156755000Y-73232250D01*
X156913750Y-73391000D01*
X157242560Y-73391000D01*
X157242560Y-73645000D01*
X156913750Y-73645000D01*
X156755000Y-73803750D01*
X156755000Y-74394309D01*
X156851673Y-74627698D01*
X157030301Y-74806327D01*
X157263690Y-74903000D01*
X157306250Y-74903000D01*
X157313390Y-74895860D01*
X157337852Y-75018839D01*
X157502599Y-75265401D01*
X157831599Y-75594401D01*
X158078160Y-75759148D01*
X158369000Y-75817000D01*
X159677198Y-75817000D01*
X159090638Y-76403560D01*
X157718000Y-76403560D01*
X157482683Y-76447838D01*
X157266559Y-76586910D01*
X157121569Y-76799110D01*
X157070560Y-77051000D01*
X157070560Y-78651000D01*
X157114838Y-78886317D01*
X157253910Y-79102441D01*
X157463372Y-79245560D01*
X157091000Y-79245560D01*
X156855683Y-79289838D01*
X156639559Y-79428910D01*
X156593031Y-79497006D01*
X156450698Y-79354673D01*
X156217309Y-79258000D01*
X155911907Y-79258000D01*
X156077698Y-79189327D01*
X156256327Y-79010699D01*
X156353000Y-78777310D01*
X156353000Y-78136750D01*
X156194250Y-77978000D01*
X154845000Y-77978000D01*
X154845000Y-77998000D01*
X154591000Y-77998000D01*
X154591000Y-77978000D01*
X153241750Y-77978000D01*
X153083000Y-78136750D01*
X153083000Y-78595839D01*
X152891599Y-78516362D01*
X152519633Y-78516038D01*
X152175857Y-78658083D01*
X152142682Y-78691200D01*
X150114000Y-78691200D01*
X149971966Y-78719453D01*
X149725633Y-78719238D01*
X149381857Y-78861283D01*
X149118608Y-79124073D01*
X148991365Y-79430506D01*
X148912833Y-79430438D01*
X148569057Y-79572483D01*
X148305808Y-79835273D01*
X148163162Y-80178801D01*
X148163086Y-80266000D01*
X147882463Y-80266000D01*
X147850327Y-80233808D01*
X147506799Y-80091162D01*
X147134833Y-80090838D01*
X146791057Y-80232883D01*
X146527808Y-80495673D01*
X146385162Y-80839201D01*
X146384838Y-81211167D01*
X146526883Y-81554943D01*
X146789673Y-81818192D01*
X147133201Y-81960838D01*
X147505167Y-81961162D01*
X147848943Y-81819117D01*
X147882118Y-81786000D01*
X152650514Y-81786000D01*
X152784073Y-81919792D01*
X153127601Y-82062438D01*
X153499567Y-82062762D01*
X153843343Y-81920717D01*
X154106592Y-81657927D01*
X154136317Y-81586342D01*
X154231302Y-81681327D01*
X154464691Y-81778000D01*
X155055250Y-81778000D01*
X155214000Y-81619250D01*
X155214000Y-80645000D01*
X155194000Y-80645000D01*
X155194000Y-80391000D01*
X155214000Y-80391000D01*
X155214000Y-80371000D01*
X155468000Y-80371000D01*
X155468000Y-80391000D01*
X155488000Y-80391000D01*
X155488000Y-80645000D01*
X155468000Y-80645000D01*
X155468000Y-81619250D01*
X155626750Y-81778000D01*
X156217309Y-81778000D01*
X156450698Y-81681327D01*
X156591936Y-81540090D01*
X156626910Y-81594441D01*
X156839110Y-81739431D01*
X157091000Y-81790440D01*
X157602388Y-81790440D01*
X157560657Y-81807683D01*
X157297408Y-82070473D01*
X157154762Y-82414001D01*
X157154721Y-82460877D01*
X156758798Y-82856800D01*
X154080063Y-82856800D01*
X154047927Y-82824608D01*
X153704399Y-82681962D01*
X153332433Y-82681638D01*
X152988657Y-82823683D01*
X152725408Y-83086473D01*
X152582762Y-83430001D01*
X152582642Y-83568000D01*
X151257000Y-83568000D01*
X150966160Y-83625852D01*
X150719599Y-83790599D01*
X145858791Y-88651407D01*
X145826346Y-88644953D01*
X145879141Y-88610980D01*
X146024131Y-88398780D01*
X146075140Y-88146890D01*
X146075140Y-87346790D01*
X146031290Y-87113748D01*
X146075140Y-86897210D01*
X146075140Y-86097110D01*
X146030862Y-85861793D01*
X145891790Y-85645669D01*
X145679590Y-85500679D01*
X145427700Y-85449670D01*
X143527780Y-85449670D01*
X143292463Y-85493948D01*
X143076339Y-85633020D01*
X143005183Y-85737160D01*
X141923605Y-85737160D01*
X141881327Y-85694808D01*
X141537799Y-85552162D01*
X141165833Y-85551838D01*
X140822057Y-85693883D01*
X140558808Y-85956673D01*
X140416162Y-86300201D01*
X140415838Y-86672167D01*
X140557883Y-87015943D01*
X140820673Y-87279192D01*
X141164201Y-87421838D01*
X141536167Y-87422162D01*
X141879943Y-87280117D01*
X141902940Y-87257160D01*
X142898491Y-87257160D01*
X142880340Y-87346790D01*
X142880340Y-88146890D01*
X142924618Y-88382207D01*
X143063690Y-88598331D01*
X143275890Y-88743321D01*
X143527780Y-88794330D01*
X144995836Y-88794330D01*
X144609330Y-89052585D01*
X144284474Y-89538766D01*
X144170400Y-90112255D01*
X144170400Y-90481745D01*
X144284474Y-91055234D01*
X144508158Y-91390000D01*
X141897084Y-91390000D01*
X141926050Y-91246960D01*
X141926050Y-89946480D01*
X141881772Y-89711163D01*
X141742700Y-89495039D01*
X141530500Y-89350049D01*
X141278610Y-89299040D01*
X137928350Y-89299040D01*
X137845000Y-89314723D01*
X137845000Y-84928081D01*
X137928350Y-84944960D01*
X141278610Y-84944960D01*
X141513927Y-84900682D01*
X141730051Y-84761610D01*
X141875041Y-84549410D01*
X141926050Y-84297520D01*
X141926050Y-82997040D01*
X141881772Y-82761723D01*
X141742700Y-82545599D01*
X141530500Y-82400609D01*
X141278610Y-82349600D01*
X137928350Y-82349600D01*
X137845000Y-82365283D01*
X137845000Y-80641260D01*
X137976180Y-80730891D01*
X138228070Y-80781900D01*
X139028170Y-80781900D01*
X139263487Y-80737622D01*
X139479611Y-80598550D01*
X139624601Y-80386350D01*
X139675610Y-80134460D01*
X139675610Y-79433420D01*
X139631332Y-79198103D01*
X139492260Y-78981979D01*
X139403907Y-78921610D01*
X141342110Y-78921610D01*
X141342110Y-79061889D01*
X141438783Y-79295278D01*
X141617411Y-79473907D01*
X141850800Y-79570580D01*
X142116810Y-79570580D01*
X142275560Y-79411830D01*
X142275560Y-78762860D01*
X142529560Y-78762860D01*
X142529560Y-79411830D01*
X142688310Y-79570580D01*
X142954320Y-79570580D01*
X143187709Y-79473907D01*
X143366337Y-79295278D01*
X143463010Y-79061889D01*
X143463010Y-78921610D01*
X143304260Y-78762860D01*
X142529560Y-78762860D01*
X142275560Y-78762860D01*
X141500860Y-78762860D01*
X141342110Y-78921610D01*
X139403907Y-78921610D01*
X139280060Y-78836989D01*
X139028170Y-78785980D01*
X138228070Y-78785980D01*
X137992753Y-78830258D01*
X137845000Y-78925334D01*
X137845000Y-74743380D01*
X137951377Y-74816064D01*
X137876162Y-74997201D01*
X137875838Y-75369167D01*
X138017883Y-75712943D01*
X138280673Y-75976192D01*
X138624201Y-76118838D01*
X138671077Y-76118879D01*
X139325159Y-76772961D01*
X139571720Y-76937708D01*
X139588557Y-76941057D01*
X139862560Y-76995560D01*
X140027602Y-76995560D01*
X139908162Y-77283201D01*
X139907838Y-77655167D01*
X140049883Y-77998943D01*
X140312673Y-78262192D01*
X140656201Y-78404838D01*
X141028167Y-78405162D01*
X141342110Y-78275444D01*
X141342110Y-78350110D01*
X141500860Y-78508860D01*
X142275560Y-78508860D01*
X142275560Y-78488860D01*
X142529560Y-78488860D01*
X142529560Y-78508860D01*
X143304260Y-78508860D01*
X143463010Y-78350110D01*
X143463010Y-78209831D01*
X143390744Y-78035367D01*
X143424441Y-77986050D01*
X143475450Y-77734160D01*
X143475450Y-77134720D01*
X143431172Y-76899403D01*
X143390715Y-76836530D01*
X143424441Y-76787170D01*
X143475450Y-76535280D01*
X143475450Y-75935840D01*
X143431172Y-75700523D01*
X143389873Y-75636342D01*
X143424441Y-75585750D01*
X143454896Y-75435358D01*
X143487673Y-75468192D01*
X143831201Y-75610838D01*
X144203167Y-75611162D01*
X144546943Y-75469117D01*
X144810192Y-75206327D01*
X144952838Y-74862799D01*
X144952879Y-74815923D01*
X145000352Y-74768450D01*
X146185248Y-74768450D01*
X146782599Y-75365801D01*
X147029161Y-75530548D01*
X147320000Y-75588400D01*
X149453600Y-75588400D01*
X149744439Y-75530548D01*
X149991001Y-75365801D01*
X150549801Y-74807001D01*
X150714548Y-74560439D01*
X150772400Y-74269600D01*
X150772400Y-72901663D01*
X150804592Y-72869527D01*
X150947238Y-72525999D01*
X150947562Y-72154033D01*
X150805517Y-71810257D01*
X150542727Y-71547008D01*
X150199199Y-71404362D01*
X149827233Y-71404038D01*
X149556803Y-71515777D01*
X149495699Y-71454673D01*
X149262310Y-71358000D01*
X148621750Y-71358000D01*
X148463000Y-71516750D01*
X148463000Y-72866000D01*
X148483000Y-72866000D01*
X148483000Y-73120000D01*
X148463000Y-73120000D01*
X148463000Y-73140000D01*
X148209000Y-73140000D01*
X148209000Y-73120000D01*
X148189000Y-73120000D01*
X148189000Y-72866000D01*
X148209000Y-72866000D01*
X148209000Y-71516750D01*
X148050250Y-71358000D01*
X147409690Y-71358000D01*
X147176301Y-71454673D01*
X146997673Y-71633302D01*
X146901000Y-71866691D01*
X146901000Y-72083956D01*
X146812430Y-72023439D01*
X146560540Y-71972430D01*
X143761460Y-71972430D01*
X143526143Y-72016708D01*
X143382250Y-72109301D01*
X143463010Y-71914329D01*
X143463010Y-71774050D01*
X143304260Y-71615300D01*
X142529560Y-71615300D01*
X142529560Y-72264270D01*
X142688310Y-72423020D01*
X142954320Y-72423020D01*
X143187709Y-72326347D01*
X143205916Y-72308140D01*
X143165029Y-72367980D01*
X143114020Y-72619870D01*
X143114020Y-73247878D01*
X142274918Y-74086980D01*
X141977110Y-74086980D01*
X141741793Y-74131258D01*
X141525669Y-74270330D01*
X141380679Y-74482530D01*
X141329670Y-74734420D01*
X141329670Y-75333860D01*
X141356333Y-75475560D01*
X140177362Y-75475560D01*
X139746122Y-75044320D01*
X139746162Y-74998833D01*
X139604117Y-74655057D01*
X139548705Y-74599548D01*
X139624601Y-74488470D01*
X139675610Y-74236580D01*
X139675610Y-73535540D01*
X139631332Y-73300223D01*
X139608551Y-73264820D01*
X139624601Y-73241330D01*
X139675610Y-72989440D01*
X139675610Y-72288400D01*
X139631332Y-72053083D01*
X139492260Y-71836959D01*
X139400190Y-71774050D01*
X141342110Y-71774050D01*
X141342110Y-71914329D01*
X141438783Y-72147718D01*
X141617411Y-72326347D01*
X141850800Y-72423020D01*
X142116810Y-72423020D01*
X142275560Y-72264270D01*
X142275560Y-71615300D01*
X141500860Y-71615300D01*
X141342110Y-71774050D01*
X139400190Y-71774050D01*
X139280060Y-71691969D01*
X139028170Y-71640960D01*
X138228070Y-71640960D01*
X137992753Y-71685238D01*
X137845000Y-71780314D01*
X137845000Y-70394897D01*
X137890883Y-70505943D01*
X138153673Y-70769192D01*
X138497201Y-70911838D01*
X138587635Y-70911917D01*
X138596740Y-70918000D01*
X138703041Y-70989028D01*
X138993880Y-71046880D01*
X141348485Y-71046880D01*
X141342110Y-71062271D01*
X141342110Y-71202550D01*
X141500860Y-71361300D01*
X142275560Y-71361300D01*
X142275560Y-71341300D01*
X142529560Y-71341300D01*
X142529560Y-71361300D01*
X143304260Y-71361300D01*
X143463010Y-71202550D01*
X143463010Y-71062271D01*
X143390744Y-70887807D01*
X143424441Y-70838490D01*
X143425391Y-70833801D01*
X143487673Y-70896192D01*
X143831201Y-71038838D01*
X144203167Y-71039162D01*
X144546943Y-70897117D01*
X144810192Y-70634327D01*
X144952838Y-70290799D01*
X144952858Y-70267570D01*
X146560540Y-70267570D01*
X146795857Y-70223292D01*
X146917200Y-70145210D01*
X146932838Y-70228317D01*
X147071910Y-70444441D01*
X147284110Y-70589431D01*
X147536000Y-70640440D01*
X149136000Y-70640440D01*
X149371317Y-70596162D01*
X149587441Y-70457090D01*
X149732431Y-70244890D01*
X149783440Y-69993000D01*
X149783440Y-67993000D01*
X149773533Y-67940347D01*
X149791167Y-67940362D01*
X150134943Y-67798317D01*
X150398192Y-67535527D01*
X150540838Y-67191999D01*
X150540879Y-67145123D01*
X150987602Y-66698400D01*
X152349200Y-66698400D01*
X152605200Y-66647478D01*
X152605200Y-69535198D01*
G36*
X172740000Y-89057890D02*
X172740000Y-89198450D01*
X172898750Y-89357200D01*
X174023000Y-89357200D01*
X174023000Y-89337200D01*
X174277000Y-89337200D01*
X174277000Y-89357200D01*
X174297000Y-89357200D01*
X174297000Y-89611200D01*
X174277000Y-89611200D01*
X174277000Y-89631200D01*
X174023000Y-89631200D01*
X174023000Y-89611200D01*
X172898750Y-89611200D01*
X172740000Y-89769950D01*
X172740000Y-89910510D01*
X172774666Y-89994200D01*
X172095002Y-89994200D01*
X171905200Y-89804398D01*
X171905200Y-89062402D01*
X171993402Y-88974200D01*
X172774666Y-88974200D01*
X172740000Y-89057890D01*
X172740000Y-89057890D01*
G37*
X172740000Y-89057890D02*
X172740000Y-89198450D01*
X172898750Y-89357200D01*
X174023000Y-89357200D01*
X174023000Y-89337200D01*
X174277000Y-89337200D01*
X174277000Y-89357200D01*
X174297000Y-89357200D01*
X174297000Y-89611200D01*
X174277000Y-89611200D01*
X174277000Y-89631200D01*
X174023000Y-89631200D01*
X174023000Y-89611200D01*
X172898750Y-89611200D01*
X172740000Y-89769950D01*
X172740000Y-89910510D01*
X172774666Y-89994200D01*
X172095002Y-89994200D01*
X171905200Y-89804398D01*
X171905200Y-89062402D01*
X171993402Y-88974200D01*
X172774666Y-88974200D01*
X172740000Y-89057890D01*
G36*
X180513990Y-89017531D02*
X180513990Y-89157810D01*
X180672740Y-89316560D01*
X181447440Y-89316560D01*
X181447440Y-89296560D01*
X181701440Y-89296560D01*
X181701440Y-89316560D01*
X181721440Y-89316560D01*
X181721440Y-89570560D01*
X181701440Y-89570560D01*
X181701440Y-89590560D01*
X181447440Y-89590560D01*
X181447440Y-89570560D01*
X180672740Y-89570560D01*
X180513990Y-89729310D01*
X180513990Y-89869589D01*
X180519313Y-89882440D01*
X178469962Y-89882440D01*
X179368802Y-88983600D01*
X180528045Y-88983600D01*
X180513990Y-89017531D01*
X180513990Y-89017531D01*
G37*
X180513990Y-89017531D02*
X180513990Y-89157810D01*
X180672740Y-89316560D01*
X181447440Y-89316560D01*
X181447440Y-89296560D01*
X181701440Y-89296560D01*
X181701440Y-89316560D01*
X181721440Y-89316560D01*
X181721440Y-89570560D01*
X181701440Y-89570560D01*
X181701440Y-89590560D01*
X181447440Y-89590560D01*
X181447440Y-89570560D01*
X180672740Y-89570560D01*
X180513990Y-89729310D01*
X180513990Y-89869589D01*
X180519313Y-89882440D01*
X178469962Y-89882440D01*
X179368802Y-88983600D01*
X180528045Y-88983600D01*
X180513990Y-89017531D01*
G36*
X150161495Y-48351000D02*
X162055305Y-48351000D01*
X162055305Y-43230000D01*
X170198198Y-43230000D01*
X169738198Y-43690000D01*
X166116000Y-43690000D01*
X165825161Y-43747852D01*
X165578599Y-43912599D01*
X163630599Y-45860599D01*
X163465852Y-46107161D01*
X163408000Y-46398000D01*
X163408000Y-55524838D01*
X163402683Y-55525838D01*
X163186559Y-55664910D01*
X163066767Y-55840232D01*
X162962090Y-55677559D01*
X162749890Y-55532569D01*
X162498000Y-55481560D01*
X161438000Y-55481560D01*
X161202683Y-55525838D01*
X160986559Y-55664910D01*
X160966683Y-55694000D01*
X160843000Y-55694000D01*
X160780000Y-55706532D01*
X160780000Y-54797802D01*
X161446401Y-54131401D01*
X161568285Y-53948989D01*
X161769317Y-53911162D01*
X161985441Y-53772090D01*
X162130431Y-53559890D01*
X162181440Y-53308000D01*
X162181440Y-51808000D01*
X162137162Y-51572683D01*
X161998090Y-51356559D01*
X161929994Y-51310031D01*
X162072327Y-51167698D01*
X162169000Y-50934309D01*
X162169000Y-50343750D01*
X162010250Y-50185000D01*
X161036000Y-50185000D01*
X161036000Y-50205000D01*
X160782000Y-50205000D01*
X160782000Y-50185000D01*
X159807750Y-50185000D01*
X159649000Y-50343750D01*
X159649000Y-50934309D01*
X159745673Y-51167698D01*
X159886910Y-51308936D01*
X159832559Y-51343910D01*
X159687569Y-51556110D01*
X159636560Y-51808000D01*
X159636560Y-52755638D01*
X159483845Y-52908353D01*
X159379090Y-52745559D01*
X159166890Y-52600569D01*
X158915000Y-52549560D01*
X157315000Y-52549560D01*
X157079683Y-52593838D01*
X156863559Y-52732910D01*
X156718569Y-52945110D01*
X156667560Y-53197000D01*
X156667560Y-55197000D01*
X156711838Y-55432317D01*
X156850910Y-55648441D01*
X157063110Y-55793431D01*
X157315000Y-55844440D01*
X158915000Y-55844440D01*
X159150317Y-55800162D01*
X159260000Y-55729583D01*
X159260000Y-58803000D01*
X156270802Y-58803000D01*
X155954000Y-58486198D01*
X155954000Y-54253844D01*
X156020441Y-54211090D01*
X156165431Y-53998890D01*
X156216440Y-53747000D01*
X156216440Y-52547000D01*
X156172162Y-52311683D01*
X156105671Y-52208354D01*
X156107327Y-52206698D01*
X156204000Y-51973309D01*
X156204000Y-51532750D01*
X156045250Y-51374000D01*
X155321000Y-51374000D01*
X155321000Y-51394000D01*
X155067000Y-51394000D01*
X155067000Y-51374000D01*
X154342750Y-51374000D01*
X154184000Y-51532750D01*
X154184000Y-51973309D01*
X154280673Y-52206698D01*
X154282043Y-52208068D01*
X154222569Y-52295110D01*
X154171560Y-52547000D01*
X154171560Y-53747000D01*
X154215838Y-53982317D01*
X154354910Y-54198441D01*
X154434000Y-54252481D01*
X154434000Y-58801000D01*
X154451431Y-58888629D01*
X153414000Y-57851198D01*
X153414000Y-57241440D01*
X153454000Y-57241440D01*
X153689317Y-57197162D01*
X153905441Y-57058090D01*
X154050431Y-56845890D01*
X154101440Y-56594000D01*
X154101440Y-54594000D01*
X154057162Y-54358683D01*
X153918090Y-54142559D01*
X153705890Y-53997569D01*
X153454000Y-53946560D01*
X151854000Y-53946560D01*
X151618683Y-53990838D01*
X151402559Y-54129910D01*
X151257569Y-54342110D01*
X151206560Y-54594000D01*
X151206560Y-56594000D01*
X151250838Y-56829317D01*
X151253941Y-56834139D01*
X150926440Y-56506638D01*
X150926440Y-54721000D01*
X150882162Y-54485683D01*
X150743090Y-54269559D01*
X150530890Y-54124569D01*
X150279000Y-54073560D01*
X148679000Y-54073560D01*
X148443683Y-54117838D01*
X148227559Y-54256910D01*
X148082569Y-54469110D01*
X148031560Y-54721000D01*
X148031560Y-56721000D01*
X148075838Y-56956317D01*
X148214910Y-57172441D01*
X148406809Y-57303560D01*
X147177000Y-57303560D01*
X146941683Y-57347838D01*
X146725559Y-57486910D01*
X146580569Y-57699110D01*
X146529560Y-57951000D01*
X146529560Y-59651000D01*
X146573838Y-59886317D01*
X146712910Y-60102441D01*
X146925110Y-60247431D01*
X147177000Y-60298440D01*
X147417000Y-60298440D01*
X147417000Y-63148059D01*
X147401162Y-63186201D01*
X147400838Y-63558167D01*
X147542883Y-63901943D01*
X147805673Y-64165192D01*
X148149201Y-64307838D01*
X148521167Y-64308162D01*
X148864943Y-64166117D01*
X149128192Y-63903327D01*
X149270838Y-63559799D01*
X149271162Y-63187833D01*
X149129117Y-62844057D01*
X148937000Y-62651604D01*
X148937000Y-60298440D01*
X149177000Y-60298440D01*
X149412317Y-60254162D01*
X149628441Y-60115090D01*
X149773431Y-59902890D01*
X149824440Y-59651000D01*
X149824440Y-57951000D01*
X149780162Y-57715683D01*
X149641090Y-57499559D01*
X149449191Y-57368440D01*
X149638638Y-57368440D01*
X153386599Y-61116401D01*
X153633160Y-61281148D01*
X153924000Y-61339000D01*
X156755000Y-61339000D01*
X156755000Y-61832250D01*
X156913750Y-61991000D01*
X157687000Y-61991000D01*
X157687000Y-62245000D01*
X156913750Y-62245000D01*
X156755000Y-62403750D01*
X156755000Y-62994309D01*
X156851673Y-63227698D01*
X157030301Y-63406327D01*
X157263690Y-63503000D01*
X157306250Y-63503000D01*
X157465000Y-63344250D01*
X157465000Y-63341026D01*
X157530301Y-63406327D01*
X157763690Y-63503000D01*
X157816310Y-63503000D01*
X158049699Y-63406327D01*
X158051068Y-63404958D01*
X158138110Y-63464431D01*
X158259830Y-63489080D01*
X158273750Y-63503000D01*
X158316310Y-63503000D01*
X158320335Y-63501333D01*
X158390000Y-63515440D01*
X158690000Y-63515440D01*
X158793671Y-63495933D01*
X158890000Y-63515440D01*
X159190000Y-63515440D01*
X159293671Y-63495933D01*
X159390000Y-63515440D01*
X159690000Y-63515440D01*
X159793671Y-63495933D01*
X159890000Y-63515440D01*
X160190000Y-63515440D01*
X160293671Y-63495933D01*
X160390000Y-63515440D01*
X160690000Y-63515440D01*
X160761323Y-63502020D01*
X160763690Y-63503000D01*
X160806250Y-63503000D01*
X160817871Y-63491379D01*
X160925317Y-63471162D01*
X161039978Y-63397380D01*
X161138110Y-63464431D01*
X161259830Y-63489080D01*
X161273750Y-63503000D01*
X161316310Y-63503000D01*
X161320335Y-63501333D01*
X161390000Y-63515440D01*
X161690000Y-63515440D01*
X161761323Y-63502020D01*
X161763690Y-63503000D01*
X161806250Y-63503000D01*
X161817871Y-63491379D01*
X161912998Y-63473480D01*
X161912998Y-63503000D01*
X161998322Y-63503000D01*
X162002599Y-63509401D01*
X162784599Y-64291401D01*
X163031161Y-64456148D01*
X163322000Y-64514000D01*
X165481000Y-64514000D01*
X165592560Y-64491809D01*
X165592560Y-64718000D01*
X165612067Y-64821671D01*
X165592560Y-64918000D01*
X165592560Y-65218000D01*
X165612067Y-65321671D01*
X165592560Y-65418000D01*
X165592560Y-65718000D01*
X165612067Y-65821671D01*
X165592560Y-65918000D01*
X165592560Y-66218000D01*
X165612067Y-66321671D01*
X165592560Y-66418000D01*
X165592560Y-66718000D01*
X165612067Y-66821671D01*
X165592560Y-66918000D01*
X165592560Y-67218000D01*
X165609495Y-67308000D01*
X165459600Y-67308000D01*
X165168761Y-67365852D01*
X164922199Y-67530599D01*
X164350720Y-68102078D01*
X164305233Y-68102038D01*
X163961457Y-68244083D01*
X163698208Y-68506873D01*
X163555562Y-68850401D01*
X163555238Y-69222367D01*
X163697283Y-69566143D01*
X163960073Y-69829392D01*
X164303601Y-69972038D01*
X164675567Y-69972362D01*
X165019343Y-69830317D01*
X165282592Y-69567527D01*
X165425238Y-69223999D01*
X165425279Y-69177123D01*
X165592560Y-69009842D01*
X165592560Y-69218000D01*
X165612067Y-69321671D01*
X165592560Y-69418000D01*
X165592560Y-69718000D01*
X165612067Y-69821671D01*
X165592560Y-69918000D01*
X165592560Y-70218000D01*
X165612067Y-70321671D01*
X165592560Y-70418000D01*
X165592560Y-70718000D01*
X165612067Y-70821671D01*
X165592560Y-70918000D01*
X165592560Y-71218000D01*
X165612067Y-71321671D01*
X165592560Y-71418000D01*
X165592560Y-71718000D01*
X165636838Y-71953317D01*
X165775910Y-72169441D01*
X165988110Y-72314431D01*
X166230000Y-72363415D01*
X166230000Y-72623598D01*
X165883399Y-72970199D01*
X165837440Y-73038982D01*
X165837440Y-72768000D01*
X165793162Y-72532683D01*
X165654090Y-72316559D01*
X165441890Y-72171569D01*
X165190000Y-72120560D01*
X164890000Y-72120560D01*
X164786329Y-72140067D01*
X164690000Y-72120560D01*
X164390000Y-72120560D01*
X164286329Y-72140067D01*
X164190000Y-72120560D01*
X163890000Y-72120560D01*
X163786329Y-72140067D01*
X163690000Y-72120560D01*
X163390000Y-72120560D01*
X163286329Y-72140067D01*
X163190000Y-72120560D01*
X162890000Y-72120560D01*
X162786329Y-72140067D01*
X162690000Y-72120560D01*
X162390000Y-72120560D01*
X162318677Y-72133980D01*
X162316310Y-72133000D01*
X162273750Y-72133000D01*
X162262129Y-72144621D01*
X162154683Y-72164838D01*
X162051354Y-72231328D01*
X162049699Y-72229673D01*
X161816310Y-72133000D01*
X161773346Y-72133000D01*
X161742148Y-71976161D01*
X161577401Y-71729599D01*
X161319401Y-71471599D01*
X161072839Y-71306852D01*
X160971775Y-71286749D01*
X161005638Y-71205199D01*
X161005962Y-70833233D01*
X160863917Y-70489457D01*
X160601127Y-70226208D01*
X160257599Y-70083562D01*
X159885633Y-70083238D01*
X159541857Y-70225283D01*
X159458996Y-70308000D01*
X157988825Y-70308000D01*
X158161343Y-70236717D01*
X158424592Y-69973927D01*
X158567238Y-69630399D01*
X158567562Y-69258433D01*
X158425517Y-68914657D01*
X158380697Y-68869759D01*
X158465638Y-68665199D01*
X158465962Y-68293233D01*
X158323917Y-67949457D01*
X158263940Y-67889376D01*
X158477967Y-67889562D01*
X158821743Y-67747517D01*
X159084992Y-67484727D01*
X159227638Y-67141199D01*
X159227911Y-66828000D01*
X159485665Y-66828000D01*
X159591273Y-66933792D01*
X159934801Y-67076438D01*
X160306767Y-67076762D01*
X160650543Y-66934717D01*
X160913792Y-66671927D01*
X161056438Y-66328399D01*
X161056762Y-65956433D01*
X160914717Y-65612657D01*
X160651927Y-65349408D01*
X160308399Y-65206762D01*
X160193063Y-65206662D01*
X160193162Y-65092833D01*
X160051117Y-64749057D01*
X159788327Y-64485808D01*
X159444799Y-64343162D01*
X159072833Y-64342838D01*
X158729057Y-64484883D01*
X158465808Y-64747673D01*
X158440758Y-64808000D01*
X156969215Y-64808000D01*
X156987440Y-64718000D01*
X156987440Y-64418000D01*
X156974020Y-64346677D01*
X156975000Y-64344310D01*
X156975000Y-64301750D01*
X156963379Y-64290129D01*
X156943162Y-64182683D01*
X156819204Y-63990046D01*
X156975000Y-63834250D01*
X156975000Y-63791690D01*
X156878327Y-63558301D01*
X156699698Y-63379673D01*
X156466309Y-63283000D01*
X155875750Y-63283000D01*
X155717000Y-63441750D01*
X155717000Y-63770560D01*
X155463000Y-63770560D01*
X155463000Y-63441750D01*
X155304250Y-63283000D01*
X154713691Y-63283000D01*
X154480302Y-63379673D01*
X154301673Y-63558301D01*
X154205000Y-63791690D01*
X154205000Y-63808000D01*
X153719600Y-63808000D01*
X153428760Y-63865852D01*
X153182199Y-64030599D01*
X152387921Y-64824877D01*
X152304117Y-64622057D01*
X152271000Y-64588882D01*
X152271000Y-63300463D01*
X152303192Y-63268327D01*
X152445838Y-62924799D01*
X152446162Y-62552833D01*
X152304117Y-62209057D01*
X152041327Y-61945808D01*
X151697799Y-61803162D01*
X151325833Y-61802838D01*
X150982057Y-61944883D01*
X150718808Y-62207673D01*
X150576162Y-62551201D01*
X150575838Y-62923167D01*
X150717883Y-63266943D01*
X150751000Y-63300118D01*
X150751000Y-64588537D01*
X150718808Y-64620673D01*
X150576162Y-64964201D01*
X150575959Y-65197663D01*
X150381961Y-65236252D01*
X150135399Y-65400999D01*
X149466320Y-66070078D01*
X149420833Y-66070038D01*
X149077057Y-66212083D01*
X148813808Y-66474873D01*
X148671162Y-66818401D01*
X148670838Y-67190367D01*
X148734962Y-67345560D01*
X147536000Y-67345560D01*
X147300683Y-67389838D01*
X147084559Y-67528910D01*
X147000907Y-67651339D01*
X146812430Y-67522559D01*
X146560540Y-67471550D01*
X143761460Y-67471550D01*
X143526143Y-67515828D01*
X143468577Y-67552871D01*
X143431172Y-67354083D01*
X143389873Y-67289902D01*
X143424441Y-67239310D01*
X143475450Y-66987420D01*
X143475450Y-66387980D01*
X143431172Y-66152663D01*
X143292100Y-65936539D01*
X143079900Y-65791549D01*
X142828010Y-65740540D01*
X141977110Y-65740540D01*
X141741793Y-65784818D01*
X141525669Y-65923890D01*
X141380679Y-66136090D01*
X141329670Y-66387980D01*
X141329670Y-66501870D01*
X141292833Y-66501838D01*
X140949057Y-66643883D01*
X140685808Y-66906673D01*
X140543162Y-67250201D01*
X140542838Y-67622167D01*
X140650080Y-67881714D01*
X140543162Y-68139201D01*
X140542838Y-68511167D01*
X140684883Y-68854943D01*
X140762539Y-68932734D01*
X140670162Y-69155201D01*
X140669838Y-69526880D01*
X139509686Y-69526880D01*
X139477117Y-69448057D01*
X139214327Y-69184808D01*
X138870799Y-69042162D01*
X138498833Y-69041838D01*
X138155057Y-69183883D01*
X137891808Y-69446673D01*
X137845000Y-69559399D01*
X137845000Y-66394400D01*
X137976180Y-66484031D01*
X138228070Y-66535040D01*
X139028170Y-66535040D01*
X139263487Y-66490762D01*
X139479611Y-66351690D01*
X139624601Y-66139490D01*
X139675610Y-65887600D01*
X139675610Y-65186560D01*
X139631332Y-64951243D01*
X139492260Y-64735119D01*
X139280060Y-64590129D01*
X139028170Y-64539120D01*
X138228070Y-64539120D01*
X137992753Y-64583398D01*
X137845000Y-64678474D01*
X137845000Y-61276055D01*
X138051540Y-61317880D01*
X138856078Y-61317880D01*
X140161878Y-62623680D01*
X140161838Y-62669167D01*
X140303883Y-63012943D01*
X140566673Y-63276192D01*
X140910201Y-63418838D01*
X141282167Y-63419162D01*
X141625943Y-63277117D01*
X141889192Y-63014327D01*
X142031838Y-62670799D01*
X142032162Y-62298833D01*
X141976678Y-62164551D01*
X142143192Y-61998327D01*
X142285838Y-61654799D01*
X142286162Y-61282833D01*
X142144117Y-60939057D01*
X141975674Y-60770320D01*
X141995900Y-60670440D01*
X141995900Y-59471560D01*
X141951622Y-59236243D01*
X141812550Y-59020119D01*
X141600350Y-58875129D01*
X141348460Y-58824120D01*
X140149580Y-58824120D01*
X140126866Y-58828394D01*
X140127025Y-58646312D01*
X140149580Y-58650880D01*
X141348460Y-58650880D01*
X141583777Y-58606602D01*
X141799901Y-58467530D01*
X141944891Y-58255330D01*
X141995900Y-58003440D01*
X141995900Y-56804560D01*
X141951622Y-56569243D01*
X141828433Y-56377802D01*
X141904838Y-56193799D01*
X141905025Y-55979600D01*
X142636398Y-55979600D01*
X143417000Y-56760202D01*
X143417000Y-57303560D01*
X143177000Y-57303560D01*
X142941683Y-57347838D01*
X142725559Y-57486910D01*
X142580569Y-57699110D01*
X142529560Y-57951000D01*
X142529560Y-59651000D01*
X142573838Y-59886317D01*
X142712910Y-60102441D01*
X142925110Y-60247431D01*
X143177000Y-60298440D01*
X143417000Y-60298440D01*
X143417000Y-60992000D01*
X143474852Y-61282839D01*
X143639599Y-61529401D01*
X144098878Y-61988680D01*
X144098838Y-62034167D01*
X144240883Y-62377943D01*
X144503673Y-62641192D01*
X144847201Y-62783838D01*
X145219167Y-62784162D01*
X145562943Y-62642117D01*
X145826192Y-62379327D01*
X145968838Y-62035799D01*
X145969162Y-61663833D01*
X145827117Y-61320057D01*
X145564327Y-61056808D01*
X145220799Y-60914162D01*
X145173923Y-60914121D01*
X144937000Y-60677198D01*
X144937000Y-60298440D01*
X145177000Y-60298440D01*
X145412317Y-60254162D01*
X145628441Y-60115090D01*
X145773431Y-59902890D01*
X145824440Y-59651000D01*
X145824440Y-57951000D01*
X145780162Y-57715683D01*
X145641090Y-57499559D01*
X145428890Y-57354569D01*
X145177000Y-57303560D01*
X144937000Y-57303560D01*
X144937000Y-56445400D01*
X144879148Y-56154561D01*
X144714401Y-55907999D01*
X143488601Y-54682199D01*
X143242039Y-54517452D01*
X142951200Y-54459600D01*
X142656680Y-54459600D01*
X142656680Y-53529180D01*
X142497930Y-53370430D01*
X141348680Y-53370430D01*
X141348680Y-53390430D01*
X141094680Y-53390430D01*
X141094680Y-53370430D01*
X139945430Y-53370430D01*
X139786680Y-53529180D01*
X139786680Y-54180678D01*
X139240800Y-53634798D01*
X139240800Y-52027121D01*
X139786680Y-52027121D01*
X139786680Y-52957680D01*
X139945430Y-53116430D01*
X141094680Y-53116430D01*
X141094680Y-51677180D01*
X141348680Y-51677180D01*
X141348680Y-53116430D01*
X142497930Y-53116430D01*
X142656680Y-52957680D01*
X142656680Y-52027121D01*
X142648243Y-52006750D01*
X148044000Y-52006750D01*
X148044000Y-52847309D01*
X148140673Y-53080698D01*
X148319301Y-53259327D01*
X148552690Y-53356000D01*
X149193250Y-53356000D01*
X149352000Y-53197250D01*
X149352000Y-51848000D01*
X149606000Y-51848000D01*
X149606000Y-53197250D01*
X149764750Y-53356000D01*
X150405310Y-53356000D01*
X150638699Y-53259327D01*
X150817327Y-53080698D01*
X150914000Y-52847309D01*
X150914000Y-52006750D01*
X150787000Y-51879750D01*
X151219000Y-51879750D01*
X151219000Y-52720309D01*
X151315673Y-52953698D01*
X151494301Y-53132327D01*
X151727690Y-53229000D01*
X152368250Y-53229000D01*
X152527000Y-53070250D01*
X152527000Y-51721000D01*
X152781000Y-51721000D01*
X152781000Y-53070250D01*
X152939750Y-53229000D01*
X153580310Y-53229000D01*
X153813699Y-53132327D01*
X153992327Y-52953698D01*
X154089000Y-52720309D01*
X154089000Y-51879750D01*
X153930250Y-51721000D01*
X152781000Y-51721000D01*
X152527000Y-51721000D01*
X151377750Y-51721000D01*
X151219000Y-51879750D01*
X150787000Y-51879750D01*
X150755250Y-51848000D01*
X149606000Y-51848000D01*
X149352000Y-51848000D01*
X148202750Y-51848000D01*
X148044000Y-52006750D01*
X142648243Y-52006750D01*
X142560007Y-51793732D01*
X142381379Y-51615103D01*
X142147990Y-51518430D01*
X141507430Y-51518430D01*
X141348680Y-51677180D01*
X141094680Y-51677180D01*
X140935930Y-51518430D01*
X140295370Y-51518430D01*
X140061981Y-51615103D01*
X139883353Y-51793732D01*
X139786680Y-52027121D01*
X139240800Y-52027121D01*
X139240800Y-50594691D01*
X148044000Y-50594691D01*
X148044000Y-51435250D01*
X148202750Y-51594000D01*
X149352000Y-51594000D01*
X149352000Y-50244750D01*
X149606000Y-50244750D01*
X149606000Y-51594000D01*
X150755250Y-51594000D01*
X150914000Y-51435250D01*
X150914000Y-50594691D01*
X150861395Y-50467691D01*
X151219000Y-50467691D01*
X151219000Y-51308250D01*
X151377750Y-51467000D01*
X152527000Y-51467000D01*
X152527000Y-50117750D01*
X152781000Y-50117750D01*
X152781000Y-51467000D01*
X153930250Y-51467000D01*
X154089000Y-51308250D01*
X154089000Y-50520691D01*
X154184000Y-50520691D01*
X154184000Y-50961250D01*
X154342750Y-51120000D01*
X155067000Y-51120000D01*
X155067000Y-50170750D01*
X155321000Y-50170750D01*
X155321000Y-51120000D01*
X156045250Y-51120000D01*
X156204000Y-50961250D01*
X156204000Y-50520691D01*
X156188285Y-50482750D01*
X156680000Y-50482750D01*
X156680000Y-51323309D01*
X156776673Y-51556698D01*
X156955301Y-51735327D01*
X157188690Y-51832000D01*
X157829250Y-51832000D01*
X157988000Y-51673250D01*
X157988000Y-50324000D01*
X158242000Y-50324000D01*
X158242000Y-51673250D01*
X158400750Y-51832000D01*
X159041310Y-51832000D01*
X159274699Y-51735327D01*
X159453327Y-51556698D01*
X159550000Y-51323309D01*
X159550000Y-50482750D01*
X159391250Y-50324000D01*
X158242000Y-50324000D01*
X157988000Y-50324000D01*
X156838750Y-50324000D01*
X156680000Y-50482750D01*
X156188285Y-50482750D01*
X156107327Y-50287302D01*
X155928699Y-50108673D01*
X155695310Y-50012000D01*
X155479750Y-50012000D01*
X155321000Y-50170750D01*
X155067000Y-50170750D01*
X154908250Y-50012000D01*
X154692690Y-50012000D01*
X154459301Y-50108673D01*
X154280673Y-50287302D01*
X154184000Y-50520691D01*
X154089000Y-50520691D01*
X154089000Y-50467691D01*
X153992327Y-50234302D01*
X153813699Y-50055673D01*
X153580310Y-49959000D01*
X152939750Y-49959000D01*
X152781000Y-50117750D01*
X152527000Y-50117750D01*
X152368250Y-49959000D01*
X151727690Y-49959000D01*
X151494301Y-50055673D01*
X151315673Y-50234302D01*
X151219000Y-50467691D01*
X150861395Y-50467691D01*
X150817327Y-50361302D01*
X150638699Y-50182673D01*
X150405310Y-50086000D01*
X149764750Y-50086000D01*
X149606000Y-50244750D01*
X149352000Y-50244750D01*
X149193250Y-50086000D01*
X148552690Y-50086000D01*
X148319301Y-50182673D01*
X148140673Y-50361302D01*
X148044000Y-50594691D01*
X139240800Y-50594691D01*
X139240800Y-49070691D01*
X156680000Y-49070691D01*
X156680000Y-49911250D01*
X156838750Y-50070000D01*
X157988000Y-50070000D01*
X157988000Y-48720750D01*
X158242000Y-48720750D01*
X158242000Y-50070000D01*
X159391250Y-50070000D01*
X159550000Y-49911250D01*
X159550000Y-49181691D01*
X159649000Y-49181691D01*
X159649000Y-49772250D01*
X159807750Y-49931000D01*
X160782000Y-49931000D01*
X160782000Y-48831750D01*
X161036000Y-48831750D01*
X161036000Y-49931000D01*
X162010250Y-49931000D01*
X162169000Y-49772250D01*
X162169000Y-49181691D01*
X162072327Y-48948302D01*
X161893699Y-48769673D01*
X161660310Y-48673000D01*
X161194750Y-48673000D01*
X161036000Y-48831750D01*
X160782000Y-48831750D01*
X160623250Y-48673000D01*
X160157690Y-48673000D01*
X159924301Y-48769673D01*
X159745673Y-48948302D01*
X159649000Y-49181691D01*
X159550000Y-49181691D01*
X159550000Y-49070691D01*
X159453327Y-48837302D01*
X159274699Y-48658673D01*
X159041310Y-48562000D01*
X158400750Y-48562000D01*
X158242000Y-48720750D01*
X157988000Y-48720750D01*
X157829250Y-48562000D01*
X157188690Y-48562000D01*
X156955301Y-48658673D01*
X156776673Y-48837302D01*
X156680000Y-49070691D01*
X139240800Y-49070691D01*
X139240800Y-45323602D01*
X139765832Y-44798570D01*
X139778880Y-44798570D01*
X139778880Y-45128570D01*
X139823158Y-45363887D01*
X139962230Y-45580011D01*
X140174430Y-45725001D01*
X140426320Y-45776010D01*
X142026320Y-45776010D01*
X142261637Y-45731732D01*
X142477761Y-45592660D01*
X142622751Y-45380460D01*
X142673760Y-45128570D01*
X142673760Y-43230000D01*
X150161495Y-43230000D01*
X150161495Y-48351000D01*
X150161495Y-48351000D01*
G37*
X150161495Y-48351000D02*
X162055305Y-48351000D01*
X162055305Y-43230000D01*
X170198198Y-43230000D01*
X169738198Y-43690000D01*
X166116000Y-43690000D01*
X165825161Y-43747852D01*
X165578599Y-43912599D01*
X163630599Y-45860599D01*
X163465852Y-46107161D01*
X163408000Y-46398000D01*
X163408000Y-55524838D01*
X163402683Y-55525838D01*
X163186559Y-55664910D01*
X163066767Y-55840232D01*
X162962090Y-55677559D01*
X162749890Y-55532569D01*
X162498000Y-55481560D01*
X161438000Y-55481560D01*
X161202683Y-55525838D01*
X160986559Y-55664910D01*
X160966683Y-55694000D01*
X160843000Y-55694000D01*
X160780000Y-55706532D01*
X160780000Y-54797802D01*
X161446401Y-54131401D01*
X161568285Y-53948989D01*
X161769317Y-53911162D01*
X161985441Y-53772090D01*
X162130431Y-53559890D01*
X162181440Y-53308000D01*
X162181440Y-51808000D01*
X162137162Y-51572683D01*
X161998090Y-51356559D01*
X161929994Y-51310031D01*
X162072327Y-51167698D01*
X162169000Y-50934309D01*
X162169000Y-50343750D01*
X162010250Y-50185000D01*
X161036000Y-50185000D01*
X161036000Y-50205000D01*
X160782000Y-50205000D01*
X160782000Y-50185000D01*
X159807750Y-50185000D01*
X159649000Y-50343750D01*
X159649000Y-50934309D01*
X159745673Y-51167698D01*
X159886910Y-51308936D01*
X159832559Y-51343910D01*
X159687569Y-51556110D01*
X159636560Y-51808000D01*
X159636560Y-52755638D01*
X159483845Y-52908353D01*
X159379090Y-52745559D01*
X159166890Y-52600569D01*
X158915000Y-52549560D01*
X157315000Y-52549560D01*
X157079683Y-52593838D01*
X156863559Y-52732910D01*
X156718569Y-52945110D01*
X156667560Y-53197000D01*
X156667560Y-55197000D01*
X156711838Y-55432317D01*
X156850910Y-55648441D01*
X157063110Y-55793431D01*
X157315000Y-55844440D01*
X158915000Y-55844440D01*
X159150317Y-55800162D01*
X159260000Y-55729583D01*
X159260000Y-58803000D01*
X156270802Y-58803000D01*
X155954000Y-58486198D01*
X155954000Y-54253844D01*
X156020441Y-54211090D01*
X156165431Y-53998890D01*
X156216440Y-53747000D01*
X156216440Y-52547000D01*
X156172162Y-52311683D01*
X156105671Y-52208354D01*
X156107327Y-52206698D01*
X156204000Y-51973309D01*
X156204000Y-51532750D01*
X156045250Y-51374000D01*
X155321000Y-51374000D01*
X155321000Y-51394000D01*
X155067000Y-51394000D01*
X155067000Y-51374000D01*
X154342750Y-51374000D01*
X154184000Y-51532750D01*
X154184000Y-51973309D01*
X154280673Y-52206698D01*
X154282043Y-52208068D01*
X154222569Y-52295110D01*
X154171560Y-52547000D01*
X154171560Y-53747000D01*
X154215838Y-53982317D01*
X154354910Y-54198441D01*
X154434000Y-54252481D01*
X154434000Y-58801000D01*
X154451431Y-58888629D01*
X153414000Y-57851198D01*
X153414000Y-57241440D01*
X153454000Y-57241440D01*
X153689317Y-57197162D01*
X153905441Y-57058090D01*
X154050431Y-56845890D01*
X154101440Y-56594000D01*
X154101440Y-54594000D01*
X154057162Y-54358683D01*
X153918090Y-54142559D01*
X153705890Y-53997569D01*
X153454000Y-53946560D01*
X151854000Y-53946560D01*
X151618683Y-53990838D01*
X151402559Y-54129910D01*
X151257569Y-54342110D01*
X151206560Y-54594000D01*
X151206560Y-56594000D01*
X151250838Y-56829317D01*
X151253941Y-56834139D01*
X150926440Y-56506638D01*
X150926440Y-54721000D01*
X150882162Y-54485683D01*
X150743090Y-54269559D01*
X150530890Y-54124569D01*
X150279000Y-54073560D01*
X148679000Y-54073560D01*
X148443683Y-54117838D01*
X148227559Y-54256910D01*
X148082569Y-54469110D01*
X148031560Y-54721000D01*
X148031560Y-56721000D01*
X148075838Y-56956317D01*
X148214910Y-57172441D01*
X148406809Y-57303560D01*
X147177000Y-57303560D01*
X146941683Y-57347838D01*
X146725559Y-57486910D01*
X146580569Y-57699110D01*
X146529560Y-57951000D01*
X146529560Y-59651000D01*
X146573838Y-59886317D01*
X146712910Y-60102441D01*
X146925110Y-60247431D01*
X147177000Y-60298440D01*
X147417000Y-60298440D01*
X147417000Y-63148059D01*
X147401162Y-63186201D01*
X147400838Y-63558167D01*
X147542883Y-63901943D01*
X147805673Y-64165192D01*
X148149201Y-64307838D01*
X148521167Y-64308162D01*
X148864943Y-64166117D01*
X149128192Y-63903327D01*
X149270838Y-63559799D01*
X149271162Y-63187833D01*
X149129117Y-62844057D01*
X148937000Y-62651604D01*
X148937000Y-60298440D01*
X149177000Y-60298440D01*
X149412317Y-60254162D01*
X149628441Y-60115090D01*
X149773431Y-59902890D01*
X149824440Y-59651000D01*
X149824440Y-57951000D01*
X149780162Y-57715683D01*
X149641090Y-57499559D01*
X149449191Y-57368440D01*
X149638638Y-57368440D01*
X153386599Y-61116401D01*
X153633160Y-61281148D01*
X153924000Y-61339000D01*
X156755000Y-61339000D01*
X156755000Y-61832250D01*
X156913750Y-61991000D01*
X157687000Y-61991000D01*
X157687000Y-62245000D01*
X156913750Y-62245000D01*
X156755000Y-62403750D01*
X156755000Y-62994309D01*
X156851673Y-63227698D01*
X157030301Y-63406327D01*
X157263690Y-63503000D01*
X157306250Y-63503000D01*
X157465000Y-63344250D01*
X157465000Y-63341026D01*
X157530301Y-63406327D01*
X157763690Y-63503000D01*
X157816310Y-63503000D01*
X158049699Y-63406327D01*
X158051068Y-63404958D01*
X158138110Y-63464431D01*
X158259830Y-63489080D01*
X158273750Y-63503000D01*
X158316310Y-63503000D01*
X158320335Y-63501333D01*
X158390000Y-63515440D01*
X158690000Y-63515440D01*
X158793671Y-63495933D01*
X158890000Y-63515440D01*
X159190000Y-63515440D01*
X159293671Y-63495933D01*
X159390000Y-63515440D01*
X159690000Y-63515440D01*
X159793671Y-63495933D01*
X159890000Y-63515440D01*
X160190000Y-63515440D01*
X160293671Y-63495933D01*
X160390000Y-63515440D01*
X160690000Y-63515440D01*
X160761323Y-63502020D01*
X160763690Y-63503000D01*
X160806250Y-63503000D01*
X160817871Y-63491379D01*
X160925317Y-63471162D01*
X161039978Y-63397380D01*
X161138110Y-63464431D01*
X161259830Y-63489080D01*
X161273750Y-63503000D01*
X161316310Y-63503000D01*
X161320335Y-63501333D01*
X161390000Y-63515440D01*
X161690000Y-63515440D01*
X161761323Y-63502020D01*
X161763690Y-63503000D01*
X161806250Y-63503000D01*
X161817871Y-63491379D01*
X161912998Y-63473480D01*
X161912998Y-63503000D01*
X161998322Y-63503000D01*
X162002599Y-63509401D01*
X162784599Y-64291401D01*
X163031161Y-64456148D01*
X163322000Y-64514000D01*
X165481000Y-64514000D01*
X165592560Y-64491809D01*
X165592560Y-64718000D01*
X165612067Y-64821671D01*
X165592560Y-64918000D01*
X165592560Y-65218000D01*
X165612067Y-65321671D01*
X165592560Y-65418000D01*
X165592560Y-65718000D01*
X165612067Y-65821671D01*
X165592560Y-65918000D01*
X165592560Y-66218000D01*
X165612067Y-66321671D01*
X165592560Y-66418000D01*
X165592560Y-66718000D01*
X165612067Y-66821671D01*
X165592560Y-66918000D01*
X165592560Y-67218000D01*
X165609495Y-67308000D01*
X165459600Y-67308000D01*
X165168761Y-67365852D01*
X164922199Y-67530599D01*
X164350720Y-68102078D01*
X164305233Y-68102038D01*
X163961457Y-68244083D01*
X163698208Y-68506873D01*
X163555562Y-68850401D01*
X163555238Y-69222367D01*
X163697283Y-69566143D01*
X163960073Y-69829392D01*
X164303601Y-69972038D01*
X164675567Y-69972362D01*
X165019343Y-69830317D01*
X165282592Y-69567527D01*
X165425238Y-69223999D01*
X165425279Y-69177123D01*
X165592560Y-69009842D01*
X165592560Y-69218000D01*
X165612067Y-69321671D01*
X165592560Y-69418000D01*
X165592560Y-69718000D01*
X165612067Y-69821671D01*
X165592560Y-69918000D01*
X165592560Y-70218000D01*
X165612067Y-70321671D01*
X165592560Y-70418000D01*
X165592560Y-70718000D01*
X165612067Y-70821671D01*
X165592560Y-70918000D01*
X165592560Y-71218000D01*
X165612067Y-71321671D01*
X165592560Y-71418000D01*
X165592560Y-71718000D01*
X165636838Y-71953317D01*
X165775910Y-72169441D01*
X165988110Y-72314431D01*
X166230000Y-72363415D01*
X166230000Y-72623598D01*
X165883399Y-72970199D01*
X165837440Y-73038982D01*
X165837440Y-72768000D01*
X165793162Y-72532683D01*
X165654090Y-72316559D01*
X165441890Y-72171569D01*
X165190000Y-72120560D01*
X164890000Y-72120560D01*
X164786329Y-72140067D01*
X164690000Y-72120560D01*
X164390000Y-72120560D01*
X164286329Y-72140067D01*
X164190000Y-72120560D01*
X163890000Y-72120560D01*
X163786329Y-72140067D01*
X163690000Y-72120560D01*
X163390000Y-72120560D01*
X163286329Y-72140067D01*
X163190000Y-72120560D01*
X162890000Y-72120560D01*
X162786329Y-72140067D01*
X162690000Y-72120560D01*
X162390000Y-72120560D01*
X162318677Y-72133980D01*
X162316310Y-72133000D01*
X162273750Y-72133000D01*
X162262129Y-72144621D01*
X162154683Y-72164838D01*
X162051354Y-72231328D01*
X162049699Y-72229673D01*
X161816310Y-72133000D01*
X161773346Y-72133000D01*
X161742148Y-71976161D01*
X161577401Y-71729599D01*
X161319401Y-71471599D01*
X161072839Y-71306852D01*
X160971775Y-71286749D01*
X161005638Y-71205199D01*
X161005962Y-70833233D01*
X160863917Y-70489457D01*
X160601127Y-70226208D01*
X160257599Y-70083562D01*
X159885633Y-70083238D01*
X159541857Y-70225283D01*
X159458996Y-70308000D01*
X157988825Y-70308000D01*
X158161343Y-70236717D01*
X158424592Y-69973927D01*
X158567238Y-69630399D01*
X158567562Y-69258433D01*
X158425517Y-68914657D01*
X158380697Y-68869759D01*
X158465638Y-68665199D01*
X158465962Y-68293233D01*
X158323917Y-67949457D01*
X158263940Y-67889376D01*
X158477967Y-67889562D01*
X158821743Y-67747517D01*
X159084992Y-67484727D01*
X159227638Y-67141199D01*
X159227911Y-66828000D01*
X159485665Y-66828000D01*
X159591273Y-66933792D01*
X159934801Y-67076438D01*
X160306767Y-67076762D01*
X160650543Y-66934717D01*
X160913792Y-66671927D01*
X161056438Y-66328399D01*
X161056762Y-65956433D01*
X160914717Y-65612657D01*
X160651927Y-65349408D01*
X160308399Y-65206762D01*
X160193063Y-65206662D01*
X160193162Y-65092833D01*
X160051117Y-64749057D01*
X159788327Y-64485808D01*
X159444799Y-64343162D01*
X159072833Y-64342838D01*
X158729057Y-64484883D01*
X158465808Y-64747673D01*
X158440758Y-64808000D01*
X156969215Y-64808000D01*
X156987440Y-64718000D01*
X156987440Y-64418000D01*
X156974020Y-64346677D01*
X156975000Y-64344310D01*
X156975000Y-64301750D01*
X156963379Y-64290129D01*
X156943162Y-64182683D01*
X156819204Y-63990046D01*
X156975000Y-63834250D01*
X156975000Y-63791690D01*
X156878327Y-63558301D01*
X156699698Y-63379673D01*
X156466309Y-63283000D01*
X155875750Y-63283000D01*
X155717000Y-63441750D01*
X155717000Y-63770560D01*
X155463000Y-63770560D01*
X155463000Y-63441750D01*
X155304250Y-63283000D01*
X154713691Y-63283000D01*
X154480302Y-63379673D01*
X154301673Y-63558301D01*
X154205000Y-63791690D01*
X154205000Y-63808000D01*
X153719600Y-63808000D01*
X153428760Y-63865852D01*
X153182199Y-64030599D01*
X152387921Y-64824877D01*
X152304117Y-64622057D01*
X152271000Y-64588882D01*
X152271000Y-63300463D01*
X152303192Y-63268327D01*
X152445838Y-62924799D01*
X152446162Y-62552833D01*
X152304117Y-62209057D01*
X152041327Y-61945808D01*
X151697799Y-61803162D01*
X151325833Y-61802838D01*
X150982057Y-61944883D01*
X150718808Y-62207673D01*
X150576162Y-62551201D01*
X150575838Y-62923167D01*
X150717883Y-63266943D01*
X150751000Y-63300118D01*
X150751000Y-64588537D01*
X150718808Y-64620673D01*
X150576162Y-64964201D01*
X150575959Y-65197663D01*
X150381961Y-65236252D01*
X150135399Y-65400999D01*
X149466320Y-66070078D01*
X149420833Y-66070038D01*
X149077057Y-66212083D01*
X148813808Y-66474873D01*
X148671162Y-66818401D01*
X148670838Y-67190367D01*
X148734962Y-67345560D01*
X147536000Y-67345560D01*
X147300683Y-67389838D01*
X147084559Y-67528910D01*
X147000907Y-67651339D01*
X146812430Y-67522559D01*
X146560540Y-67471550D01*
X143761460Y-67471550D01*
X143526143Y-67515828D01*
X143468577Y-67552871D01*
X143431172Y-67354083D01*
X143389873Y-67289902D01*
X143424441Y-67239310D01*
X143475450Y-66987420D01*
X143475450Y-66387980D01*
X143431172Y-66152663D01*
X143292100Y-65936539D01*
X143079900Y-65791549D01*
X142828010Y-65740540D01*
X141977110Y-65740540D01*
X141741793Y-65784818D01*
X141525669Y-65923890D01*
X141380679Y-66136090D01*
X141329670Y-66387980D01*
X141329670Y-66501870D01*
X141292833Y-66501838D01*
X140949057Y-66643883D01*
X140685808Y-66906673D01*
X140543162Y-67250201D01*
X140542838Y-67622167D01*
X140650080Y-67881714D01*
X140543162Y-68139201D01*
X140542838Y-68511167D01*
X140684883Y-68854943D01*
X140762539Y-68932734D01*
X140670162Y-69155201D01*
X140669838Y-69526880D01*
X139509686Y-69526880D01*
X139477117Y-69448057D01*
X139214327Y-69184808D01*
X138870799Y-69042162D01*
X138498833Y-69041838D01*
X138155057Y-69183883D01*
X137891808Y-69446673D01*
X137845000Y-69559399D01*
X137845000Y-66394400D01*
X137976180Y-66484031D01*
X138228070Y-66535040D01*
X139028170Y-66535040D01*
X139263487Y-66490762D01*
X139479611Y-66351690D01*
X139624601Y-66139490D01*
X139675610Y-65887600D01*
X139675610Y-65186560D01*
X139631332Y-64951243D01*
X139492260Y-64735119D01*
X139280060Y-64590129D01*
X139028170Y-64539120D01*
X138228070Y-64539120D01*
X137992753Y-64583398D01*
X137845000Y-64678474D01*
X137845000Y-61276055D01*
X138051540Y-61317880D01*
X138856078Y-61317880D01*
X140161878Y-62623680D01*
X140161838Y-62669167D01*
X140303883Y-63012943D01*
X140566673Y-63276192D01*
X140910201Y-63418838D01*
X141282167Y-63419162D01*
X141625943Y-63277117D01*
X141889192Y-63014327D01*
X142031838Y-62670799D01*
X142032162Y-62298833D01*
X141976678Y-62164551D01*
X142143192Y-61998327D01*
X142285838Y-61654799D01*
X142286162Y-61282833D01*
X142144117Y-60939057D01*
X141975674Y-60770320D01*
X141995900Y-60670440D01*
X141995900Y-59471560D01*
X141951622Y-59236243D01*
X141812550Y-59020119D01*
X141600350Y-58875129D01*
X141348460Y-58824120D01*
X140149580Y-58824120D01*
X140126866Y-58828394D01*
X140127025Y-58646312D01*
X140149580Y-58650880D01*
X141348460Y-58650880D01*
X141583777Y-58606602D01*
X141799901Y-58467530D01*
X141944891Y-58255330D01*
X141995900Y-58003440D01*
X141995900Y-56804560D01*
X141951622Y-56569243D01*
X141828433Y-56377802D01*
X141904838Y-56193799D01*
X141905025Y-55979600D01*
X142636398Y-55979600D01*
X143417000Y-56760202D01*
X143417000Y-57303560D01*
X143177000Y-57303560D01*
X142941683Y-57347838D01*
X142725559Y-57486910D01*
X142580569Y-57699110D01*
X142529560Y-57951000D01*
X142529560Y-59651000D01*
X142573838Y-59886317D01*
X142712910Y-60102441D01*
X142925110Y-60247431D01*
X143177000Y-60298440D01*
X143417000Y-60298440D01*
X143417000Y-60992000D01*
X143474852Y-61282839D01*
X143639599Y-61529401D01*
X144098878Y-61988680D01*
X144098838Y-62034167D01*
X144240883Y-62377943D01*
X144503673Y-62641192D01*
X144847201Y-62783838D01*
X145219167Y-62784162D01*
X145562943Y-62642117D01*
X145826192Y-62379327D01*
X145968838Y-62035799D01*
X145969162Y-61663833D01*
X145827117Y-61320057D01*
X145564327Y-61056808D01*
X145220799Y-60914162D01*
X145173923Y-60914121D01*
X144937000Y-60677198D01*
X144937000Y-60298440D01*
X145177000Y-60298440D01*
X145412317Y-60254162D01*
X145628441Y-60115090D01*
X145773431Y-59902890D01*
X145824440Y-59651000D01*
X145824440Y-57951000D01*
X145780162Y-57715683D01*
X145641090Y-57499559D01*
X145428890Y-57354569D01*
X145177000Y-57303560D01*
X144937000Y-57303560D01*
X144937000Y-56445400D01*
X144879148Y-56154561D01*
X144714401Y-55907999D01*
X143488601Y-54682199D01*
X143242039Y-54517452D01*
X142951200Y-54459600D01*
X142656680Y-54459600D01*
X142656680Y-53529180D01*
X142497930Y-53370430D01*
X141348680Y-53370430D01*
X141348680Y-53390430D01*
X141094680Y-53390430D01*
X141094680Y-53370430D01*
X139945430Y-53370430D01*
X139786680Y-53529180D01*
X139786680Y-54180678D01*
X139240800Y-53634798D01*
X139240800Y-52027121D01*
X139786680Y-52027121D01*
X139786680Y-52957680D01*
X139945430Y-53116430D01*
X141094680Y-53116430D01*
X141094680Y-51677180D01*
X141348680Y-51677180D01*
X141348680Y-53116430D01*
X142497930Y-53116430D01*
X142656680Y-52957680D01*
X142656680Y-52027121D01*
X142648243Y-52006750D01*
X148044000Y-52006750D01*
X148044000Y-52847309D01*
X148140673Y-53080698D01*
X148319301Y-53259327D01*
X148552690Y-53356000D01*
X149193250Y-53356000D01*
X149352000Y-53197250D01*
X149352000Y-51848000D01*
X149606000Y-51848000D01*
X149606000Y-53197250D01*
X149764750Y-53356000D01*
X150405310Y-53356000D01*
X150638699Y-53259327D01*
X150817327Y-53080698D01*
X150914000Y-52847309D01*
X150914000Y-52006750D01*
X150787000Y-51879750D01*
X151219000Y-51879750D01*
X151219000Y-52720309D01*
X151315673Y-52953698D01*
X151494301Y-53132327D01*
X151727690Y-53229000D01*
X152368250Y-53229000D01*
X152527000Y-53070250D01*
X152527000Y-51721000D01*
X152781000Y-51721000D01*
X152781000Y-53070250D01*
X152939750Y-53229000D01*
X153580310Y-53229000D01*
X153813699Y-53132327D01*
X153992327Y-52953698D01*
X154089000Y-52720309D01*
X154089000Y-51879750D01*
X153930250Y-51721000D01*
X152781000Y-51721000D01*
X152527000Y-51721000D01*
X151377750Y-51721000D01*
X151219000Y-51879750D01*
X150787000Y-51879750D01*
X150755250Y-51848000D01*
X149606000Y-51848000D01*
X149352000Y-51848000D01*
X148202750Y-51848000D01*
X148044000Y-52006750D01*
X142648243Y-52006750D01*
X142560007Y-51793732D01*
X142381379Y-51615103D01*
X142147990Y-51518430D01*
X141507430Y-51518430D01*
X141348680Y-51677180D01*
X141094680Y-51677180D01*
X140935930Y-51518430D01*
X140295370Y-51518430D01*
X140061981Y-51615103D01*
X139883353Y-51793732D01*
X139786680Y-52027121D01*
X139240800Y-52027121D01*
X139240800Y-50594691D01*
X148044000Y-50594691D01*
X148044000Y-51435250D01*
X148202750Y-51594000D01*
X149352000Y-51594000D01*
X149352000Y-50244750D01*
X149606000Y-50244750D01*
X149606000Y-51594000D01*
X150755250Y-51594000D01*
X150914000Y-51435250D01*
X150914000Y-50594691D01*
X150861395Y-50467691D01*
X151219000Y-50467691D01*
X151219000Y-51308250D01*
X151377750Y-51467000D01*
X152527000Y-51467000D01*
X152527000Y-50117750D01*
X152781000Y-50117750D01*
X152781000Y-51467000D01*
X153930250Y-51467000D01*
X154089000Y-51308250D01*
X154089000Y-50520691D01*
X154184000Y-50520691D01*
X154184000Y-50961250D01*
X154342750Y-51120000D01*
X155067000Y-51120000D01*
X155067000Y-50170750D01*
X155321000Y-50170750D01*
X155321000Y-51120000D01*
X156045250Y-51120000D01*
X156204000Y-50961250D01*
X156204000Y-50520691D01*
X156188285Y-50482750D01*
X156680000Y-50482750D01*
X156680000Y-51323309D01*
X156776673Y-51556698D01*
X156955301Y-51735327D01*
X157188690Y-51832000D01*
X157829250Y-51832000D01*
X157988000Y-51673250D01*
X157988000Y-50324000D01*
X158242000Y-50324000D01*
X158242000Y-51673250D01*
X158400750Y-51832000D01*
X159041310Y-51832000D01*
X159274699Y-51735327D01*
X159453327Y-51556698D01*
X159550000Y-51323309D01*
X159550000Y-50482750D01*
X159391250Y-50324000D01*
X158242000Y-50324000D01*
X157988000Y-50324000D01*
X156838750Y-50324000D01*
X156680000Y-50482750D01*
X156188285Y-50482750D01*
X156107327Y-50287302D01*
X155928699Y-50108673D01*
X155695310Y-50012000D01*
X155479750Y-50012000D01*
X155321000Y-50170750D01*
X155067000Y-50170750D01*
X154908250Y-50012000D01*
X154692690Y-50012000D01*
X154459301Y-50108673D01*
X154280673Y-50287302D01*
X154184000Y-50520691D01*
X154089000Y-50520691D01*
X154089000Y-50467691D01*
X153992327Y-50234302D01*
X153813699Y-50055673D01*
X153580310Y-49959000D01*
X152939750Y-49959000D01*
X152781000Y-50117750D01*
X152527000Y-50117750D01*
X152368250Y-49959000D01*
X151727690Y-49959000D01*
X151494301Y-50055673D01*
X151315673Y-50234302D01*
X151219000Y-50467691D01*
X150861395Y-50467691D01*
X150817327Y-50361302D01*
X150638699Y-50182673D01*
X150405310Y-50086000D01*
X149764750Y-50086000D01*
X149606000Y-50244750D01*
X149352000Y-50244750D01*
X149193250Y-50086000D01*
X148552690Y-50086000D01*
X148319301Y-50182673D01*
X148140673Y-50361302D01*
X148044000Y-50594691D01*
X139240800Y-50594691D01*
X139240800Y-49070691D01*
X156680000Y-49070691D01*
X156680000Y-49911250D01*
X156838750Y-50070000D01*
X157988000Y-50070000D01*
X157988000Y-48720750D01*
X158242000Y-48720750D01*
X158242000Y-50070000D01*
X159391250Y-50070000D01*
X159550000Y-49911250D01*
X159550000Y-49181691D01*
X159649000Y-49181691D01*
X159649000Y-49772250D01*
X159807750Y-49931000D01*
X160782000Y-49931000D01*
X160782000Y-48831750D01*
X161036000Y-48831750D01*
X161036000Y-49931000D01*
X162010250Y-49931000D01*
X162169000Y-49772250D01*
X162169000Y-49181691D01*
X162072327Y-48948302D01*
X161893699Y-48769673D01*
X161660310Y-48673000D01*
X161194750Y-48673000D01*
X161036000Y-48831750D01*
X160782000Y-48831750D01*
X160623250Y-48673000D01*
X160157690Y-48673000D01*
X159924301Y-48769673D01*
X159745673Y-48948302D01*
X159649000Y-49181691D01*
X159550000Y-49181691D01*
X159550000Y-49070691D01*
X159453327Y-48837302D01*
X159274699Y-48658673D01*
X159041310Y-48562000D01*
X158400750Y-48562000D01*
X158242000Y-48720750D01*
X157988000Y-48720750D01*
X157829250Y-48562000D01*
X157188690Y-48562000D01*
X156955301Y-48658673D01*
X156776673Y-48837302D01*
X156680000Y-49070691D01*
X139240800Y-49070691D01*
X139240800Y-45323602D01*
X139765832Y-44798570D01*
X139778880Y-44798570D01*
X139778880Y-45128570D01*
X139823158Y-45363887D01*
X139962230Y-45580011D01*
X140174430Y-45725001D01*
X140426320Y-45776010D01*
X142026320Y-45776010D01*
X142261637Y-45731732D01*
X142477761Y-45592660D01*
X142622751Y-45380460D01*
X142673760Y-45128570D01*
X142673760Y-43230000D01*
X150161495Y-43230000D01*
X150161495Y-48351000D01*
G36*
X159708737Y-71880461D02*
X159502599Y-72086599D01*
X159471595Y-72133000D01*
X159412998Y-72133000D01*
X159412998Y-72165718D01*
X159320170Y-72146920D01*
X159306250Y-72133000D01*
X159263690Y-72133000D01*
X159259665Y-72134667D01*
X159190000Y-72120560D01*
X158890000Y-72120560D01*
X158818677Y-72133980D01*
X158816310Y-72133000D01*
X158773750Y-72133000D01*
X158762129Y-72144621D01*
X158740498Y-72148691D01*
X158577401Y-71904599D01*
X158500802Y-71828000D01*
X159582396Y-71828000D01*
X159708737Y-71880461D01*
X159708737Y-71880461D01*
G37*
X159708737Y-71880461D02*
X159502599Y-72086599D01*
X159471595Y-72133000D01*
X159412998Y-72133000D01*
X159412998Y-72165718D01*
X159320170Y-72146920D01*
X159306250Y-72133000D01*
X159263690Y-72133000D01*
X159259665Y-72134667D01*
X159190000Y-72120560D01*
X158890000Y-72120560D01*
X158818677Y-72133980D01*
X158816310Y-72133000D01*
X158773750Y-72133000D01*
X158762129Y-72144621D01*
X158740498Y-72148691D01*
X158577401Y-71904599D01*
X158500802Y-71828000D01*
X159582396Y-71828000D01*
X159708737Y-71880461D01*
G36*
X154192560Y-66718000D02*
X154212067Y-66821671D01*
X154192560Y-66918000D01*
X154192560Y-67218000D01*
X154212067Y-67321671D01*
X154192560Y-67418000D01*
X154192560Y-67718000D01*
X154205980Y-67789323D01*
X154205000Y-67791690D01*
X154205000Y-67834250D01*
X154216621Y-67845871D01*
X154236838Y-67953317D01*
X154303328Y-68056646D01*
X154301673Y-68058301D01*
X154205000Y-68291690D01*
X154205000Y-68344310D01*
X154301673Y-68577699D01*
X154303042Y-68579068D01*
X154243569Y-68666110D01*
X154218920Y-68787830D01*
X154205000Y-68801750D01*
X154205000Y-68844310D01*
X154206667Y-68848335D01*
X154192560Y-68918000D01*
X154192560Y-69218000D01*
X154205980Y-69289323D01*
X154205000Y-69291690D01*
X154205000Y-69334250D01*
X154216621Y-69345871D01*
X154236838Y-69453317D01*
X154303328Y-69556646D01*
X154301673Y-69558301D01*
X154205000Y-69791690D01*
X154205000Y-69844310D01*
X154297656Y-70068000D01*
X154205000Y-70291690D01*
X154205000Y-70344310D01*
X154301673Y-70577699D01*
X154303042Y-70579068D01*
X154243569Y-70666110D01*
X154218920Y-70787830D01*
X154205000Y-70801750D01*
X154205000Y-70808000D01*
X154121590Y-70808000D01*
X154047927Y-70734208D01*
X153704399Y-70591562D01*
X153698445Y-70591557D01*
X153902601Y-70387401D01*
X154067348Y-70140839D01*
X154125200Y-69850000D01*
X154125200Y-66507202D01*
X154192560Y-66439842D01*
X154192560Y-66718000D01*
X154192560Y-66718000D01*
G37*
X154192560Y-66718000D02*
X154212067Y-66821671D01*
X154192560Y-66918000D01*
X154192560Y-67218000D01*
X154212067Y-67321671D01*
X154192560Y-67418000D01*
X154192560Y-67718000D01*
X154205980Y-67789323D01*
X154205000Y-67791690D01*
X154205000Y-67834250D01*
X154216621Y-67845871D01*
X154236838Y-67953317D01*
X154303328Y-68056646D01*
X154301673Y-68058301D01*
X154205000Y-68291690D01*
X154205000Y-68344310D01*
X154301673Y-68577699D01*
X154303042Y-68579068D01*
X154243569Y-68666110D01*
X154218920Y-68787830D01*
X154205000Y-68801750D01*
X154205000Y-68844310D01*
X154206667Y-68848335D01*
X154192560Y-68918000D01*
X154192560Y-69218000D01*
X154205980Y-69289323D01*
X154205000Y-69291690D01*
X154205000Y-69334250D01*
X154216621Y-69345871D01*
X154236838Y-69453317D01*
X154303328Y-69556646D01*
X154301673Y-69558301D01*
X154205000Y-69791690D01*
X154205000Y-69844310D01*
X154297656Y-70068000D01*
X154205000Y-70291690D01*
X154205000Y-70344310D01*
X154301673Y-70577699D01*
X154303042Y-70579068D01*
X154243569Y-70666110D01*
X154218920Y-70787830D01*
X154205000Y-70801750D01*
X154205000Y-70808000D01*
X154121590Y-70808000D01*
X154047927Y-70734208D01*
X153704399Y-70591562D01*
X153698445Y-70591557D01*
X153902601Y-70387401D01*
X154067348Y-70140839D01*
X154125200Y-69850000D01*
X154125200Y-66507202D01*
X154192560Y-66439842D01*
X154192560Y-66718000D01*
G36*
X173187569Y-43348110D02*
X173136560Y-43600000D01*
X173136560Y-43784335D01*
X172944599Y-43912599D01*
X172309599Y-44547599D01*
X172144852Y-44794161D01*
X172087000Y-45085000D01*
X172087000Y-45795161D01*
X171847000Y-45746560D01*
X169847000Y-45746560D01*
X169611683Y-45790838D01*
X169395559Y-45929910D01*
X169250569Y-46142110D01*
X169199560Y-46394000D01*
X169199560Y-48094000D01*
X169243838Y-48329317D01*
X169382910Y-48545441D01*
X169595110Y-48690431D01*
X169847000Y-48741440D01*
X170087000Y-48741440D01*
X170087000Y-49399185D01*
X169985799Y-49357162D01*
X169613833Y-49356838D01*
X169270057Y-49498883D01*
X169006808Y-49761673D01*
X168864162Y-50105201D01*
X168863838Y-50477167D01*
X169005883Y-50820943D01*
X169039000Y-50854118D01*
X169039000Y-61280198D01*
X167048638Y-63270560D01*
X166744115Y-63270560D01*
X166749000Y-63246000D01*
X166749000Y-61268463D01*
X166781192Y-61236327D01*
X166923838Y-60892799D01*
X166924162Y-60520833D01*
X166782117Y-60177057D01*
X166519327Y-59913808D01*
X166175799Y-59771162D01*
X165803833Y-59770838D01*
X165670499Y-59825930D01*
X165577401Y-59686599D01*
X165079134Y-59188332D01*
X165149441Y-59143090D01*
X165294431Y-58930890D01*
X165345440Y-58679000D01*
X165345440Y-58029000D01*
X165301162Y-57793683D01*
X165290019Y-57776366D01*
X165421201Y-57830838D01*
X165793167Y-57831162D01*
X166136943Y-57689117D01*
X166400192Y-57426327D01*
X166542838Y-57082799D01*
X166543162Y-56710833D01*
X166401117Y-56367057D01*
X166138327Y-56103808D01*
X165794799Y-55961162D01*
X165747923Y-55961121D01*
X165703401Y-55916599D01*
X165456839Y-55751852D01*
X165173648Y-55695521D01*
X165162090Y-55677559D01*
X164949890Y-55532569D01*
X164928000Y-55528136D01*
X164928000Y-46712802D01*
X166430802Y-45210000D01*
X170053000Y-45210000D01*
X170343839Y-45152148D01*
X170590401Y-44987401D01*
X171335680Y-44242122D01*
X171381167Y-44242162D01*
X171724943Y-44100117D01*
X171988192Y-43837327D01*
X172130838Y-43493799D01*
X172131068Y-43230000D01*
X173268270Y-43230000D01*
X173187569Y-43348110D01*
X173187569Y-43348110D01*
G37*
X173187569Y-43348110D02*
X173136560Y-43600000D01*
X173136560Y-43784335D01*
X172944599Y-43912599D01*
X172309599Y-44547599D01*
X172144852Y-44794161D01*
X172087000Y-45085000D01*
X172087000Y-45795161D01*
X171847000Y-45746560D01*
X169847000Y-45746560D01*
X169611683Y-45790838D01*
X169395559Y-45929910D01*
X169250569Y-46142110D01*
X169199560Y-46394000D01*
X169199560Y-48094000D01*
X169243838Y-48329317D01*
X169382910Y-48545441D01*
X169595110Y-48690431D01*
X169847000Y-48741440D01*
X170087000Y-48741440D01*
X170087000Y-49399185D01*
X169985799Y-49357162D01*
X169613833Y-49356838D01*
X169270057Y-49498883D01*
X169006808Y-49761673D01*
X168864162Y-50105201D01*
X168863838Y-50477167D01*
X169005883Y-50820943D01*
X169039000Y-50854118D01*
X169039000Y-61280198D01*
X167048638Y-63270560D01*
X166744115Y-63270560D01*
X166749000Y-63246000D01*
X166749000Y-61268463D01*
X166781192Y-61236327D01*
X166923838Y-60892799D01*
X166924162Y-60520833D01*
X166782117Y-60177057D01*
X166519327Y-59913808D01*
X166175799Y-59771162D01*
X165803833Y-59770838D01*
X165670499Y-59825930D01*
X165577401Y-59686599D01*
X165079134Y-59188332D01*
X165149441Y-59143090D01*
X165294431Y-58930890D01*
X165345440Y-58679000D01*
X165345440Y-58029000D01*
X165301162Y-57793683D01*
X165290019Y-57776366D01*
X165421201Y-57830838D01*
X165793167Y-57831162D01*
X166136943Y-57689117D01*
X166400192Y-57426327D01*
X166542838Y-57082799D01*
X166543162Y-56710833D01*
X166401117Y-56367057D01*
X166138327Y-56103808D01*
X165794799Y-55961162D01*
X165747923Y-55961121D01*
X165703401Y-55916599D01*
X165456839Y-55751852D01*
X165173648Y-55695521D01*
X165162090Y-55677559D01*
X164949890Y-55532569D01*
X164928000Y-55528136D01*
X164928000Y-46712802D01*
X166430802Y-45210000D01*
X170053000Y-45210000D01*
X170343839Y-45152148D01*
X170590401Y-44987401D01*
X171335680Y-44242122D01*
X171381167Y-44242162D01*
X171724943Y-44100117D01*
X171988192Y-43837327D01*
X172130838Y-43493799D01*
X172131068Y-43230000D01*
X173268270Y-43230000D01*
X173187569Y-43348110D01*
M02*
