M48
;DRILL file {KiCad 4.0.0-rc2-stable} date 8/02/2016 3:26:54 p. m.
;FORMAT={2:4/ absolute / inch / keep zeros}
FMAT,2
INCH,TZ
T1C0.016
T2C0.040
%
G90
G05
M72
T1
X054600Y-027550
X054650Y-029600
X054800Y-023100
X055450Y-030500
X055500Y-022050
X055550Y-024600
X055650Y-024200
X055650Y-034050
X055700Y-026550
X055700Y-026900
X055700Y-028150
X055700Y-030950
X055750Y-027300
X056700Y-027600
X056700Y-029400
X056800Y-028350
X056850Y-030650
X057100Y-024350
X057900Y-020450
X058000Y-031900
X058400Y-024950
X058700Y-031640
X058900Y-026380
X059020Y-031360
X059060Y-028480
X059140Y-030400
X059650Y-024700
X059650Y-025650
X060100Y-034600
X060120Y-031280
X060260Y-031600
X060360Y-031940
X060440Y-028160
X060440Y-032920
X060560Y-027760
X061000Y-033600
X061350Y-032350
X061450Y-035600
X061900Y-026460
X062020Y-026960
X062060Y-027340
X062240Y-032520
X062320Y-026360
X062700Y-025700
X062850Y-034550
X063020Y-027960
X063040Y-026040
X063850Y-023300
X064600Y-023850
X064680Y-033500
X064760Y-027180
X065200Y-022400
X065350Y-023150
X065350Y-023900
X065450Y-034100
X066400Y-026700
X066620Y-031160
X066850Y-019800
X067100Y-025050
X067150Y-025850
X067200Y-026600
X067250Y-026200
X067350Y-025250
X067400Y-017050
X067400Y-028900
X067620Y-030000
X067940Y-034340
X068100Y-018500
X068700Y-032300
X068740Y-026060
X068800Y-028100
X068860Y-026640
X069080Y-027060
X069760Y-034880
X069840Y-031720
X070550Y-030600
X070700Y-035400
X070750Y-022800
X071100Y-021250
X071250Y-026050
X071250Y-029600
X071500Y-021950
X071950Y-028200
X071950Y-029050
X072140Y-031700
X072150Y-026950
X072250Y-018650
X072250Y-019350
X072250Y-020300
X072580Y-035560
T2
X057350Y-035550
X058350Y-035550
X059350Y-035550
T0
M30
