G04 #@! TF.FileFunction,Legend,Bot*
%FSLAX46Y46*%
G04 Gerber Fmt 4.6, Leading zero omitted, Abs format (unit mm)*
G04 Created by KiCad (PCBNEW 4.0.0-rc2-stable) date 8/02/2016 3:26:42 p. m.*
%MOMM*%
G01*
G04 APERTURE LIST*
%ADD10C,0.150000*%
G04 APERTURE END LIST*
D10*
X146773000Y-70493000D02*
X146773000Y-71493000D01*
X145073000Y-71493000D02*
X145073000Y-70493000D01*
X177792000Y-84543000D02*
X176792000Y-84543000D01*
X176792000Y-82843000D02*
X177792000Y-82843000D01*
X178419000Y-89671000D02*
X176419000Y-89671000D01*
X176419000Y-87621000D02*
X178419000Y-87621000D01*
X144764000Y-56329000D02*
X142764000Y-56329000D01*
X142764000Y-58479000D02*
X144764000Y-58479000D01*
X163211000Y-84192000D02*
X165211000Y-84192000D01*
X165211000Y-86242000D02*
X163211000Y-86242000D01*
X183523000Y-87923000D02*
X184523000Y-87923000D01*
X184523000Y-89623000D02*
X183523000Y-89623000D01*
X176942000Y-82134000D02*
X177642000Y-82134000D01*
X177642000Y-80934000D02*
X176942000Y-80934000D01*
X184134000Y-82686000D02*
X182134000Y-82686000D01*
X182134000Y-80636000D02*
X184134000Y-80636000D01*
X184523000Y-84924000D02*
X183523000Y-84924000D01*
X183523000Y-83224000D02*
X184523000Y-83224000D01*
X178578000Y-49208000D02*
X180578000Y-49208000D01*
X180578000Y-47058000D02*
X178578000Y-47058000D01*
X178578000Y-46414000D02*
X180578000Y-46414000D01*
X180578000Y-44264000D02*
X178578000Y-44264000D01*
X178578000Y-54796000D02*
X180578000Y-54796000D01*
X180578000Y-52646000D02*
X178578000Y-52646000D01*
X178578000Y-52002000D02*
X180578000Y-52002000D01*
X180578000Y-49852000D02*
X178578000Y-49852000D01*
X180578000Y-58107000D02*
X178578000Y-58107000D01*
X178578000Y-60257000D02*
X180578000Y-60257000D01*
X178578000Y-57463000D02*
X180578000Y-57463000D01*
X180578000Y-55313000D02*
X178578000Y-55313000D01*
X180006500Y-66552500D02*
X178006500Y-66552500D01*
X178006500Y-68702500D02*
X180006500Y-68702500D01*
X180006500Y-63631500D02*
X178006500Y-63631500D01*
X178006500Y-65781500D02*
X180006500Y-65781500D01*
X180006500Y-72267500D02*
X178006500Y-72267500D01*
X178006500Y-74417500D02*
X180006500Y-74417500D01*
X180006500Y-69346500D02*
X178006500Y-69346500D01*
X178006500Y-71496500D02*
X180006500Y-71496500D01*
X180006500Y-77982500D02*
X178006500Y-77982500D01*
X178006500Y-80132500D02*
X180006500Y-80132500D01*
X180006500Y-75188500D02*
X178006500Y-75188500D01*
X178006500Y-77338500D02*
X180006500Y-77338500D01*
X141029000Y-88122000D02*
X141029000Y-86122000D01*
X138879000Y-86122000D02*
X138879000Y-88122000D01*
X171616000Y-88892000D02*
X171616000Y-87892000D01*
X173316000Y-87892000D02*
X173316000Y-88892000D01*
X150098000Y-81856000D02*
X148098000Y-81856000D01*
X148098000Y-84006000D02*
X150098000Y-84006000D01*
X168851000Y-87773000D02*
X168851000Y-89773000D01*
X171001000Y-89773000D02*
X171001000Y-87773000D01*
X144764000Y-59123000D02*
X142764000Y-59123000D01*
X142764000Y-61273000D02*
X144764000Y-61273000D01*
X140732000Y-80577000D02*
X142732000Y-80577000D01*
X142732000Y-78427000D02*
X140732000Y-78427000D01*
X178419000Y-87131000D02*
X176419000Y-87131000D01*
X176419000Y-85081000D02*
X178419000Y-85081000D01*
X155897000Y-87392000D02*
X155897000Y-89392000D01*
X158047000Y-89392000D02*
X158047000Y-87392000D01*
X140748000Y-65437000D02*
X141423000Y-65437000D01*
X140748000Y-75787000D02*
X141423000Y-75787000D01*
X151098000Y-75787000D02*
X150423000Y-75787000D01*
X151098000Y-65437000D02*
X150423000Y-65437000D01*
X140748000Y-65437000D02*
X140748000Y-66112000D01*
X151098000Y-65437000D02*
X151098000Y-66112000D01*
X151098000Y-75787000D02*
X151098000Y-75112000D01*
X140748000Y-75787000D02*
X140748000Y-75112000D01*
X141423000Y-65437000D02*
X141423000Y-64162000D01*
X183462095Y-85677000D02*
X184462095Y-85677000D01*
X184462095Y-87377000D02*
X183462095Y-87377000D01*
X152654000Y-61384000D02*
X152654000Y-62344000D01*
X167894000Y-62344000D02*
X152654000Y-62344000D01*
X167894000Y-61384000D02*
X167894000Y-62344000D01*
X167894000Y-35424000D02*
X167894000Y-43284000D01*
X152654000Y-35424000D02*
X167894000Y-35424000D01*
X152654000Y-43284000D02*
X152654000Y-35424000D01*
X148189667Y-67016809D02*
X148189667Y-67493000D01*
X148475381Y-66921571D02*
X147475381Y-67254904D01*
X148475381Y-67588238D01*
X147475381Y-67778714D02*
X148475381Y-68112047D01*
X147475381Y-68445381D01*
X148380143Y-69350143D02*
X148427762Y-69302524D01*
X148475381Y-69159667D01*
X148475381Y-69064429D01*
X148427762Y-68921571D01*
X148332524Y-68826333D01*
X148237286Y-68778714D01*
X148046810Y-68731095D01*
X147903952Y-68731095D01*
X147713476Y-68778714D01*
X147618238Y-68826333D01*
X147523000Y-68921571D01*
X147475381Y-69064429D01*
X147475381Y-69159667D01*
X147523000Y-69302524D01*
X147570619Y-69350143D01*
X148380143Y-70350143D02*
X148427762Y-70302524D01*
X148475381Y-70159667D01*
X148475381Y-70064429D01*
X148427762Y-69921571D01*
X148332524Y-69826333D01*
X148237286Y-69778714D01*
X148046810Y-69731095D01*
X147903952Y-69731095D01*
X147713476Y-69778714D01*
X147618238Y-69826333D01*
X147523000Y-69921571D01*
X147475381Y-70064429D01*
X147475381Y-70159667D01*
X147523000Y-70302524D01*
X147570619Y-70350143D01*
X147475381Y-70683476D02*
X147475381Y-71302524D01*
X147856333Y-70969190D01*
X147856333Y-71112048D01*
X147903952Y-71207286D01*
X147951571Y-71254905D01*
X148046810Y-71302524D01*
X148284905Y-71302524D01*
X148380143Y-71254905D01*
X148427762Y-71207286D01*
X148475381Y-71112048D01*
X148475381Y-70826333D01*
X148427762Y-70731095D01*
X148380143Y-70683476D01*
X148475381Y-71778714D02*
X148475381Y-71969190D01*
X148427762Y-72064429D01*
X148380143Y-72112048D01*
X148237286Y-72207286D01*
X148046810Y-72254905D01*
X147665857Y-72254905D01*
X147570619Y-72207286D01*
X147523000Y-72159667D01*
X147475381Y-72064429D01*
X147475381Y-71873952D01*
X147523000Y-71778714D01*
X147570619Y-71731095D01*
X147665857Y-71683476D01*
X147903952Y-71683476D01*
X147999190Y-71731095D01*
X148046810Y-71778714D01*
X148094429Y-71873952D01*
X148094429Y-72064429D01*
X148046810Y-72159667D01*
X147999190Y-72207286D01*
X147903952Y-72254905D01*
X148570619Y-72445381D02*
X148570619Y-73207286D01*
X148380143Y-74016810D02*
X148427762Y-73969191D01*
X148475381Y-73826334D01*
X148475381Y-73731096D01*
X148427762Y-73588238D01*
X148332524Y-73493000D01*
X148237286Y-73445381D01*
X148046810Y-73397762D01*
X147903952Y-73397762D01*
X147713476Y-73445381D01*
X147618238Y-73493000D01*
X147523000Y-73588238D01*
X147475381Y-73731096D01*
X147475381Y-73826334D01*
X147523000Y-73969191D01*
X147570619Y-74016810D01*
X148475381Y-74969191D02*
X148475381Y-74397762D01*
X148475381Y-74683476D02*
X147475381Y-74683476D01*
X147618238Y-74588238D01*
X147713476Y-74493000D01*
X147761095Y-74397762D01*
X181268191Y-85959667D02*
X180792000Y-85959667D01*
X181363429Y-86245381D02*
X181030096Y-85245381D01*
X180696762Y-86245381D01*
X180506286Y-85245381D02*
X180172953Y-86245381D01*
X179839619Y-85245381D01*
X179506286Y-86245381D02*
X179506286Y-85245381D01*
X179268191Y-85245381D01*
X179125333Y-85293000D01*
X179030095Y-85388238D01*
X178982476Y-85483476D01*
X178934857Y-85673952D01*
X178934857Y-85816810D01*
X178982476Y-86007286D01*
X179030095Y-86102524D01*
X179125333Y-86197762D01*
X179268191Y-86245381D01*
X179506286Y-86245381D01*
X178506286Y-86245381D02*
X178506286Y-85245381D01*
X178268191Y-85245381D01*
X178125333Y-85293000D01*
X178030095Y-85388238D01*
X177982476Y-85483476D01*
X177934857Y-85673952D01*
X177934857Y-85816810D01*
X177982476Y-86007286D01*
X178030095Y-86102524D01*
X178125333Y-86197762D01*
X178268191Y-86245381D01*
X178506286Y-86245381D01*
X177553905Y-85340619D02*
X177506286Y-85293000D01*
X177411048Y-85245381D01*
X177172952Y-85245381D01*
X177077714Y-85293000D01*
X177030095Y-85340619D01*
X176982476Y-85435857D01*
X176982476Y-85531095D01*
X177030095Y-85673952D01*
X177601524Y-86245381D01*
X176982476Y-86245381D01*
X176030095Y-86245381D02*
X176601524Y-86245381D01*
X176315810Y-86245381D02*
X176315810Y-85245381D01*
X176411048Y-85388238D01*
X176506286Y-85483476D01*
X176601524Y-85531095D01*
X175839619Y-86340619D02*
X175077714Y-86340619D01*
X174268190Y-86150143D02*
X174315809Y-86197762D01*
X174458666Y-86245381D01*
X174553904Y-86245381D01*
X174696762Y-86197762D01*
X174792000Y-86102524D01*
X174839619Y-86007286D01*
X174887238Y-85816810D01*
X174887238Y-85673952D01*
X174839619Y-85483476D01*
X174792000Y-85388238D01*
X174696762Y-85293000D01*
X174553904Y-85245381D01*
X174458666Y-85245381D01*
X174315809Y-85293000D01*
X174268190Y-85340619D01*
X173887238Y-85340619D02*
X173839619Y-85293000D01*
X173744381Y-85245381D01*
X173506285Y-85245381D01*
X173411047Y-85293000D01*
X173363428Y-85340619D01*
X173315809Y-85435857D01*
X173315809Y-85531095D01*
X173363428Y-85673952D01*
X173934857Y-86245381D01*
X173315809Y-86245381D01*
X181395191Y-91112667D02*
X180919000Y-91112667D01*
X181490429Y-91398381D02*
X181157096Y-90398381D01*
X180823762Y-91398381D01*
X180633286Y-90398381D02*
X180299953Y-91398381D01*
X179966619Y-90398381D01*
X179633286Y-91398381D02*
X179633286Y-90398381D01*
X179395191Y-90398381D01*
X179252333Y-90446000D01*
X179157095Y-90541238D01*
X179109476Y-90636476D01*
X179061857Y-90826952D01*
X179061857Y-90969810D01*
X179109476Y-91160286D01*
X179157095Y-91255524D01*
X179252333Y-91350762D01*
X179395191Y-91398381D01*
X179633286Y-91398381D01*
X178633286Y-91398381D02*
X178633286Y-90398381D01*
X178395191Y-90398381D01*
X178252333Y-90446000D01*
X178157095Y-90541238D01*
X178109476Y-90636476D01*
X178061857Y-90826952D01*
X178061857Y-90969810D01*
X178109476Y-91160286D01*
X178157095Y-91255524D01*
X178252333Y-91350762D01*
X178395191Y-91398381D01*
X178633286Y-91398381D01*
X177157095Y-90398381D02*
X177633286Y-90398381D01*
X177680905Y-90874571D01*
X177633286Y-90826952D01*
X177538048Y-90779333D01*
X177299952Y-90779333D01*
X177204714Y-90826952D01*
X177157095Y-90874571D01*
X177109476Y-90969810D01*
X177109476Y-91207905D01*
X177157095Y-91303143D01*
X177204714Y-91350762D01*
X177299952Y-91398381D01*
X177538048Y-91398381D01*
X177633286Y-91350762D01*
X177680905Y-91303143D01*
X176633286Y-91398381D02*
X176442810Y-91398381D01*
X176347571Y-91350762D01*
X176299952Y-91303143D01*
X176204714Y-91160286D01*
X176157095Y-90969810D01*
X176157095Y-90588857D01*
X176204714Y-90493619D01*
X176252333Y-90446000D01*
X176347571Y-90398381D01*
X176538048Y-90398381D01*
X176633286Y-90446000D01*
X176680905Y-90493619D01*
X176728524Y-90588857D01*
X176728524Y-90826952D01*
X176680905Y-90922190D01*
X176633286Y-90969810D01*
X176538048Y-91017429D01*
X176347571Y-91017429D01*
X176252333Y-90969810D01*
X176204714Y-90922190D01*
X176157095Y-90826952D01*
X175966619Y-91493619D02*
X175204714Y-91493619D01*
X174395190Y-91303143D02*
X174442809Y-91350762D01*
X174585666Y-91398381D01*
X174680904Y-91398381D01*
X174823762Y-91350762D01*
X174919000Y-91255524D01*
X174966619Y-91160286D01*
X175014238Y-90969810D01*
X175014238Y-90826952D01*
X174966619Y-90636476D01*
X174919000Y-90541238D01*
X174823762Y-90446000D01*
X174680904Y-90398381D01*
X174585666Y-90398381D01*
X174442809Y-90446000D01*
X174395190Y-90493619D01*
X173442809Y-91398381D02*
X174014238Y-91398381D01*
X173728524Y-91398381D02*
X173728524Y-90398381D01*
X173823762Y-90541238D01*
X173919000Y-90636476D01*
X174014238Y-90684095D01*
X148716381Y-59632571D02*
X148573524Y-59680190D01*
X148525905Y-59727810D01*
X148478286Y-59823048D01*
X148478286Y-59965905D01*
X148525905Y-60061143D01*
X148573524Y-60108762D01*
X148668762Y-60156381D01*
X149049715Y-60156381D01*
X149049715Y-59156381D01*
X148716381Y-59156381D01*
X148621143Y-59204000D01*
X148573524Y-59251619D01*
X148525905Y-59346857D01*
X148525905Y-59442095D01*
X148573524Y-59537333D01*
X148621143Y-59584952D01*
X148716381Y-59632571D01*
X149049715Y-59632571D01*
X148192572Y-59156381D02*
X147621143Y-59156381D01*
X147906858Y-60156381D02*
X147906858Y-59156381D01*
X146716381Y-60061143D02*
X146764000Y-60108762D01*
X146906857Y-60156381D01*
X147002095Y-60156381D01*
X147144953Y-60108762D01*
X147240191Y-60013524D01*
X147287810Y-59918286D01*
X147335429Y-59727810D01*
X147335429Y-59584952D01*
X147287810Y-59394476D01*
X147240191Y-59299238D01*
X147144953Y-59204000D01*
X147002095Y-59156381D01*
X146906857Y-59156381D01*
X146764000Y-59204000D01*
X146716381Y-59251619D01*
X146097334Y-59156381D02*
X145906857Y-59156381D01*
X145811619Y-59204000D01*
X145716381Y-59299238D01*
X145668762Y-59489714D01*
X145668762Y-59823048D01*
X145716381Y-60013524D01*
X145811619Y-60108762D01*
X145906857Y-60156381D01*
X146097334Y-60156381D01*
X146192572Y-60108762D01*
X146287810Y-60013524D01*
X146335429Y-59823048D01*
X146335429Y-59489714D01*
X146287810Y-59299238D01*
X146192572Y-59204000D01*
X146097334Y-59156381D01*
X145240191Y-60156381D02*
X145240191Y-59156381D01*
X144668762Y-60156381D01*
X144668762Y-59156381D01*
X144430667Y-60251619D02*
X143668762Y-60251619D01*
X142954476Y-60156381D02*
X143430667Y-60156381D01*
X143430667Y-59156381D01*
X142621143Y-59632571D02*
X142287809Y-59632571D01*
X142144952Y-60156381D02*
X142621143Y-60156381D01*
X142621143Y-59156381D01*
X142144952Y-59156381D01*
X141716381Y-60156381D02*
X141716381Y-59156381D01*
X141478286Y-59156381D01*
X141335428Y-59204000D01*
X141240190Y-59299238D01*
X141192571Y-59394476D01*
X141144952Y-59584952D01*
X141144952Y-59727810D01*
X141192571Y-59918286D01*
X141240190Y-60013524D01*
X141335428Y-60108762D01*
X141478286Y-60156381D01*
X141716381Y-60156381D01*
X140954476Y-60251619D02*
X140192571Y-60251619D01*
X139383047Y-60156381D02*
X139716381Y-59680190D01*
X139954476Y-60156381D02*
X139954476Y-59156381D01*
X139573523Y-59156381D01*
X139478285Y-59204000D01*
X139430666Y-59251619D01*
X139383047Y-59346857D01*
X139383047Y-59489714D01*
X139430666Y-59584952D01*
X139478285Y-59632571D01*
X139573523Y-59680190D01*
X139954476Y-59680190D01*
X138430666Y-60156381D02*
X139002095Y-60156381D01*
X138716381Y-60156381D02*
X138716381Y-59156381D01*
X138811619Y-59299238D01*
X138906857Y-59394476D01*
X139002095Y-59442095D01*
X168115762Y-82845571D02*
X167972905Y-82893190D01*
X167925286Y-82940810D01*
X167877667Y-83036048D01*
X167877667Y-83178905D01*
X167925286Y-83274143D01*
X167972905Y-83321762D01*
X168068143Y-83369381D01*
X168449096Y-83369381D01*
X168449096Y-82369381D01*
X168115762Y-82369381D01*
X168020524Y-82417000D01*
X167972905Y-82464619D01*
X167925286Y-82559857D01*
X167925286Y-82655095D01*
X167972905Y-82750333D01*
X168020524Y-82797952D01*
X168115762Y-82845571D01*
X168449096Y-82845571D01*
X167591953Y-82369381D02*
X167020524Y-82369381D01*
X167306239Y-83369381D02*
X167306239Y-82369381D01*
X166925286Y-83464619D02*
X166163381Y-83464619D01*
X165972905Y-83083667D02*
X165496714Y-83083667D01*
X166068143Y-83369381D02*
X165734810Y-82369381D01*
X165401476Y-83369381D01*
X165211000Y-82369381D02*
X164877667Y-83369381D01*
X164544333Y-82369381D01*
X163639571Y-83274143D02*
X163687190Y-83321762D01*
X163830047Y-83369381D01*
X163925285Y-83369381D01*
X164068143Y-83321762D01*
X164163381Y-83226524D01*
X164211000Y-83131286D01*
X164258619Y-82940810D01*
X164258619Y-82797952D01*
X164211000Y-82607476D01*
X164163381Y-82512238D01*
X164068143Y-82417000D01*
X163925285Y-82369381D01*
X163830047Y-82369381D01*
X163687190Y-82417000D01*
X163639571Y-82464619D01*
X162639571Y-83274143D02*
X162687190Y-83321762D01*
X162830047Y-83369381D01*
X162925285Y-83369381D01*
X163068143Y-83321762D01*
X163163381Y-83226524D01*
X163211000Y-83131286D01*
X163258619Y-82940810D01*
X163258619Y-82797952D01*
X163211000Y-82607476D01*
X163163381Y-82512238D01*
X163068143Y-82417000D01*
X162925285Y-82369381D01*
X162830047Y-82369381D01*
X162687190Y-82417000D01*
X162639571Y-82464619D01*
X162449095Y-83464619D02*
X161687190Y-83464619D01*
X160877666Y-83274143D02*
X160925285Y-83321762D01*
X161068142Y-83369381D01*
X161163380Y-83369381D01*
X161306238Y-83321762D01*
X161401476Y-83226524D01*
X161449095Y-83131286D01*
X161496714Y-82940810D01*
X161496714Y-82797952D01*
X161449095Y-82607476D01*
X161401476Y-82512238D01*
X161306238Y-82417000D01*
X161163380Y-82369381D01*
X161068142Y-82369381D01*
X160925285Y-82417000D01*
X160877666Y-82464619D01*
X159925285Y-83369381D02*
X160496714Y-83369381D01*
X160211000Y-83369381D02*
X160211000Y-82369381D01*
X160306238Y-82512238D01*
X160401476Y-82607476D01*
X160496714Y-82655095D01*
X187261095Y-87030143D02*
X187308714Y-87077762D01*
X187451571Y-87125381D01*
X187546809Y-87125381D01*
X187689667Y-87077762D01*
X187784905Y-86982524D01*
X187832524Y-86887286D01*
X187880143Y-86696810D01*
X187880143Y-86553952D01*
X187832524Y-86363476D01*
X187784905Y-86268238D01*
X187689667Y-86173000D01*
X187546809Y-86125381D01*
X187451571Y-86125381D01*
X187308714Y-86173000D01*
X187261095Y-86220619D01*
X186832524Y-87125381D02*
X186832524Y-86458714D01*
X186832524Y-86125381D02*
X186880143Y-86173000D01*
X186832524Y-86220619D01*
X186784905Y-86173000D01*
X186832524Y-86125381D01*
X186832524Y-86220619D01*
X186356334Y-86458714D02*
X186356334Y-87125381D01*
X186356334Y-86553952D02*
X186308715Y-86506333D01*
X186213477Y-86458714D01*
X186070619Y-86458714D01*
X185975381Y-86506333D01*
X185927762Y-86601571D01*
X185927762Y-87125381D01*
X185451572Y-87125381D02*
X185451572Y-86125381D01*
X185118238Y-86839667D01*
X184784905Y-86125381D01*
X184784905Y-87125381D01*
X183880143Y-87125381D02*
X183880143Y-86601571D01*
X183927762Y-86506333D01*
X184023000Y-86458714D01*
X184213477Y-86458714D01*
X184308715Y-86506333D01*
X183880143Y-87077762D02*
X183975381Y-87125381D01*
X184213477Y-87125381D01*
X184308715Y-87077762D01*
X184356334Y-86982524D01*
X184356334Y-86887286D01*
X184308715Y-86792048D01*
X184213477Y-86744429D01*
X183975381Y-86744429D01*
X183880143Y-86696810D01*
X183499191Y-87125381D02*
X182975381Y-86458714D01*
X183499191Y-86458714D02*
X182975381Y-87125381D01*
X182451572Y-86553952D02*
X182546810Y-86506333D01*
X182594429Y-86458714D01*
X182642048Y-86363476D01*
X182642048Y-86315857D01*
X182594429Y-86220619D01*
X182546810Y-86173000D01*
X182451572Y-86125381D01*
X182261095Y-86125381D01*
X182165857Y-86173000D01*
X182118238Y-86220619D01*
X182070619Y-86315857D01*
X182070619Y-86363476D01*
X182118238Y-86458714D01*
X182165857Y-86506333D01*
X182261095Y-86553952D01*
X182451572Y-86553952D01*
X182546810Y-86601571D01*
X182594429Y-86649190D01*
X182642048Y-86744429D01*
X182642048Y-86934905D01*
X182594429Y-87030143D01*
X182546810Y-87077762D01*
X182451572Y-87125381D01*
X182261095Y-87125381D01*
X182165857Y-87077762D01*
X182118238Y-87030143D01*
X182070619Y-86934905D01*
X182070619Y-86744429D01*
X182118238Y-86649190D01*
X182165857Y-86601571D01*
X182261095Y-86553952D01*
X181499191Y-86553952D02*
X181594429Y-86506333D01*
X181642048Y-86458714D01*
X181689667Y-86363476D01*
X181689667Y-86315857D01*
X181642048Y-86220619D01*
X181594429Y-86173000D01*
X181499191Y-86125381D01*
X181308714Y-86125381D01*
X181213476Y-86173000D01*
X181165857Y-86220619D01*
X181118238Y-86315857D01*
X181118238Y-86363476D01*
X181165857Y-86458714D01*
X181213476Y-86506333D01*
X181308714Y-86553952D01*
X181499191Y-86553952D01*
X181594429Y-86601571D01*
X181642048Y-86649190D01*
X181689667Y-86744429D01*
X181689667Y-86934905D01*
X181642048Y-87030143D01*
X181594429Y-87077762D01*
X181499191Y-87125381D01*
X181308714Y-87125381D01*
X181213476Y-87077762D01*
X181165857Y-87030143D01*
X181118238Y-86934905D01*
X181118238Y-86744429D01*
X181165857Y-86649190D01*
X181213476Y-86601571D01*
X181308714Y-86553952D01*
X180261095Y-86458714D02*
X180261095Y-87125381D01*
X180499191Y-86077762D02*
X180737286Y-86792048D01*
X180118238Y-86792048D01*
X181030095Y-83791143D02*
X181077714Y-83838762D01*
X181220571Y-83886381D01*
X181315809Y-83886381D01*
X181458667Y-83838762D01*
X181553905Y-83743524D01*
X181601524Y-83648286D01*
X181649143Y-83457810D01*
X181649143Y-83314952D01*
X181601524Y-83124476D01*
X181553905Y-83029238D01*
X181458667Y-82934000D01*
X181315809Y-82886381D01*
X181220571Y-82886381D01*
X181077714Y-82934000D01*
X181030095Y-82981619D01*
X180458667Y-83886381D02*
X180553905Y-83838762D01*
X180601524Y-83791143D01*
X180649143Y-83695905D01*
X180649143Y-83410190D01*
X180601524Y-83314952D01*
X180553905Y-83267333D01*
X180458667Y-83219714D01*
X180315809Y-83219714D01*
X180220571Y-83267333D01*
X180172952Y-83314952D01*
X180125333Y-83410190D01*
X180125333Y-83695905D01*
X180172952Y-83791143D01*
X180220571Y-83838762D01*
X180315809Y-83886381D01*
X180458667Y-83886381D01*
X179268190Y-83219714D02*
X179268190Y-83886381D01*
X179696762Y-83219714D02*
X179696762Y-83743524D01*
X179649143Y-83838762D01*
X179553905Y-83886381D01*
X179411047Y-83886381D01*
X179315809Y-83838762D01*
X179268190Y-83791143D01*
X178934857Y-83219714D02*
X178553905Y-83219714D01*
X178792000Y-82886381D02*
X178792000Y-83743524D01*
X178744381Y-83838762D01*
X178649143Y-83886381D01*
X178553905Y-83886381D01*
X178220571Y-83886381D02*
X178220571Y-82886381D01*
X177887237Y-83600667D01*
X177553904Y-82886381D01*
X177553904Y-83886381D01*
X176649142Y-83886381D02*
X176649142Y-83362571D01*
X176696761Y-83267333D01*
X176791999Y-83219714D01*
X176982476Y-83219714D01*
X177077714Y-83267333D01*
X176649142Y-83838762D02*
X176744380Y-83886381D01*
X176982476Y-83886381D01*
X177077714Y-83838762D01*
X177125333Y-83743524D01*
X177125333Y-83648286D01*
X177077714Y-83553048D01*
X176982476Y-83505429D01*
X176744380Y-83505429D01*
X176649142Y-83457810D01*
X176268190Y-83886381D02*
X175744380Y-83219714D01*
X176268190Y-83219714D02*
X175744380Y-83886381D01*
X175220571Y-83314952D02*
X175315809Y-83267333D01*
X175363428Y-83219714D01*
X175411047Y-83124476D01*
X175411047Y-83076857D01*
X175363428Y-82981619D01*
X175315809Y-82934000D01*
X175220571Y-82886381D01*
X175030094Y-82886381D01*
X174934856Y-82934000D01*
X174887237Y-82981619D01*
X174839618Y-83076857D01*
X174839618Y-83124476D01*
X174887237Y-83219714D01*
X174934856Y-83267333D01*
X175030094Y-83314952D01*
X175220571Y-83314952D01*
X175315809Y-83362571D01*
X175363428Y-83410190D01*
X175411047Y-83505429D01*
X175411047Y-83695905D01*
X175363428Y-83791143D01*
X175315809Y-83838762D01*
X175220571Y-83886381D01*
X175030094Y-83886381D01*
X174934856Y-83838762D01*
X174887237Y-83791143D01*
X174839618Y-83695905D01*
X174839618Y-83505429D01*
X174887237Y-83410190D01*
X174934856Y-83362571D01*
X175030094Y-83314952D01*
X174268190Y-83314952D02*
X174363428Y-83267333D01*
X174411047Y-83219714D01*
X174458666Y-83124476D01*
X174458666Y-83076857D01*
X174411047Y-82981619D01*
X174363428Y-82934000D01*
X174268190Y-82886381D01*
X174077713Y-82886381D01*
X173982475Y-82934000D01*
X173934856Y-82981619D01*
X173887237Y-83076857D01*
X173887237Y-83124476D01*
X173934856Y-83219714D01*
X173982475Y-83267333D01*
X174077713Y-83314952D01*
X174268190Y-83314952D01*
X174363428Y-83362571D01*
X174411047Y-83410190D01*
X174458666Y-83505429D01*
X174458666Y-83695905D01*
X174411047Y-83791143D01*
X174363428Y-83838762D01*
X174268190Y-83886381D01*
X174077713Y-83886381D01*
X173982475Y-83838762D01*
X173934856Y-83791143D01*
X173887237Y-83695905D01*
X173887237Y-83505429D01*
X173934856Y-83410190D01*
X173982475Y-83362571D01*
X174077713Y-83314952D01*
X173030094Y-83219714D02*
X173030094Y-83886381D01*
X173268190Y-82838762D02*
X173506285Y-83553048D01*
X172887237Y-83553048D01*
X187134000Y-84413381D02*
X187134000Y-83413381D01*
X186895905Y-83413381D01*
X186753047Y-83461000D01*
X186657809Y-83556238D01*
X186610190Y-83651476D01*
X186562571Y-83841952D01*
X186562571Y-83984810D01*
X186610190Y-84175286D01*
X186657809Y-84270524D01*
X186753047Y-84365762D01*
X186895905Y-84413381D01*
X187134000Y-84413381D01*
X186276857Y-83413381D02*
X185943524Y-84413381D01*
X185610190Y-83413381D01*
X185276857Y-84413381D02*
X185276857Y-83413381D01*
X185038762Y-83413381D01*
X184895904Y-83461000D01*
X184800666Y-83556238D01*
X184753047Y-83651476D01*
X184705428Y-83841952D01*
X184705428Y-83984810D01*
X184753047Y-84175286D01*
X184800666Y-84270524D01*
X184895904Y-84365762D01*
X185038762Y-84413381D01*
X185276857Y-84413381D01*
X184276857Y-84413381D02*
X184276857Y-83413381D01*
X184038762Y-83413381D01*
X183895904Y-83461000D01*
X183800666Y-83556238D01*
X183753047Y-83651476D01*
X183705428Y-83841952D01*
X183705428Y-83984810D01*
X183753047Y-84175286D01*
X183800666Y-84270524D01*
X183895904Y-84365762D01*
X184038762Y-84413381D01*
X184276857Y-84413381D01*
X182848285Y-83746714D02*
X182848285Y-84413381D01*
X183086381Y-83365762D02*
X183324476Y-84080048D01*
X182705428Y-84080048D01*
X182181619Y-83841952D02*
X182276857Y-83794333D01*
X182324476Y-83746714D01*
X182372095Y-83651476D01*
X182372095Y-83603857D01*
X182324476Y-83508619D01*
X182276857Y-83461000D01*
X182181619Y-83413381D01*
X181991142Y-83413381D01*
X181895904Y-83461000D01*
X181848285Y-83508619D01*
X181800666Y-83603857D01*
X181800666Y-83651476D01*
X181848285Y-83746714D01*
X181895904Y-83794333D01*
X181991142Y-83841952D01*
X182181619Y-83841952D01*
X182276857Y-83889571D01*
X182324476Y-83937190D01*
X182372095Y-84032429D01*
X182372095Y-84222905D01*
X182324476Y-84318143D01*
X182276857Y-84365762D01*
X182181619Y-84413381D01*
X181991142Y-84413381D01*
X181895904Y-84365762D01*
X181848285Y-84318143D01*
X181800666Y-84222905D01*
X181800666Y-84032429D01*
X181848285Y-83937190D01*
X181895904Y-83889571D01*
X181991142Y-83841952D01*
X181610190Y-84508619D02*
X180848285Y-84508619D01*
X180038761Y-84318143D02*
X180086380Y-84365762D01*
X180229237Y-84413381D01*
X180324475Y-84413381D01*
X180467333Y-84365762D01*
X180562571Y-84270524D01*
X180610190Y-84175286D01*
X180657809Y-83984810D01*
X180657809Y-83841952D01*
X180610190Y-83651476D01*
X180562571Y-83556238D01*
X180467333Y-83461000D01*
X180324475Y-83413381D01*
X180229237Y-83413381D01*
X180086380Y-83461000D01*
X180038761Y-83508619D01*
X179086380Y-84413381D02*
X179657809Y-84413381D01*
X179372095Y-84413381D02*
X179372095Y-83413381D01*
X179467333Y-83556238D01*
X179562571Y-83651476D01*
X179657809Y-83699095D01*
X188023000Y-86626381D02*
X188023000Y-85626381D01*
X187784905Y-85626381D01*
X187642047Y-85674000D01*
X187546809Y-85769238D01*
X187499190Y-85864476D01*
X187451571Y-86054952D01*
X187451571Y-86197810D01*
X187499190Y-86388286D01*
X187546809Y-86483524D01*
X187642047Y-86578762D01*
X187784905Y-86626381D01*
X188023000Y-86626381D01*
X187165857Y-85626381D02*
X186832524Y-86626381D01*
X186499190Y-85626381D01*
X186165857Y-86626381D02*
X186165857Y-85626381D01*
X185927762Y-85626381D01*
X185784904Y-85674000D01*
X185689666Y-85769238D01*
X185642047Y-85864476D01*
X185594428Y-86054952D01*
X185594428Y-86197810D01*
X185642047Y-86388286D01*
X185689666Y-86483524D01*
X185784904Y-86578762D01*
X185927762Y-86626381D01*
X186165857Y-86626381D01*
X185165857Y-86626381D02*
X185165857Y-85626381D01*
X184927762Y-85626381D01*
X184784904Y-85674000D01*
X184689666Y-85769238D01*
X184642047Y-85864476D01*
X184594428Y-86054952D01*
X184594428Y-86197810D01*
X184642047Y-86388286D01*
X184689666Y-86483524D01*
X184784904Y-86578762D01*
X184927762Y-86626381D01*
X185165857Y-86626381D01*
X183737285Y-85959714D02*
X183737285Y-86626381D01*
X183975381Y-85578762D02*
X184213476Y-86293048D01*
X183594428Y-86293048D01*
X183070619Y-86054952D02*
X183165857Y-86007333D01*
X183213476Y-85959714D01*
X183261095Y-85864476D01*
X183261095Y-85816857D01*
X183213476Y-85721619D01*
X183165857Y-85674000D01*
X183070619Y-85626381D01*
X182880142Y-85626381D01*
X182784904Y-85674000D01*
X182737285Y-85721619D01*
X182689666Y-85816857D01*
X182689666Y-85864476D01*
X182737285Y-85959714D01*
X182784904Y-86007333D01*
X182880142Y-86054952D01*
X183070619Y-86054952D01*
X183165857Y-86102571D01*
X183213476Y-86150190D01*
X183261095Y-86245429D01*
X183261095Y-86435905D01*
X183213476Y-86531143D01*
X183165857Y-86578762D01*
X183070619Y-86626381D01*
X182880142Y-86626381D01*
X182784904Y-86578762D01*
X182737285Y-86531143D01*
X182689666Y-86435905D01*
X182689666Y-86245429D01*
X182737285Y-86150190D01*
X182784904Y-86102571D01*
X182880142Y-86054952D01*
X182499190Y-86721619D02*
X181737285Y-86721619D01*
X180927761Y-86531143D02*
X180975380Y-86578762D01*
X181118237Y-86626381D01*
X181213475Y-86626381D01*
X181356333Y-86578762D01*
X181451571Y-86483524D01*
X181499190Y-86388286D01*
X181546809Y-86197810D01*
X181546809Y-86054952D01*
X181499190Y-85864476D01*
X181451571Y-85769238D01*
X181356333Y-85674000D01*
X181213475Y-85626381D01*
X181118237Y-85626381D01*
X180975380Y-85674000D01*
X180927761Y-85721619D01*
X180546809Y-85721619D02*
X180499190Y-85674000D01*
X180403952Y-85626381D01*
X180165856Y-85626381D01*
X180070618Y-85674000D01*
X180022999Y-85721619D01*
X179975380Y-85816857D01*
X179975380Y-85912095D01*
X180022999Y-86054952D01*
X180594428Y-86626381D01*
X179975380Y-86626381D01*
X182935143Y-45761571D02*
X182601809Y-45761571D01*
X182458952Y-46285381D02*
X182935143Y-46285381D01*
X182935143Y-45285381D01*
X182458952Y-45285381D01*
X181554190Y-46285381D02*
X182030381Y-46285381D01*
X182030381Y-45285381D01*
X181458952Y-46380619D02*
X180697047Y-46380619D01*
X179887523Y-46285381D02*
X180220857Y-45809190D01*
X180458952Y-46285381D02*
X180458952Y-45285381D01*
X180077999Y-45285381D01*
X179982761Y-45333000D01*
X179935142Y-45380619D01*
X179887523Y-45475857D01*
X179887523Y-45618714D01*
X179935142Y-45713952D01*
X179982761Y-45761571D01*
X180077999Y-45809190D01*
X180458952Y-45809190D01*
X179506571Y-45380619D02*
X179458952Y-45333000D01*
X179363714Y-45285381D01*
X179125618Y-45285381D01*
X179030380Y-45333000D01*
X178982761Y-45380619D01*
X178935142Y-45475857D01*
X178935142Y-45571095D01*
X178982761Y-45713952D01*
X179554190Y-46285381D01*
X178935142Y-46285381D01*
X178744666Y-46380619D02*
X177982761Y-46380619D01*
X177744666Y-46285381D02*
X177744666Y-45285381D01*
X177173237Y-46285381D01*
X177173237Y-45285381D01*
X176173237Y-46285381D02*
X176744666Y-46285381D01*
X176458952Y-46285381D02*
X176458952Y-45285381D01*
X176554190Y-45428238D01*
X176649428Y-45523476D01*
X176744666Y-45571095D01*
X182911334Y-42967571D02*
X182578000Y-42967571D01*
X182435143Y-43491381D02*
X182911334Y-43491381D01*
X182911334Y-42491381D01*
X182435143Y-42491381D01*
X181530381Y-43491381D02*
X182006572Y-43491381D01*
X182006572Y-42491381D01*
X181435143Y-43586619D02*
X180673238Y-43586619D01*
X179863714Y-43491381D02*
X180197048Y-43015190D01*
X180435143Y-43491381D02*
X180435143Y-42491381D01*
X180054190Y-42491381D01*
X179958952Y-42539000D01*
X179911333Y-42586619D01*
X179863714Y-42681857D01*
X179863714Y-42824714D01*
X179911333Y-42919952D01*
X179958952Y-42967571D01*
X180054190Y-43015190D01*
X180435143Y-43015190D01*
X179482762Y-42586619D02*
X179435143Y-42539000D01*
X179339905Y-42491381D01*
X179101809Y-42491381D01*
X179006571Y-42539000D01*
X178958952Y-42586619D01*
X178911333Y-42681857D01*
X178911333Y-42777095D01*
X178958952Y-42919952D01*
X179530381Y-43491381D01*
X178911333Y-43491381D01*
X178720857Y-43586619D02*
X177958952Y-43586619D01*
X177720857Y-43491381D02*
X177720857Y-42491381D01*
X177339904Y-42491381D01*
X177244666Y-42539000D01*
X177197047Y-42586619D01*
X177149428Y-42681857D01*
X177149428Y-42824714D01*
X177197047Y-42919952D01*
X177244666Y-42967571D01*
X177339904Y-43015190D01*
X177720857Y-43015190D01*
X176197047Y-43491381D02*
X176768476Y-43491381D01*
X176482762Y-43491381D02*
X176482762Y-42491381D01*
X176578000Y-42634238D01*
X176673238Y-42729476D01*
X176768476Y-42777095D01*
X182935143Y-51349571D02*
X182601809Y-51349571D01*
X182458952Y-51873381D02*
X182935143Y-51873381D01*
X182935143Y-50873381D01*
X182458952Y-50873381D01*
X181554190Y-51873381D02*
X182030381Y-51873381D01*
X182030381Y-50873381D01*
X181458952Y-51968619D02*
X180697047Y-51968619D01*
X179887523Y-51873381D02*
X180220857Y-51397190D01*
X180458952Y-51873381D02*
X180458952Y-50873381D01*
X180077999Y-50873381D01*
X179982761Y-50921000D01*
X179935142Y-50968619D01*
X179887523Y-51063857D01*
X179887523Y-51206714D01*
X179935142Y-51301952D01*
X179982761Y-51349571D01*
X180077999Y-51397190D01*
X180458952Y-51397190D01*
X179554190Y-50873381D02*
X178935142Y-50873381D01*
X179268476Y-51254333D01*
X179125618Y-51254333D01*
X179030380Y-51301952D01*
X178982761Y-51349571D01*
X178935142Y-51444810D01*
X178935142Y-51682905D01*
X178982761Y-51778143D01*
X179030380Y-51825762D01*
X179125618Y-51873381D01*
X179411333Y-51873381D01*
X179506571Y-51825762D01*
X179554190Y-51778143D01*
X178744666Y-51968619D02*
X177982761Y-51968619D01*
X177744666Y-51873381D02*
X177744666Y-50873381D01*
X177173237Y-51873381D01*
X177173237Y-50873381D01*
X176173237Y-51873381D02*
X176744666Y-51873381D01*
X176458952Y-51873381D02*
X176458952Y-50873381D01*
X176554190Y-51016238D01*
X176649428Y-51111476D01*
X176744666Y-51159095D01*
X182911334Y-48555571D02*
X182578000Y-48555571D01*
X182435143Y-49079381D02*
X182911334Y-49079381D01*
X182911334Y-48079381D01*
X182435143Y-48079381D01*
X181530381Y-49079381D02*
X182006572Y-49079381D01*
X182006572Y-48079381D01*
X181435143Y-49174619D02*
X180673238Y-49174619D01*
X179863714Y-49079381D02*
X180197048Y-48603190D01*
X180435143Y-49079381D02*
X180435143Y-48079381D01*
X180054190Y-48079381D01*
X179958952Y-48127000D01*
X179911333Y-48174619D01*
X179863714Y-48269857D01*
X179863714Y-48412714D01*
X179911333Y-48507952D01*
X179958952Y-48555571D01*
X180054190Y-48603190D01*
X180435143Y-48603190D01*
X179530381Y-48079381D02*
X178911333Y-48079381D01*
X179244667Y-48460333D01*
X179101809Y-48460333D01*
X179006571Y-48507952D01*
X178958952Y-48555571D01*
X178911333Y-48650810D01*
X178911333Y-48888905D01*
X178958952Y-48984143D01*
X179006571Y-49031762D01*
X179101809Y-49079381D01*
X179387524Y-49079381D01*
X179482762Y-49031762D01*
X179530381Y-48984143D01*
X178720857Y-49174619D02*
X177958952Y-49174619D01*
X177720857Y-49079381D02*
X177720857Y-48079381D01*
X177339904Y-48079381D01*
X177244666Y-48127000D01*
X177197047Y-48174619D01*
X177149428Y-48269857D01*
X177149428Y-48412714D01*
X177197047Y-48507952D01*
X177244666Y-48555571D01*
X177339904Y-48603190D01*
X177720857Y-48603190D01*
X176197047Y-49079381D02*
X176768476Y-49079381D01*
X176482762Y-49079381D02*
X176482762Y-48079381D01*
X176578000Y-48222238D01*
X176673238Y-48317476D01*
X176768476Y-48365095D01*
X182935143Y-61410571D02*
X182601809Y-61410571D01*
X182458952Y-61934381D02*
X182935143Y-61934381D01*
X182935143Y-60934381D01*
X182458952Y-60934381D01*
X181554190Y-61934381D02*
X182030381Y-61934381D01*
X182030381Y-60934381D01*
X181458952Y-62029619D02*
X180697047Y-62029619D01*
X179887523Y-61934381D02*
X180220857Y-61458190D01*
X180458952Y-61934381D02*
X180458952Y-60934381D01*
X180077999Y-60934381D01*
X179982761Y-60982000D01*
X179935142Y-61029619D01*
X179887523Y-61124857D01*
X179887523Y-61267714D01*
X179935142Y-61362952D01*
X179982761Y-61410571D01*
X180077999Y-61458190D01*
X180458952Y-61458190D01*
X179030380Y-61267714D02*
X179030380Y-61934381D01*
X179268476Y-60886762D02*
X179506571Y-61601048D01*
X178887523Y-61601048D01*
X178744666Y-62029619D02*
X177982761Y-62029619D01*
X177744666Y-61934381D02*
X177744666Y-60934381D01*
X177173237Y-61934381D01*
X177173237Y-60934381D01*
X176173237Y-61934381D02*
X176744666Y-61934381D01*
X176458952Y-61934381D02*
X176458952Y-60934381D01*
X176554190Y-61077238D01*
X176649428Y-61172476D01*
X176744666Y-61220095D01*
X182911334Y-54016571D02*
X182578000Y-54016571D01*
X182435143Y-54540381D02*
X182911334Y-54540381D01*
X182911334Y-53540381D01*
X182435143Y-53540381D01*
X181530381Y-54540381D02*
X182006572Y-54540381D01*
X182006572Y-53540381D01*
X181435143Y-54635619D02*
X180673238Y-54635619D01*
X179863714Y-54540381D02*
X180197048Y-54064190D01*
X180435143Y-54540381D02*
X180435143Y-53540381D01*
X180054190Y-53540381D01*
X179958952Y-53588000D01*
X179911333Y-53635619D01*
X179863714Y-53730857D01*
X179863714Y-53873714D01*
X179911333Y-53968952D01*
X179958952Y-54016571D01*
X180054190Y-54064190D01*
X180435143Y-54064190D01*
X179006571Y-53873714D02*
X179006571Y-54540381D01*
X179244667Y-53492762D02*
X179482762Y-54207048D01*
X178863714Y-54207048D01*
X178720857Y-54635619D02*
X177958952Y-54635619D01*
X177720857Y-54540381D02*
X177720857Y-53540381D01*
X177339904Y-53540381D01*
X177244666Y-53588000D01*
X177197047Y-53635619D01*
X177149428Y-53730857D01*
X177149428Y-53873714D01*
X177197047Y-53968952D01*
X177244666Y-54016571D01*
X177339904Y-54064190D01*
X177720857Y-54064190D01*
X176197047Y-54540381D02*
X176768476Y-54540381D01*
X176482762Y-54540381D02*
X176482762Y-53540381D01*
X176578000Y-53683238D01*
X176673238Y-53778476D01*
X176768476Y-53826095D01*
X182363643Y-69856071D02*
X182030309Y-69856071D01*
X181887452Y-70379881D02*
X182363643Y-70379881D01*
X182363643Y-69379881D01*
X181887452Y-69379881D01*
X180982690Y-70379881D02*
X181458881Y-70379881D01*
X181458881Y-69379881D01*
X180887452Y-70475119D02*
X180125547Y-70475119D01*
X179316023Y-70379881D02*
X179649357Y-69903690D01*
X179887452Y-70379881D02*
X179887452Y-69379881D01*
X179506499Y-69379881D01*
X179411261Y-69427500D01*
X179363642Y-69475119D01*
X179316023Y-69570357D01*
X179316023Y-69713214D01*
X179363642Y-69808452D01*
X179411261Y-69856071D01*
X179506499Y-69903690D01*
X179887452Y-69903690D01*
X178458880Y-69379881D02*
X178649357Y-69379881D01*
X178744595Y-69427500D01*
X178792214Y-69475119D01*
X178887452Y-69617976D01*
X178935071Y-69808452D01*
X178935071Y-70189405D01*
X178887452Y-70284643D01*
X178839833Y-70332262D01*
X178744595Y-70379881D01*
X178554118Y-70379881D01*
X178458880Y-70332262D01*
X178411261Y-70284643D01*
X178363642Y-70189405D01*
X178363642Y-69951310D01*
X178411261Y-69856071D01*
X178458880Y-69808452D01*
X178554118Y-69760833D01*
X178744595Y-69760833D01*
X178839833Y-69808452D01*
X178887452Y-69856071D01*
X178935071Y-69951310D01*
X178173166Y-70475119D02*
X177411261Y-70475119D01*
X177173166Y-70379881D02*
X177173166Y-69379881D01*
X176601737Y-70379881D01*
X176601737Y-69379881D01*
X175601737Y-70379881D02*
X176173166Y-70379881D01*
X175887452Y-70379881D02*
X175887452Y-69379881D01*
X175982690Y-69522738D01*
X176077928Y-69617976D01*
X176173166Y-69665595D01*
X182339834Y-66935071D02*
X182006500Y-66935071D01*
X181863643Y-67458881D02*
X182339834Y-67458881D01*
X182339834Y-66458881D01*
X181863643Y-66458881D01*
X180958881Y-67458881D02*
X181435072Y-67458881D01*
X181435072Y-66458881D01*
X180863643Y-67554119D02*
X180101738Y-67554119D01*
X179292214Y-67458881D02*
X179625548Y-66982690D01*
X179863643Y-67458881D02*
X179863643Y-66458881D01*
X179482690Y-66458881D01*
X179387452Y-66506500D01*
X179339833Y-66554119D01*
X179292214Y-66649357D01*
X179292214Y-66792214D01*
X179339833Y-66887452D01*
X179387452Y-66935071D01*
X179482690Y-66982690D01*
X179863643Y-66982690D01*
X178435071Y-66458881D02*
X178625548Y-66458881D01*
X178720786Y-66506500D01*
X178768405Y-66554119D01*
X178863643Y-66696976D01*
X178911262Y-66887452D01*
X178911262Y-67268405D01*
X178863643Y-67363643D01*
X178816024Y-67411262D01*
X178720786Y-67458881D01*
X178530309Y-67458881D01*
X178435071Y-67411262D01*
X178387452Y-67363643D01*
X178339833Y-67268405D01*
X178339833Y-67030310D01*
X178387452Y-66935071D01*
X178435071Y-66887452D01*
X178530309Y-66839833D01*
X178720786Y-66839833D01*
X178816024Y-66887452D01*
X178863643Y-66935071D01*
X178911262Y-67030310D01*
X178149357Y-67554119D02*
X177387452Y-67554119D01*
X177149357Y-67458881D02*
X177149357Y-66458881D01*
X176768404Y-66458881D01*
X176673166Y-66506500D01*
X176625547Y-66554119D01*
X176577928Y-66649357D01*
X176577928Y-66792214D01*
X176625547Y-66887452D01*
X176673166Y-66935071D01*
X176768404Y-66982690D01*
X177149357Y-66982690D01*
X175625547Y-67458881D02*
X176196976Y-67458881D01*
X175911262Y-67458881D02*
X175911262Y-66458881D01*
X176006500Y-66601738D01*
X176101738Y-66696976D01*
X176196976Y-66744595D01*
X182363643Y-75571071D02*
X182030309Y-75571071D01*
X181887452Y-76094881D02*
X182363643Y-76094881D01*
X182363643Y-75094881D01*
X181887452Y-75094881D01*
X180982690Y-76094881D02*
X181458881Y-76094881D01*
X181458881Y-75094881D01*
X180887452Y-76190119D02*
X180125547Y-76190119D01*
X179316023Y-76094881D02*
X179649357Y-75618690D01*
X179887452Y-76094881D02*
X179887452Y-75094881D01*
X179506499Y-75094881D01*
X179411261Y-75142500D01*
X179363642Y-75190119D01*
X179316023Y-75285357D01*
X179316023Y-75428214D01*
X179363642Y-75523452D01*
X179411261Y-75571071D01*
X179506499Y-75618690D01*
X179887452Y-75618690D01*
X178982690Y-75094881D02*
X178316023Y-75094881D01*
X178744595Y-76094881D01*
X178173166Y-76190119D02*
X177411261Y-76190119D01*
X177173166Y-76094881D02*
X177173166Y-75094881D01*
X176601737Y-76094881D01*
X176601737Y-75094881D01*
X175601737Y-76094881D02*
X176173166Y-76094881D01*
X175887452Y-76094881D02*
X175887452Y-75094881D01*
X175982690Y-75237738D01*
X176077928Y-75332976D01*
X176173166Y-75380595D01*
X182339834Y-72650071D02*
X182006500Y-72650071D01*
X181863643Y-73173881D02*
X182339834Y-73173881D01*
X182339834Y-72173881D01*
X181863643Y-72173881D01*
X180958881Y-73173881D02*
X181435072Y-73173881D01*
X181435072Y-72173881D01*
X180863643Y-73269119D02*
X180101738Y-73269119D01*
X179292214Y-73173881D02*
X179625548Y-72697690D01*
X179863643Y-73173881D02*
X179863643Y-72173881D01*
X179482690Y-72173881D01*
X179387452Y-72221500D01*
X179339833Y-72269119D01*
X179292214Y-72364357D01*
X179292214Y-72507214D01*
X179339833Y-72602452D01*
X179387452Y-72650071D01*
X179482690Y-72697690D01*
X179863643Y-72697690D01*
X178958881Y-72173881D02*
X178292214Y-72173881D01*
X178720786Y-73173881D01*
X178149357Y-73269119D02*
X177387452Y-73269119D01*
X177149357Y-73173881D02*
X177149357Y-72173881D01*
X176768404Y-72173881D01*
X176673166Y-72221500D01*
X176625547Y-72269119D01*
X176577928Y-72364357D01*
X176577928Y-72507214D01*
X176625547Y-72602452D01*
X176673166Y-72650071D01*
X176768404Y-72697690D01*
X177149357Y-72697690D01*
X175625547Y-73173881D02*
X176196976Y-73173881D01*
X175911262Y-73173881D02*
X175911262Y-72173881D01*
X176006500Y-72316738D01*
X176101738Y-72411976D01*
X176196976Y-72459595D01*
X182363643Y-81286071D02*
X182030309Y-81286071D01*
X181887452Y-81809881D02*
X182363643Y-81809881D01*
X182363643Y-80809881D01*
X181887452Y-80809881D01*
X180982690Y-81809881D02*
X181458881Y-81809881D01*
X181458881Y-80809881D01*
X180887452Y-81905119D02*
X180125547Y-81905119D01*
X179316023Y-81809881D02*
X179649357Y-81333690D01*
X179887452Y-81809881D02*
X179887452Y-80809881D01*
X179506499Y-80809881D01*
X179411261Y-80857500D01*
X179363642Y-80905119D01*
X179316023Y-81000357D01*
X179316023Y-81143214D01*
X179363642Y-81238452D01*
X179411261Y-81286071D01*
X179506499Y-81333690D01*
X179887452Y-81333690D01*
X178744595Y-81238452D02*
X178839833Y-81190833D01*
X178887452Y-81143214D01*
X178935071Y-81047976D01*
X178935071Y-81000357D01*
X178887452Y-80905119D01*
X178839833Y-80857500D01*
X178744595Y-80809881D01*
X178554118Y-80809881D01*
X178458880Y-80857500D01*
X178411261Y-80905119D01*
X178363642Y-81000357D01*
X178363642Y-81047976D01*
X178411261Y-81143214D01*
X178458880Y-81190833D01*
X178554118Y-81238452D01*
X178744595Y-81238452D01*
X178839833Y-81286071D01*
X178887452Y-81333690D01*
X178935071Y-81428929D01*
X178935071Y-81619405D01*
X178887452Y-81714643D01*
X178839833Y-81762262D01*
X178744595Y-81809881D01*
X178554118Y-81809881D01*
X178458880Y-81762262D01*
X178411261Y-81714643D01*
X178363642Y-81619405D01*
X178363642Y-81428929D01*
X178411261Y-81333690D01*
X178458880Y-81286071D01*
X178554118Y-81238452D01*
X178173166Y-81905119D02*
X177411261Y-81905119D01*
X177173166Y-81809881D02*
X177173166Y-80809881D01*
X176601737Y-81809881D01*
X176601737Y-80809881D01*
X175601737Y-81809881D02*
X176173166Y-81809881D01*
X175887452Y-81809881D02*
X175887452Y-80809881D01*
X175982690Y-80952738D01*
X176077928Y-81047976D01*
X176173166Y-81095595D01*
X182339834Y-78492071D02*
X182006500Y-78492071D01*
X181863643Y-79015881D02*
X182339834Y-79015881D01*
X182339834Y-78015881D01*
X181863643Y-78015881D01*
X180958881Y-79015881D02*
X181435072Y-79015881D01*
X181435072Y-78015881D01*
X180863643Y-79111119D02*
X180101738Y-79111119D01*
X179292214Y-79015881D02*
X179625548Y-78539690D01*
X179863643Y-79015881D02*
X179863643Y-78015881D01*
X179482690Y-78015881D01*
X179387452Y-78063500D01*
X179339833Y-78111119D01*
X179292214Y-78206357D01*
X179292214Y-78349214D01*
X179339833Y-78444452D01*
X179387452Y-78492071D01*
X179482690Y-78539690D01*
X179863643Y-78539690D01*
X178720786Y-78444452D02*
X178816024Y-78396833D01*
X178863643Y-78349214D01*
X178911262Y-78253976D01*
X178911262Y-78206357D01*
X178863643Y-78111119D01*
X178816024Y-78063500D01*
X178720786Y-78015881D01*
X178530309Y-78015881D01*
X178435071Y-78063500D01*
X178387452Y-78111119D01*
X178339833Y-78206357D01*
X178339833Y-78253976D01*
X178387452Y-78349214D01*
X178435071Y-78396833D01*
X178530309Y-78444452D01*
X178720786Y-78444452D01*
X178816024Y-78492071D01*
X178863643Y-78539690D01*
X178911262Y-78634929D01*
X178911262Y-78825405D01*
X178863643Y-78920643D01*
X178816024Y-78968262D01*
X178720786Y-79015881D01*
X178530309Y-79015881D01*
X178435071Y-78968262D01*
X178387452Y-78920643D01*
X178339833Y-78825405D01*
X178339833Y-78634929D01*
X178387452Y-78539690D01*
X178435071Y-78492071D01*
X178530309Y-78444452D01*
X178149357Y-79111119D02*
X177387452Y-79111119D01*
X177149357Y-79015881D02*
X177149357Y-78015881D01*
X176768404Y-78015881D01*
X176673166Y-78063500D01*
X176625547Y-78111119D01*
X176577928Y-78206357D01*
X176577928Y-78349214D01*
X176625547Y-78444452D01*
X176673166Y-78492071D01*
X176768404Y-78539690D01*
X177149357Y-78539690D01*
X175625547Y-79015881D02*
X176196976Y-79015881D01*
X175911262Y-79015881D02*
X175911262Y-78015881D01*
X176006500Y-78158738D01*
X176101738Y-78253976D01*
X176196976Y-78301595D01*
X137582571Y-83502952D02*
X137582571Y-83836286D01*
X138106381Y-83979143D02*
X138106381Y-83502952D01*
X137106381Y-83502952D01*
X137106381Y-83979143D01*
X138106381Y-84883905D02*
X138106381Y-84407714D01*
X137106381Y-84407714D01*
X138201619Y-84979143D02*
X138201619Y-85741048D01*
X138106381Y-86550572D02*
X137630190Y-86217238D01*
X138106381Y-85979143D02*
X137106381Y-85979143D01*
X137106381Y-86360096D01*
X137154000Y-86455334D01*
X137201619Y-86502953D01*
X137296857Y-86550572D01*
X137439714Y-86550572D01*
X137534952Y-86502953D01*
X137582571Y-86455334D01*
X137630190Y-86360096D01*
X137630190Y-85979143D01*
X137582571Y-87312477D02*
X137630190Y-87455334D01*
X137677810Y-87502953D01*
X137773048Y-87550572D01*
X137915905Y-87550572D01*
X138011143Y-87502953D01*
X138058762Y-87455334D01*
X138106381Y-87360096D01*
X138106381Y-86979143D01*
X137106381Y-86979143D01*
X137106381Y-87312477D01*
X137154000Y-87407715D01*
X137201619Y-87455334D01*
X137296857Y-87502953D01*
X137392095Y-87502953D01*
X137487333Y-87455334D01*
X137534952Y-87407715D01*
X137582571Y-87312477D01*
X137582571Y-86979143D01*
X138106381Y-87979143D02*
X137106381Y-87979143D01*
X137820667Y-88407714D02*
X137820667Y-88883905D01*
X138106381Y-88312476D02*
X137106381Y-88645809D01*
X138106381Y-88979143D01*
X138058762Y-89264857D02*
X138106381Y-89407714D01*
X138106381Y-89645810D01*
X138058762Y-89741048D01*
X138011143Y-89788667D01*
X137915905Y-89836286D01*
X137820667Y-89836286D01*
X137725429Y-89788667D01*
X137677810Y-89741048D01*
X137630190Y-89645810D01*
X137582571Y-89455333D01*
X137534952Y-89360095D01*
X137487333Y-89312476D01*
X137392095Y-89264857D01*
X137296857Y-89264857D01*
X137201619Y-89312476D01*
X137154000Y-89360095D01*
X137106381Y-89455333D01*
X137106381Y-89693429D01*
X137154000Y-89836286D01*
X138106381Y-90788667D02*
X138106381Y-90217238D01*
X138106381Y-90502952D02*
X137106381Y-90502952D01*
X137249238Y-90407714D01*
X137344476Y-90312476D01*
X137392095Y-90217238D01*
X170818381Y-85796762D02*
X169818381Y-85796762D01*
X170532667Y-86130096D01*
X169818381Y-86463429D01*
X170818381Y-86463429D01*
X170532667Y-86892000D02*
X170532667Y-87368191D01*
X170818381Y-86796762D02*
X169818381Y-87130095D01*
X170818381Y-87463429D01*
X169818381Y-87701524D02*
X170818381Y-88368191D01*
X169818381Y-88368191D02*
X170818381Y-87701524D01*
X170913619Y-88511048D02*
X170913619Y-89272953D01*
X170723143Y-90082477D02*
X170770762Y-90034858D01*
X170818381Y-89892001D01*
X170818381Y-89796763D01*
X170770762Y-89653905D01*
X170675524Y-89558667D01*
X170580286Y-89511048D01*
X170389810Y-89463429D01*
X170246952Y-89463429D01*
X170056476Y-89511048D01*
X169961238Y-89558667D01*
X169866000Y-89653905D01*
X169818381Y-89796763D01*
X169818381Y-89892001D01*
X169866000Y-90034858D01*
X169913619Y-90082477D01*
X170151714Y-90939620D02*
X170818381Y-90939620D01*
X169770762Y-90701524D02*
X170485048Y-90463429D01*
X170485048Y-91082477D01*
X151693238Y-85683381D02*
X151693238Y-84683381D01*
X151359904Y-85397667D01*
X151026571Y-84683381D01*
X151026571Y-85683381D01*
X150598000Y-85397667D02*
X150121809Y-85397667D01*
X150693238Y-85683381D02*
X150359905Y-84683381D01*
X150026571Y-85683381D01*
X149788476Y-84683381D02*
X149121809Y-85683381D01*
X149121809Y-84683381D02*
X149788476Y-85683381D01*
X148978952Y-85778619D02*
X148217047Y-85778619D01*
X147407523Y-85683381D02*
X147740857Y-85207190D01*
X147978952Y-85683381D02*
X147978952Y-84683381D01*
X147597999Y-84683381D01*
X147502761Y-84731000D01*
X147455142Y-84778619D01*
X147407523Y-84873857D01*
X147407523Y-85016714D01*
X147455142Y-85111952D01*
X147502761Y-85159571D01*
X147597999Y-85207190D01*
X147978952Y-85207190D01*
X146455142Y-85683381D02*
X147026571Y-85683381D01*
X146740857Y-85683381D02*
X146740857Y-84683381D01*
X146836095Y-84826238D01*
X146931333Y-84921476D01*
X147026571Y-84969095D01*
X172678381Y-86177762D02*
X171678381Y-86177762D01*
X172392667Y-86511096D01*
X171678381Y-86844429D01*
X172678381Y-86844429D01*
X172392667Y-87273000D02*
X172392667Y-87749191D01*
X172678381Y-87177762D02*
X171678381Y-87511095D01*
X172678381Y-87844429D01*
X171678381Y-88082524D02*
X172678381Y-88749191D01*
X171678381Y-88749191D02*
X172678381Y-88082524D01*
X172773619Y-88892048D02*
X172773619Y-89653953D01*
X172678381Y-90463477D02*
X172202190Y-90130143D01*
X172678381Y-89892048D02*
X171678381Y-89892048D01*
X171678381Y-90273001D01*
X171726000Y-90368239D01*
X171773619Y-90415858D01*
X171868857Y-90463477D01*
X172011714Y-90463477D01*
X172106952Y-90415858D01*
X172154571Y-90368239D01*
X172202190Y-90273001D01*
X172202190Y-89892048D01*
X171678381Y-90796810D02*
X171678381Y-91415858D01*
X172059333Y-91082524D01*
X172059333Y-91225382D01*
X172106952Y-91320620D01*
X172154571Y-91368239D01*
X172249810Y-91415858D01*
X172487905Y-91415858D01*
X172583143Y-91368239D01*
X172630762Y-91320620D01*
X172678381Y-91225382D01*
X172678381Y-90939667D01*
X172630762Y-90844429D01*
X172583143Y-90796810D01*
X147454477Y-61950381D02*
X147264000Y-61950381D01*
X147168762Y-61998000D01*
X147073524Y-62093238D01*
X147025905Y-62283714D01*
X147025905Y-62617048D01*
X147073524Y-62807524D01*
X147168762Y-62902762D01*
X147264000Y-62950381D01*
X147454477Y-62950381D01*
X147549715Y-62902762D01*
X147644953Y-62807524D01*
X147692572Y-62617048D01*
X147692572Y-62283714D01*
X147644953Y-62093238D01*
X147549715Y-61998000D01*
X147454477Y-61950381D01*
X146597334Y-62950381D02*
X146597334Y-61950381D01*
X146025905Y-62950381D02*
X146454477Y-62378952D01*
X146025905Y-61950381D02*
X146597334Y-62521810D01*
X145835429Y-63045619D02*
X145073524Y-63045619D01*
X144359238Y-62950381D02*
X144835429Y-62950381D01*
X144835429Y-61950381D01*
X144025905Y-62426571D02*
X143692571Y-62426571D01*
X143549714Y-62950381D02*
X144025905Y-62950381D01*
X144025905Y-61950381D01*
X143549714Y-61950381D01*
X143121143Y-62950381D02*
X143121143Y-61950381D01*
X142883048Y-61950381D01*
X142740190Y-61998000D01*
X142644952Y-62093238D01*
X142597333Y-62188476D01*
X142549714Y-62378952D01*
X142549714Y-62521810D01*
X142597333Y-62712286D01*
X142644952Y-62807524D01*
X142740190Y-62902762D01*
X142883048Y-62950381D01*
X143121143Y-62950381D01*
X142359238Y-63045619D02*
X141597333Y-63045619D01*
X140787809Y-62950381D02*
X141121143Y-62474190D01*
X141359238Y-62950381D02*
X141359238Y-61950381D01*
X140978285Y-61950381D01*
X140883047Y-61998000D01*
X140835428Y-62045619D01*
X140787809Y-62140857D01*
X140787809Y-62283714D01*
X140835428Y-62378952D01*
X140883047Y-62426571D01*
X140978285Y-62474190D01*
X141359238Y-62474190D01*
X139835428Y-62950381D02*
X140406857Y-62950381D01*
X140121143Y-62950381D02*
X140121143Y-61950381D01*
X140216381Y-62093238D01*
X140311619Y-62188476D01*
X140406857Y-62236095D01*
X144089143Y-77654381D02*
X144089143Y-76654381D01*
X143708190Y-76654381D01*
X143612952Y-76702000D01*
X143565333Y-76749619D01*
X143517714Y-76844857D01*
X143517714Y-76987714D01*
X143565333Y-77082952D01*
X143612952Y-77130571D01*
X143708190Y-77178190D01*
X144089143Y-77178190D01*
X143089143Y-77654381D02*
X143089143Y-76654381D01*
X142851048Y-76654381D01*
X142708190Y-76702000D01*
X142612952Y-76797238D01*
X142565333Y-76892476D01*
X142517714Y-77082952D01*
X142517714Y-77225810D01*
X142565333Y-77416286D01*
X142612952Y-77511524D01*
X142708190Y-77606762D01*
X142851048Y-77654381D01*
X143089143Y-77654381D01*
X142089143Y-77654381D02*
X142089143Y-76654381D01*
X141851048Y-77749619D02*
X141089143Y-77749619D01*
X140279619Y-77654381D02*
X140612953Y-77178190D01*
X140851048Y-77654381D02*
X140851048Y-76654381D01*
X140470095Y-76654381D01*
X140374857Y-76702000D01*
X140327238Y-76749619D01*
X140279619Y-76844857D01*
X140279619Y-76987714D01*
X140327238Y-77082952D01*
X140374857Y-77130571D01*
X140470095Y-77178190D01*
X140851048Y-77178190D01*
X139327238Y-77654381D02*
X139898667Y-77654381D01*
X139612953Y-77654381D02*
X139612953Y-76654381D01*
X139708191Y-76797238D01*
X139803429Y-76892476D01*
X139898667Y-76940095D01*
X179347571Y-88858381D02*
X179680905Y-88382190D01*
X179919000Y-88858381D02*
X179919000Y-87858381D01*
X179538047Y-87858381D01*
X179442809Y-87906000D01*
X179395190Y-87953619D01*
X179347571Y-88048857D01*
X179347571Y-88191714D01*
X179395190Y-88286952D01*
X179442809Y-88334571D01*
X179538047Y-88382190D01*
X179919000Y-88382190D01*
X178919000Y-88334571D02*
X178585666Y-88334571D01*
X178442809Y-88858381D02*
X178919000Y-88858381D01*
X178919000Y-87858381D01*
X178442809Y-87858381D01*
X177680904Y-88334571D02*
X178014238Y-88334571D01*
X178014238Y-88858381D02*
X178014238Y-87858381D01*
X177538047Y-87858381D01*
X177395190Y-88953619D02*
X176633285Y-88953619D01*
X175823761Y-88763143D02*
X175871380Y-88810762D01*
X176014237Y-88858381D01*
X176109475Y-88858381D01*
X176252333Y-88810762D01*
X176347571Y-88715524D01*
X176395190Y-88620286D01*
X176442809Y-88429810D01*
X176442809Y-88286952D01*
X176395190Y-88096476D01*
X176347571Y-88001238D01*
X176252333Y-87906000D01*
X176109475Y-87858381D01*
X176014237Y-87858381D01*
X175871380Y-87906000D01*
X175823761Y-87953619D01*
X175442809Y-87953619D02*
X175395190Y-87906000D01*
X175299952Y-87858381D01*
X175061856Y-87858381D01*
X174966618Y-87906000D01*
X174918999Y-87953619D01*
X174871380Y-88048857D01*
X174871380Y-88144095D01*
X174918999Y-88286952D01*
X175490428Y-88858381D01*
X174871380Y-88858381D01*
X159724381Y-86463429D02*
X159248190Y-86130095D01*
X159724381Y-85892000D02*
X158724381Y-85892000D01*
X158724381Y-86272953D01*
X158772000Y-86368191D01*
X158819619Y-86415810D01*
X158914857Y-86463429D01*
X159057714Y-86463429D01*
X159152952Y-86415810D01*
X159200571Y-86368191D01*
X159248190Y-86272953D01*
X159248190Y-85892000D01*
X159200571Y-86892000D02*
X159200571Y-87225334D01*
X159724381Y-87368191D02*
X159724381Y-86892000D01*
X158724381Y-86892000D01*
X158724381Y-87368191D01*
X159200571Y-88130096D02*
X159200571Y-87796762D01*
X159724381Y-87796762D02*
X158724381Y-87796762D01*
X158724381Y-88272953D01*
X159819619Y-88415810D02*
X159819619Y-89177715D01*
X159724381Y-89987239D02*
X159248190Y-89653905D01*
X159724381Y-89415810D02*
X158724381Y-89415810D01*
X158724381Y-89796763D01*
X158772000Y-89892001D01*
X158819619Y-89939620D01*
X158914857Y-89987239D01*
X159057714Y-89987239D01*
X159152952Y-89939620D01*
X159200571Y-89892001D01*
X159248190Y-89796763D01*
X159248190Y-89415810D01*
X159724381Y-90939620D02*
X159724381Y-90368191D01*
X159724381Y-90653905D02*
X158724381Y-90653905D01*
X158867238Y-90558667D01*
X158962476Y-90463429D01*
X159010095Y-90368191D01*
X137925381Y-69373905D02*
X138734905Y-69373905D01*
X138830143Y-69421524D01*
X138877762Y-69469143D01*
X138925381Y-69564381D01*
X138925381Y-69754858D01*
X138877762Y-69850096D01*
X138830143Y-69897715D01*
X138734905Y-69945334D01*
X137925381Y-69945334D01*
X138925381Y-70945334D02*
X138925381Y-70373905D01*
X138925381Y-70659619D02*
X137925381Y-70659619D01*
X138068238Y-70564381D01*
X138163476Y-70469143D01*
X138211095Y-70373905D01*
X138925381Y-71897715D02*
X138925381Y-71326286D01*
X138925381Y-71612000D02*
X137925381Y-71612000D01*
X138068238Y-71516762D01*
X138163476Y-71421524D01*
X138211095Y-71326286D01*
X187604952Y-83879381D02*
X187271619Y-84879381D01*
X186938285Y-83879381D01*
X186033523Y-84784143D02*
X186081142Y-84831762D01*
X186223999Y-84879381D01*
X186319237Y-84879381D01*
X186462095Y-84831762D01*
X186557333Y-84736524D01*
X186604952Y-84641286D01*
X186652571Y-84450810D01*
X186652571Y-84307952D01*
X186604952Y-84117476D01*
X186557333Y-84022238D01*
X186462095Y-83927000D01*
X186319237Y-83879381D01*
X186223999Y-83879381D01*
X186081142Y-83927000D01*
X186033523Y-83974619D01*
X185033523Y-84784143D02*
X185081142Y-84831762D01*
X185223999Y-84879381D01*
X185319237Y-84879381D01*
X185462095Y-84831762D01*
X185557333Y-84736524D01*
X185604952Y-84641286D01*
X185652571Y-84450810D01*
X185652571Y-84307952D01*
X185604952Y-84117476D01*
X185557333Y-84022238D01*
X185462095Y-83927000D01*
X185319237Y-83879381D01*
X185223999Y-83879381D01*
X185081142Y-83927000D01*
X185033523Y-83974619D01*
X184081142Y-84879381D02*
X184652571Y-84879381D01*
X184366857Y-84879381D02*
X184366857Y-83879381D01*
X184462095Y-84022238D01*
X184557333Y-84117476D01*
X184652571Y-84165095D01*
X183604952Y-84879381D02*
X183414476Y-84879381D01*
X183319237Y-84831762D01*
X183271618Y-84784143D01*
X183176380Y-84641286D01*
X183128761Y-84450810D01*
X183128761Y-84069857D01*
X183176380Y-83974619D01*
X183223999Y-83927000D01*
X183319237Y-83879381D01*
X183509714Y-83879381D01*
X183604952Y-83927000D01*
X183652571Y-83974619D01*
X183700190Y-84069857D01*
X183700190Y-84307952D01*
X183652571Y-84403190D01*
X183604952Y-84450810D01*
X183509714Y-84498429D01*
X183319237Y-84498429D01*
X183223999Y-84450810D01*
X183176380Y-84403190D01*
X183128761Y-84307952D01*
X182938285Y-84974619D02*
X182176380Y-84974619D01*
X181366856Y-84784143D02*
X181414475Y-84831762D01*
X181557332Y-84879381D01*
X181652570Y-84879381D01*
X181795428Y-84831762D01*
X181890666Y-84736524D01*
X181938285Y-84641286D01*
X181985904Y-84450810D01*
X181985904Y-84307952D01*
X181938285Y-84117476D01*
X181890666Y-84022238D01*
X181795428Y-83927000D01*
X181652570Y-83879381D01*
X181557332Y-83879381D01*
X181414475Y-83927000D01*
X181366856Y-83974619D01*
X180414475Y-84879381D02*
X180985904Y-84879381D01*
X180700190Y-84879381D02*
X180700190Y-83879381D01*
X180795428Y-84022238D01*
X180890666Y-84117476D01*
X180985904Y-84165095D01*
X157800905Y-60791381D02*
X157800905Y-61600905D01*
X157753286Y-61696143D01*
X157705667Y-61743762D01*
X157610429Y-61791381D01*
X157419952Y-61791381D01*
X157324714Y-61743762D01*
X157277095Y-61696143D01*
X157229476Y-61600905D01*
X157229476Y-60791381D01*
X156800905Y-60886619D02*
X156753286Y-60839000D01*
X156658048Y-60791381D01*
X156419952Y-60791381D01*
X156324714Y-60839000D01*
X156277095Y-60886619D01*
X156229476Y-60981857D01*
X156229476Y-61077095D01*
X156277095Y-61219952D01*
X156848524Y-61791381D01*
X156229476Y-61791381D01*
M02*
